G04 DipTrace Beta 2.9.0.1*
G04 BottomMask.gbr*
%MOIN*%
G04 #@! TF.FileFunction,Soldermask,Bot*
G04 #@! TF.Part,Single*
%AMOUTLINE1*
4,1,4,
-0.00356,0.044487,
0.044584,-0.002007,
0.00356,-0.044487,
-0.044584,0.002007,
-0.00356,0.044487,
0*%
%AMOUTLINE7*
4,1,4,
-0.034799,0.001392,
-0.001392,0.034799,
0.034799,-0.001392,
0.001392,-0.034799,
-0.034799,0.001392,
0*%
%ADD57C,0.035433*%
%ADD58C,0.059055*%
%ADD64C,0.059055*%
%ADD66C,0.055874*%
%ADD72R,0.086614X0.047244*%
%ADD74R,0.047244X0.086614*%
%ADD76R,0.086614X0.041339*%
%ADD78R,0.086614X0.055118*%
%ADD80R,0.086614X0.035433*%
%ADD93R,0.049213X0.033465*%
%ADD95C,0.204724*%
%ADD97R,0.047244X0.055118*%
%ADD99R,0.055118X0.070866*%
%ADD107C,0.070866*%
%ADD109R,0.070866X0.070866*%
%ADD111R,0.082677X0.17126*%
%ADD115R,0.047244X0.051181*%
%ADD117R,0.141732X0.082677*%
%ADD121R,0.059055X0.066929*%
%ADD123R,0.066929X0.059055*%
%ADD125R,0.051181X0.047244*%
%ADD133OUTLINE1*%
%ADD139OUTLINE7*%
%FSLAX26Y26*%
G04*
G70*
G90*
G75*
G01*
G04 BotMask*
%LPD*%
D133*
X1154865Y1178995D3*
X1102902Y1125185D3*
D117*
X1187542Y1418820D3*
Y1572364D3*
D125*
X1037529Y1600089D3*
X970600D3*
D115*
X1000031Y1543807D3*
Y1476878D3*
X1981367Y1412558D3*
Y1479487D3*
D121*
X1900100Y513121D3*
X1825297D3*
D111*
X1487551Y537255D3*
Y879774D3*
D133*
X1051924Y1204798D3*
X1103887Y1258608D3*
D123*
X643727Y1862831D3*
Y1937634D3*
D109*
X1693850Y1443829D3*
D107*
X1793850D3*
X1893850D3*
D109*
X487472Y1456297D3*
D107*
Y1556297D3*
Y1656297D3*
D109*
X2244314Y1220247D3*
D107*
Y1320247D3*
Y1420247D3*
D109*
X2408066Y481210D3*
D107*
X2308066D3*
X2208066D3*
X2108066D3*
D109*
X724953Y674538D3*
D107*
Y574538D3*
Y474538D3*
X487472Y1193790D3*
Y1093790D3*
Y993790D3*
Y893790D3*
Y793790D3*
X587472D3*
Y893790D3*
Y993790D3*
Y1093790D3*
D109*
Y1193790D3*
X2512155Y1420247D3*
D107*
Y1320247D3*
Y1220247D3*
D109*
X487472Y1892890D3*
D107*
Y1792890D3*
D109*
X1056252Y1793829D3*
D107*
Y1693829D3*
D109*
X668929Y2093869D3*
D107*
X768929D3*
X868929D3*
X968929D3*
X1068929D3*
X1168929D3*
X1268929D3*
X1368929D3*
D109*
X985406Y691367D3*
D107*
Y591367D3*
D109*
X1225031Y587491D3*
D107*
Y487491D3*
D57*
X2079997Y1999276D3*
X1906769D3*
D107*
X2275148Y1525070D3*
D109*
X2375148D3*
D121*
X1587039Y975168D3*
X1661843D3*
D109*
X672413Y1762609D3*
D97*
X1293795Y1281294D3*
X1215055D3*
D95*
X2490189Y2056388D3*
X521685Y2056375D3*
Y520955D3*
D93*
X824992Y1887609D3*
Y1962412D3*
X915543Y1925010D3*
D125*
X1350064Y1956349D3*
X1283135D3*
X1350064Y2006388D3*
X1283135D3*
X1256291Y1675089D3*
X1189362D3*
X1300031Y1756349D3*
X1233102D3*
X1300031Y1812609D3*
X1233102D3*
X806244Y1118777D3*
X873173D3*
X1031282Y1037500D3*
X1098211D3*
D115*
X968772Y1793829D3*
Y1726900D3*
D125*
X1225038Y1337550D3*
X1291967D3*
X1343820Y1512560D3*
X1410749D3*
X1356302Y1393806D3*
X1289373D3*
D139*
X1004915Y1147332D3*
X957589Y1194657D3*
D125*
X1590976Y1040444D3*
X1657906D3*
X1887768Y1152491D3*
X1954697D3*
X1068774Y987530D3*
X1135703D3*
X793743Y1068772D3*
X860672D3*
X924992Y862491D3*
X991921D3*
D115*
X656228Y875001D3*
Y941930D3*
X1531331Y1281310D3*
Y1348239D3*
X756239Y1962615D3*
Y1895686D3*
D125*
X824992Y1831349D3*
X758063D3*
X981262Y2000119D3*
X914333D3*
D99*
X1932344Y1321887D3*
X1814234D3*
D125*
X787492Y962510D3*
X720563D3*
D115*
X581220Y1743843D3*
Y1676913D3*
X1431310Y1331299D3*
Y1398228D3*
D99*
X1633496Y1322176D3*
X1751606D3*
D125*
X874992Y1168790D3*
X808063D3*
D80*
X1543811Y2025129D3*
Y1981822D3*
Y1938514D3*
Y1895207D3*
Y1851900D3*
Y1808593D3*
Y1765286D3*
Y1721979D3*
D78*
X1874520Y2125522D3*
Y1550719D3*
D76*
X1543811Y1627491D3*
Y1672766D3*
D58*
X1685543Y2034971D3*
Y1641270D3*
D74*
X2546869Y1077701D3*
X2487866D3*
X2428864D3*
X2369861D3*
X2310858D3*
X2251869D3*
X2192866D3*
X2133864D3*
X2074861D3*
X2015858D3*
X1956869D3*
X1897866D3*
X1837866D3*
X2546869Y595706D3*
X2487866D3*
X2428864D3*
X2369822Y595955D3*
X2310858Y595706D3*
X2251711Y595955D3*
X2192656D3*
X2133601D3*
X2074546D3*
X2015491D3*
X1956436D3*
X1897381D3*
X1838325D3*
D72*
X1744861Y629709D3*
Y688698D3*
Y747701D3*
Y806703D3*
Y866703D3*
Y925706D3*
Y984709D3*
Y1043698D3*
D66*
X912512Y1343790D3*
X722512D3*
D64*
X906252Y1475050D3*
Y1597097D3*
M02*
