M48
INCH
T01C0.019
T02C0.032
T03C0.0354
T04C0.0394
T05C0.0591
T06C0.1378
%
T01
X+012875Y+014438
X+014126Y+014688
X+014813Y+013938
X+014813Y+013313
X+013876Y+012938
X+013501Y+013313
X+012625Y+012313
X+012688Y+011750
X+011813Y+012188
X+011750Y+013313
X+010000Y+013188
X+008562Y+012188
X+009250Y+011438
X+009063Y+010188
X+008562Y+009688
X+007500Y+008562
X+006750Y+007937
X+006937Y+010250
X+007000Y+011000
X+006750Y+012438
X+007375Y+012875
X+007812Y+015188
X+007125Y+015438
X+006312Y+016313
X+007437Y+017313
X+007625Y+017876
X+006000Y+018314
X+005812Y+018814
X+007062Y+019689
X+009631Y+018600
X+009938Y+019439
X+011625Y+020251
X+012375Y+019564
X+012813Y+019064
X+012438Y+018689
X+013501Y+018063
X+013876Y+018751
X+014313Y+019751
X+014626Y+020189
X+016313Y+019876
X+016376Y+018564
X+014376Y+017563
X+014563Y+017063
X+014688Y+015938
X+016001Y+015563
X+015813Y+014813
X+016251Y+014563
X+017876Y+015438
X+019814Y+015251
X+020501Y+015251
X+020626Y+016313
X+020626Y+016751
X+020751Y+017251
X+021189Y+017251
X+021626Y+017251
X+022064Y+017251
X+022751Y+017688
X+022751Y+018314
X+022501Y+018626
X+022751Y+018939
X+022501Y+019251
X+022751Y+019564
X+023627Y+019626
X+023627Y+019189
X+023627Y+018751
X+023627Y+018314
X+024064Y+018939
X+024502Y+018939
X+024939Y+018939
X+025377Y+018939
X+025189Y+017438
X+025627Y+017438
X+024752Y+017438
X+024314Y+017438
X+023252Y+017251
X+023252Y+016813
X+023252Y+016376
X+023252Y+015938
X+022064Y+015751
X+021870Y+013456
X+020908Y+012806
X+019991Y+012198
X+021142Y+011507
X+021064Y+009250
X+021564Y+009250
X+023314Y+009688
X+024314Y+009939
X+024439Y+007312
X+024877Y+006875
X+022751Y+007187
X+022189Y+007250
X+021252Y+006939
X+019314Y+006875
X+018377Y+007502
X+018855Y+009298
X+018959Y+009818
X+017563Y+011813
X+017063Y+011688
X+016595Y+011982
X+016063Y+012000
X+016251Y+011188
X+015040Y+010438
X+014188Y+010188
X+013717Y+009817
X+013313Y+010125
X+011875Y+009875
X+012813Y+007750
X+014001Y+007750
X+016063Y+008401
X+016075Y+009168
X+016501Y+007562
X+015876Y+004659
X+013313Y+004619
X+011000Y+006937
X+006625Y+005187
X+004437Y+013125
X+010813Y+015313
X+011438Y+017688
X+014126Y+011938
X+014626Y+011938
X+017917Y+012323
X+020501Y+013938
X+020751Y+017751
X+020751Y+018251
X+019939Y+020376
X+023502Y+020376
X+025377Y+015146
T02
X+009125Y+013438
X+009063Y+014750
X+009063Y+015971
X+007225Y+013438
T03
X+020800Y+019993
X+019068Y+019993
T04
X+016939Y+014438
X+017939Y+014438
X+018939Y+014438
X+022443Y+014202
X+022443Y+013202
X+022443Y+012202
X+025122Y+012202
X+025122Y+013202
X+025122Y+014202
X+023751Y+015251
X+022751Y+015251
X+023081Y+004812
X+024081Y+004812
X+022081Y+004812
X+021081Y+004812
X+012250Y+004875
X+012250Y+005875
X+009854Y+005914
X+009854Y+006914
X+007250Y+006745
X+007250Y+005745
X+007250Y+004745
X+005875Y+007938
X+005875Y+008938
X+005875Y+009938
X+005875Y+010938
X+004875Y+010938
X+004875Y+009938
X+004875Y+008938
X+004875Y+007938
X+004875Y+011938
X+005875Y+011938
X+004875Y+014563
X+004875Y+015563
X+004875Y+016563
X+004875Y+017929
X+004875Y+018929
X+006724Y+017626
X+006689Y+020939
X+007689Y+020939
X+008689Y+020939
X+009689Y+020939
X+010689Y+020939
X+011689Y+020939
X+012689Y+020939
X+013689Y+020939
X+010563Y+017938
X+010563Y+016938
T05
X+016855Y+020350
X+016855Y+016413
T06
X+024902Y+020564
X+005217Y+020564
X+005217Y+005210
T00
M30
