G04 DipTrace Beta 2.9.0.1*
G04 Top.gbr*
%MOIN*%
G04 #@! TF.FileFunction,Copper,L1,Top*
G04 #@! TF.Part,Single*
%AMOUTLINE3*
4,1,4,
-0.027874,0.008909,
0.00622,0.028594,
0.027874,-0.008909,
-0.00622,-0.028594,
-0.027874,0.008909,
0*%
%AMOUTLINE6*
4,1,4,
-0.029231,0.001392,
-0.001392,0.029231,
0.029231,-0.001392,
0.001392,-0.029231,
-0.029231,0.001392,
0*%
%AMOUTLINE9*
4,1,4,
-0.019685,0.021654,
0.019685,0.021654,
0.019685,-0.021654,
-0.019685,-0.021654,
-0.019685,0.021654,
0*%
G04 #@! TA.AperFunction,CopperBalancing*
%ADD14C,0.011811*%
G04 #@! TA.AperFunction,Conductor,NotC*
%ADD15C,0.019685*%
%ADD16C,0.015748*%
G04 #@! TA.AperFunction,CopperBalancing*
%ADD17C,0.01*%
%ADD18C,0.012992*%
G04 #@! TA.AperFunction,SMDPad,CuDef*
%ADD19R,0.161417X0.09252*%
%ADD20R,0.074803X0.133858*%
%ADD21R,0.043307X0.03937*%
%ADD22R,0.059055X0.051181*%
%ADD23R,0.051181X0.059055*%
%ADD24R,0.062992X0.070866*%
%ADD25R,0.133858X0.074803*%
%ADD26R,0.03937X0.043307*%
%ADD27R,0.070866X0.062992*%
G04 #@! TA.AperFunction,ComponentPad*
%ADD30R,0.062992X0.062992*%
%ADD31C,0.062992*%
G04 #@! TA.AperFunction,SMDPad,CuDef*
%ADD32R,0.019685X0.07874*%
%ADD33R,0.098425X0.086614*%
%ADD34R,0.049213X0.062992*%
%ADD35R,0.047244X0.062992*%
G04 #@! TA.AperFunction,ComponentPad*
%ADD37C,0.19685*%
G04 #@! TA.AperFunction,SMDPad,CuDef*
%ADD39R,0.041339X0.025591*%
%ADD40R,0.025591X0.041339*%
%ADD41R,0.027559X0.023622*%
%ADD42R,0.027559X0.035433*%
%ADD43R,0.07874X0.023622*%
%ADD44R,0.062992X0.011811*%
%ADD45R,0.011811X0.062992*%
%ADD51R,0.043307X0.023622*%
%ADD52R,0.023622X0.043307*%
G04 #@! TA.AperFunction,ComponentPad*
%ADD53C,0.048*%
%ADD54C,0.051181*%
G04 #@! TA.AperFunction,ViaPad*
%ADD55C,0.04*%
G04 #@! TA.AperFunction,SMDPad,CuDef*
%ADD135OUTLINE3*%
%ADD138OUTLINE6*%
%ADD141OUTLINE9*%
%FSLAX26Y26*%
G04*
G70*
G90*
G75*
G01*
G04 Top*
%LPD*%
X781241Y987513D2*
D14*
X762490Y968761D1*
X662479D1*
X637476Y993764D1*
Y1012516D1*
X606223Y1043769D1*
X562469D1*
X512490Y993790D1*
X487472D1*
X587472Y793790D2*
X606176D1*
X643727Y756239D1*
X693732D1*
X712484Y774991D1*
Y818745D1*
X749988Y856249D1*
X2446958Y1318900D2*
D15*
X2510808D1*
X2512155Y1320247D1*
X2446958Y1318900D2*
D16*
X2437665D1*
Y1362552D1*
X2431415Y1368803D1*
Y1431310D1*
X2418688D1*
X2446958Y1318900D2*
D15*
X2437665D1*
Y1256291D1*
X2425164Y1243790D1*
Y1218787D1*
X2431429Y993928D2*
Y1089971D1*
X2431449D1*
X1650083Y756239D2*
Y743738D1*
X1831234D1*
X1837675Y750178D1*
X1281294Y774991D2*
X1256274Y749971D1*
X1235701D1*
X1400056Y774991D2*
X1281294D1*
X587472Y893790D2*
Y881251D1*
X674980Y793743D1*
X2309402Y1121822D2*
X2399598D1*
X2431449Y1089971D1*
X2234598Y1121822D2*
D14*
Y1081273D1*
X2312652D1*
Y1118571D1*
X2309402Y1121822D1*
X2356407Y1281499D2*
D15*
Y1220615D1*
X2358235Y1218787D1*
X2362657D1*
Y1106276D1*
X2378962Y1089971D1*
X2431449D1*
X643732Y1937609D2*
Y1906365D1*
X624975Y1887608D1*
Y1868856D1*
X606223Y1850104D1*
Y1831352D1*
X599972D1*
X1895937Y981782D2*
D14*
X1906331D1*
X1906921Y981192D1*
X1956449D1*
X1850110Y687480D2*
Y737743D1*
X1837675Y750178D1*
X1094520Y1158790D2*
X940017D1*
X925007Y1143780D1*
X1556331Y656231D2*
X1500067D1*
Y756239D1*
Y824996D1*
X1475701Y849362D1*
Y860198D1*
X1501888Y756231D2*
X1500067Y756239D1*
X2443916Y731236D2*
X2393911D1*
X2093772Y1546861D2*
X2157556D1*
X2173339Y1531079D1*
X1094520Y1217845D2*
X1180341D1*
X1181283Y1218787D1*
X1791740Y1232343D2*
D15*
X1748820D1*
D14*
X1747984Y1231507D1*
X1956449Y831192D2*
Y833672D1*
X2007669D1*
X2036252Y862255D1*
X2064835D1*
Y1111703D1*
X2080425Y1127294D1*
Y1174066D1*
X2090819Y1184459D1*
Y1280601D1*
X1343732Y706231D2*
D16*
X1306294D1*
X1256273Y656210D1*
X1237520D1*
Y599979D1*
X1225031Y587491D1*
X1343732Y606231D2*
X1293803D1*
X1281294Y593722D1*
Y531215D1*
X1237570Y487491D1*
X1225031D1*
X1143761Y531231D2*
D14*
X1181291D1*
X1225031Y487491D1*
X1070583Y468711D2*
Y529606D1*
X1068958Y531231D1*
X1154441Y599971D2*
X1156281D1*
Y649774D1*
X1162717Y656210D1*
X1556331Y706231D2*
X1606331D1*
X1631331Y681231D1*
X1663224D1*
X1676858Y667597D1*
Y557361D2*
X1745001D1*
X1756362Y568722D1*
X1556331Y556231D2*
X1675728D1*
X1676858Y557361D1*
X985406Y691367D2*
Y772904D1*
X987512Y775010D1*
X1343732Y656231D2*
D15*
X1387558D1*
X1406307Y674980D1*
Y724986D1*
X1393806Y737487D1*
X1293795D1*
X1262542Y706234D1*
X1168782D1*
X1112526D1*
X1100025Y693732D1*
X1168772Y749971D2*
X1168782Y706234D1*
X487472Y1193790D2*
D14*
X481210D1*
Y1312547D1*
X499972Y1331310D1*
X543732D1*
X815703Y1862503D2*
D15*
X787492D1*
Y1929676D1*
X779559Y1937609D1*
X672413Y1762609D2*
Y1785030D1*
X749886Y1862503D1*
X787492D1*
X906255Y1825101D2*
D14*
X900004D1*
X881252Y1806349D1*
X824996D1*
X818741Y1800094D1*
Y1798278D1*
X1094520Y1296585D2*
X1196575D1*
X1212537Y1312547D1*
Y1350051D1*
X1193785Y1368803D1*
X1150030D1*
X1143780Y1375054D1*
Y1462563D1*
X1118777Y1487566D1*
Y1543822D1*
X1050020Y1612579D1*
X1018766D1*
X943759Y1687587D1*
X895566D1*
X881252Y1701900D1*
X818741Y1731349D2*
X825000Y1725091D1*
X858062D1*
X881252Y1701900D1*
X1743850Y931192D2*
X1801173D1*
X1830976Y960995D1*
Y1101310D1*
X1955701D1*
Y1109105D1*
X2023024D1*
X2023811Y1109892D1*
X1936567Y1257136D2*
D15*
Y1259814D1*
X2042827D1*
Y1257136D1*
X1838535Y1268908D2*
X1879047D1*
X1890819Y1257136D1*
X1936567D1*
X1407512Y1082018D2*
D14*
Y1030063D1*
X1418808Y1018766D1*
X1543339Y1257215D2*
X1611673D1*
X1618839Y1250050D1*
X1309087Y1082018D2*
Y1034728D1*
X1331299Y1012516D1*
X1426882Y461940D2*
X1331299D1*
X1407512Y1530837D2*
Y1726295D1*
X1437560Y1756344D1*
X1387827Y1530837D2*
Y1874835D1*
X1387555Y1875106D1*
X1368142Y1530837D2*
Y1788259D1*
X1350051Y1806349D1*
X1269717Y1530837D2*
Y1636657D1*
X1181283Y1725091D1*
Y1787597D1*
X1125028Y1843853D1*
Y1981367D1*
X1056270Y2050125D1*
Y2093869D1*
X1068929D1*
X1543339Y1276900D2*
X1454455D1*
X1418808Y1312547D1*
Y1418808D1*
X1506318Y1506318D1*
Y1743843D1*
X1431310Y1818850D1*
Y1975117D1*
X1543339Y1296585D2*
X1466024D1*
X1443811Y1318798D1*
Y1412558D1*
X1531320Y1500067D1*
Y1756344D1*
X1468814Y1818850D1*
Y2012621D1*
X1462563D1*
Y2018871D1*
X1427197Y1530837D2*
Y1677223D1*
X1456312Y1706339D1*
X1287545Y1443811D2*
X1289402Y1445668D1*
Y1530837D1*
X1412558Y1468814D2*
X1431310D1*
X1446882Y1484386D1*
Y1530837D1*
X674980Y1243790D2*
Y1256291D1*
X610661Y1320610D1*
Y1331310D1*
X1269717Y1082018D2*
Y1174109D1*
X1268793Y1175033D1*
X1094520Y1198160D2*
X898129D1*
X843748Y1143780D1*
Y1139357D1*
X806244Y1101853D1*
Y1093774D1*
X774991Y1062521D1*
Y1060693D1*
X781241Y1054442D1*
X1094520Y1434381D2*
X984442D1*
X975012Y1443811D1*
Y1493816D1*
X950009Y1518819D1*
Y1612579D1*
X925007Y1637581D1*
X875001D1*
X856249Y1618829D1*
X781241D1*
Y1756344D1*
X762490Y1775096D1*
Y1787597D1*
X1081273Y1531320D2*
Y1543822D1*
X1056270Y1568824D1*
X1018971D1*
X1018766Y1568619D1*
X1543339Y1434381D2*
X1603148D1*
X1625080Y1456312D1*
X1446882Y1082018D2*
Y1039142D1*
X1454756Y1031268D1*
X1491503D1*
X1504004Y1043769D1*
X487472Y1093790D2*
X474970D1*
X487472D2*
Y1118789D1*
X537466Y1168782D1*
Y1264387D1*
X520543Y1281310D1*
X1328772Y1530837D2*
Y1673563D1*
X1300899Y1701436D1*
X1230346Y1082018D2*
Y910995D1*
X1216528Y897176D1*
X793743Y674980D2*
X725395D1*
X724953Y674538D1*
X1543339Y1335955D2*
X2118614D1*
X2153181Y1301388D1*
Y1134324D1*
X2106381Y1087524D1*
Y1060693D1*
X2100130D1*
X1543339Y1454066D2*
X1572828D1*
X1581325Y1462563D1*
Y1481315D1*
X1600080D1*
X1656335Y1537570D1*
X1171291Y1530837D2*
Y1603819D1*
X1081281Y1693829D1*
X1056252D1*
X2093933Y631424D2*
Y656282D1*
X2118882Y681231D1*
X2125180D1*
Y693930D1*
X1210661Y1082018D2*
Y1010640D1*
X1187534Y987513D1*
X1106291Y943761D2*
X1143782D1*
X1187534Y987513D1*
X1237539Y1956365D2*
D16*
Y2000119D1*
X1243790Y2006370D1*
X668929Y2093869D2*
Y2018871D1*
X706234D1*
X875001D1*
X912505Y1981367D1*
X956260D1*
X993764Y1943864D1*
X668730Y2093669D2*
D14*
X668929Y2093869D1*
Y2018871D2*
X643727D1*
X599972Y1975117D1*
Y1893858D1*
X587471Y1881357D1*
X581220D1*
X704406Y1481315D2*
X743738D1*
X781241Y1518819D1*
X849999Y810667D2*
X843748D1*
Y968761D1*
X856249D1*
X2125180Y693930D2*
X2149937D1*
X2187639Y656228D1*
Y624975D1*
X2131383Y743738D2*
X2125180D1*
Y693930D1*
X2208066Y481210D2*
Y604549D1*
X2187639Y624975D1*
X1243790Y1868856D2*
D16*
X1318798D1*
X1393806Y1943864D1*
Y2005718D1*
X1469466Y2081378D1*
X1581325Y1481315D2*
Y1487566D1*
X1556323Y1512568D1*
Y1768845D1*
X1500067Y1825101D1*
Y2043874D1*
X1469466Y2074475D1*
Y2081378D1*
X856249Y1018766D2*
D14*
Y968761D1*
X1237539Y1956365D2*
D16*
X1231289D1*
Y1881357D1*
X1243790Y1868856D1*
X2309402Y1015522D2*
Y990764D1*
X2331404Y968761D1*
X706234Y1968866D2*
Y2018871D1*
X1466567Y1082018D2*
D14*
X1605583D1*
X1637581Y1050020D1*
X1750745Y1054091D2*
D15*
X1637581D1*
Y1050020D1*
X1706339Y1168782D2*
X1668835Y1131278D1*
Y1075022D1*
X1643832Y1050020D1*
X1637581D1*
X1885543Y929814D2*
X1867354D1*
X1856961Y940207D1*
Y1033751D1*
X1868856Y1045646D1*
Y1054091D1*
X1955701Y1042176D2*
D14*
X1880770D1*
X1868856Y1054091D1*
X1587576Y2081378D2*
D16*
X1581325D1*
Y1903636D1*
X1571547Y1893858D1*
X1637581Y1856354D2*
X1609051D1*
X1571547Y1893858D1*
X1612562Y1756349D2*
D14*
Y1762612D1*
X1593827Y1781346D1*
Y1871579D1*
X1571547Y1893858D1*
X1094520Y1355640D2*
X950671D1*
X938820Y1343790D1*
X912512D1*
X856269Y1312530D2*
X881252D1*
X912512Y1343790D1*
X1094520Y1375325D2*
X943487D1*
X931257Y1387555D1*
X887503D1*
X856249Y1356302D1*
X724986D1*
Y1337550D1*
X722512Y1340024D1*
Y1343790D1*
X720560Y1406310D2*
Y1345741D1*
X722512Y1343790D1*
X1693837Y1456312D2*
Y1443829D1*
X1693850D1*
X1543339Y1414696D2*
X1664717D1*
X1693850Y1443829D1*
X1466567Y1530837D2*
Y1591580D1*
X1468814Y1593827D1*
X1311016Y871585D2*
X1354077D1*
X1365465Y860198D1*
X1936567Y1182333D2*
X2042827D1*
X1936567D2*
X1934756D1*
X1887512Y1135089D1*
X2244314Y1420247D2*
Y1437142D1*
X2208340Y1473115D1*
X2206803D1*
X2031373Y901197D2*
X2011367Y881192D1*
X1956449D1*
X1964444Y784822D2*
Y792097D1*
X1914126D1*
X1901134Y805089D1*
Y872648D1*
X1909677Y881192D1*
X1956449D1*
X568732Y1381310D2*
X549962D1*
X487472Y1443799D1*
Y1456297D1*
X1543339Y1316270D2*
X1602618D1*
X1618839Y1300050D1*
X1543339Y1316270D2*
X1502594D1*
X1487566Y1331299D1*
X1481315D1*
X1685768Y1300050D2*
Y1306310D1*
X1747984D1*
X2056370Y1456310D2*
X2011046D1*
X2005961Y1461395D1*
X1685768Y1250050D2*
X1688693D1*
X1701185Y1262542D1*
X1766146D1*
X1817984Y1314381D1*
X2109008D1*
X2129795Y1293593D1*
Y1166270D1*
X2114205Y1150680D1*
X1368142Y1082018D2*
Y1124366D1*
X1375054Y1131278D1*
X1475064D1*
X1500067Y1106276D1*
X1612579D1*
X1625080Y1118777D1*
X2050125Y1393806D2*
Y1394466D1*
X2005961D1*
X2095701Y1393790D2*
X2050125D1*
X1250031Y1530837D2*
Y1625089D1*
X1156281Y1718840D1*
Y1756344D1*
X1143780Y1768845D1*
X1094520Y1335955D2*
X1170377D1*
X1175033Y1331299D1*
X793743Y741909D2*
Y768740D1*
X812495Y787492D1*
Y912505D1*
X793743Y931257D1*
X1094520Y1178475D2*
X909697D1*
X868751Y1137529D1*
Y1098197D1*
X856249Y1085696D1*
X793743Y931257D2*
X818745Y956260D1*
Y1048192D1*
X856249Y1085696D1*
X1550071Y956270D2*
Y911270D1*
X1558142Y903199D1*
X1563969D1*
X1585976Y881192D1*
X1743850D1*
X1250031Y1082018D2*
Y956269D1*
X1262542Y943759D1*
X1461753D1*
X1474255Y956260D1*
X1483142D1*
Y956270D1*
X1846016Y1219735D2*
D15*
X1952276D1*
X1998959D1*
X1999066Y1219841D1*
X689165Y1668829D2*
D14*
Y1687587D1*
X574970D1*
X487472Y1775084D1*
Y1792890D1*
X2281399Y787492D2*
X2287650D1*
X2306402Y768740D1*
X2462668D1*
X2487671Y743738D1*
Y687482D1*
X1743850Y981192D2*
X1810189D1*
Y1124696D1*
X1820583Y1135089D1*
X1094520Y1414696D2*
X966623D1*
X950009Y1431310D1*
Y1487566D1*
X906252Y1531323D1*
Y1597097D1*
X1094520Y1395010D2*
X955055D1*
X906252Y1443814D1*
Y1475050D1*
X635661Y1381310D2*
X649978D1*
Y1325049D1*
X724986Y1250041D1*
X793743D1*
X820602Y1276900D1*
X1094520D1*
X635661Y1381310D2*
Y1429495D1*
X637476Y1431310D1*
Y1481315D1*
X1094520Y1454066D2*
X1058517D1*
X1018766Y1493816D1*
X1006265D1*
X975012Y1525070D1*
Y1618829D1*
X931257Y1662584D1*
X824992D1*
Y1668829D1*
X1493811Y461940D2*
X1587576D1*
Y465877D1*
X1956449Y931192D2*
X1994438D1*
X2031373Y968126D1*
Y1035402D1*
X2023811Y1042963D1*
X1993383Y1891008D2*
Y1843367D1*
X1968866Y1818850D1*
Y1792018D1*
X1962621D1*
X2162630Y1800089D2*
D16*
Y1800227D1*
X2131429Y1831428D1*
X2068929D1*
X2056429Y1843928D1*
Y1890954D1*
X2056375Y1891008D1*
X2012669Y1631428D2*
D14*
X2062529D1*
X2062626Y1631331D1*
X2268890Y1681349D2*
Y1725050D1*
X2268850Y1725089D1*
X2024879Y1891008D2*
Y1798026D1*
X2018871Y1792018D1*
X2375150Y1799892D2*
X2456213D1*
X2487669Y1831349D1*
X724953Y574538D2*
X730804D1*
X793743Y637476D1*
X818745D1*
X843748Y662479D1*
Y743738D1*
X849999D1*
X2375150Y1673239D2*
Y1725089D1*
X2375148Y1525070D2*
Y1606308D1*
X2375150Y1606310D1*
X1961887Y1891008D2*
Y1849375D1*
X1943864Y1831352D1*
X1925112D1*
X1898299Y1804539D1*
Y1793829D1*
X1094520Y1316270D2*
X1002542D1*
X1000014Y1318798D1*
X1931362Y687482D2*
Y675885D1*
X1975823Y631424D1*
X1037433Y1011507D2*
Y978475D1*
X987512Y928554D1*
X574970Y1617001D2*
Y1631331D1*
X487472D1*
Y1656297D1*
X1543339Y1355640D2*
X2127512D1*
X2175138Y1308014D1*
Y1125028D1*
X2143885Y1093774D1*
Y1060693D1*
X2150135D1*
X693732Y1025017D2*
Y1050020D1*
X662479Y1081273D1*
Y1156281D1*
X624970Y1193790D1*
X587472D1*
X2234598Y1015522D2*
Y952850D1*
X2243895Y943554D1*
X818745Y483038D2*
X733453D1*
X724953Y474538D1*
X968929Y2093869D2*
Y2093711D1*
X975012Y2087629D1*
Y2100130D1*
X1100025Y1975117D1*
Y1837602D1*
X1106276Y1831352D1*
Y1756344D1*
X1131278Y1731341D1*
Y1712589D1*
X1230346Y1613521D1*
Y1530837D1*
X1210661D2*
Y1601953D1*
X1106276Y1706339D1*
Y1718840D1*
X1081273Y1743843D1*
X1012516D1*
X1006265Y1750093D1*
Y1837602D1*
X1075022Y1906360D1*
Y1968866D1*
X1000014Y2043874D1*
X950009D1*
X900014Y2093869D1*
X868929D1*
X1543339Y1198160D2*
X1466938D1*
X1462563Y1193785D1*
X1412558D2*
Y1218787D1*
X1425059Y1231289D1*
X1475064D1*
X1488508Y1217845D1*
X1543339D1*
X1606328Y1200035D2*
X1584768Y1178475D1*
X1543339D1*
X1253573Y1748761D2*
Y1777814D1*
X1175033Y1856354D1*
Y2012621D1*
X1162531Y2025122D1*
X1309087Y1530837D2*
Y1628541D1*
X1206286Y1731341D1*
Y1793848D1*
X1150030Y1850104D1*
Y1987618D1*
X1118777Y2018871D1*
Y2068877D1*
X1143769Y2093869D1*
X1168929D1*
X1348457Y1530837D2*
Y1714184D1*
X1200035Y1862605D1*
Y2043874D1*
X1250030Y2093869D1*
X1268929D1*
X1094520Y1257215D2*
X832171D1*
X799993Y1225038D1*
X718735D1*
X699983Y1206286D1*
X649978D1*
X637476Y1218787D1*
Y1256291D1*
X612458Y1281310D1*
X587472D1*
X2275148Y718735D2*
X2326982D1*
Y731236D1*
X2275148Y718735D2*
X2281399D1*
Y549967D1*
X2293900Y537466D1*
X2351810D1*
X2408066Y481210D1*
X2150135Y993764D2*
Y925007D1*
X2156386D1*
X2218892Y724986D2*
Y783070D1*
X2214470Y787492D1*
X2218892Y724986D2*
X2250146Y693732D1*
Y539130D1*
X2308066Y481210D1*
X2100130Y993764D2*
X2093879D1*
Y937508D1*
X2106381Y925007D1*
X1543339Y1237530D2*
X1500076D1*
X1481315Y1256291D1*
X1443811D1*
X1406307Y1293795D1*
X1387555D1*
X1543339Y1375325D2*
X1925383D1*
X1968866Y1418808D1*
Y1512568D1*
X1981367Y1525070D1*
X2012669Y1668829D2*
X2012626D1*
X2006370Y1675085D1*
Y1725089D1*
X2018871D1*
X1981367Y1525070D2*
X1975117D1*
X1968866Y1531320D1*
Y1662584D1*
X1975112Y1668829D1*
X2012669D1*
X1543339Y1395010D2*
X1913815D1*
X1943864Y1425059D1*
Y1668835D1*
Y1681336D1*
X1962621Y1700093D1*
Y1725089D1*
Y1737592D1*
X1898301D1*
X1898287Y1737579D1*
X1543339Y1395010D2*
X1482520D1*
X1481315Y1393806D1*
X1906370Y1668829D2*
X1943864D1*
Y1668835D1*
D55*
X1175033Y1331299D3*
X1287545Y1443811D3*
X1412558Y1468814D3*
X1268793Y1175033D3*
X1431310Y1975117D3*
X1350051Y1806349D3*
X1437560Y1756344D3*
X1462563Y2018871D3*
X1387555Y1875106D3*
X1456312Y1706339D3*
X1187534Y987513D3*
X1181283Y1218787D3*
X906255Y1018766D3*
X1237539Y1956365D3*
X1468814Y1593827D3*
X1581325Y1481315D3*
X2431415Y1743843D3*
X674980Y793743D3*
X1606328Y1200035D3*
X1371685Y981673D3*
X1756344Y1181283D3*
X2443916Y731236D3*
X2487671Y687482D3*
X2186961Y1345562D3*
X1706339Y1168782D3*
X1931362Y687482D3*
X1606328Y840096D3*
X2114205Y1150680D3*
X1895937Y981782D3*
X1625080Y1118777D3*
X674980Y1243790D3*
X1412558Y1193785D3*
X1162531Y2025122D3*
X1262542Y1231289D3*
X1587576Y465877D3*
X1331299Y1012516D3*
Y461940D3*
X1637581Y1856354D3*
X1999066Y1219841D3*
X1100025Y693732D3*
X749988Y856249D3*
X2475163Y1743843D3*
X1504004Y1043769D3*
X1659480Y1198160D3*
X662479Y518714D3*
X1400056Y774991D3*
X1081273Y1531320D3*
X1631331Y1987618D3*
X2350156Y2037623D3*
X2050125Y1393806D3*
X1143780Y1768845D3*
X1481315Y1331299D3*
X2331404Y968761D3*
X1418808Y1018766D3*
X781241Y1518819D3*
X2431429Y993928D3*
X2125180Y693930D3*
X1837675Y750178D3*
X1600077Y1556323D3*
X1350051Y1331299D3*
X762490Y1787597D3*
X743738Y1731341D3*
X2275148Y1893858D3*
Y1831352D3*
X2362657Y1962615D3*
Y1918861D3*
X2537669Y1514640D3*
X2450167Y1893858D3*
X2493921D3*
X2537676D3*
X2325154Y1637581D3*
X2206391Y1575075D3*
X712484Y1543822D3*
X443706Y1312547D3*
X1650083Y756239D3*
X1281294Y1906360D3*
X631226Y1631331D3*
X1787597Y1543822D3*
X2362657Y1831352D3*
X2275148Y1956365D3*
X2050125Y1525070D3*
X1243790Y1868856D3*
X1281294Y774991D3*
X737487Y1287545D3*
X1625080Y1456312D3*
X2206391Y1725091D3*
X2162636D3*
X2275148Y1768845D3*
X1993869Y2037623D3*
X993764Y1943864D3*
X581220Y1881357D3*
X706234Y1968866D3*
X856249Y968761D3*
X1000014Y1318798D3*
X699983Y1100025D3*
X2275148Y718735D3*
X2218892Y724986D3*
X2156386Y925007D3*
X2106381D3*
X693732Y1025017D3*
X1462563Y1193785D3*
X599972Y1831352D3*
X1387555Y1293795D3*
X1481315Y1393806D3*
X1981367Y1525070D3*
X2118882Y1725091D3*
X2062626Y1631331D3*
X2075127Y1825101D3*
Y1725091D3*
Y1775096D3*
X2406412Y1893858D3*
X2250146Y1925112D3*
Y1862605D3*
X2362657Y1875106D3*
X2062626Y1675085D3*
X1885543Y929814D3*
X856249Y1218787D3*
X925007Y1143780D3*
X2325154Y1725091D3*
Y1681336D3*
X2518924Y1743843D3*
X2562678D3*
X2325154Y1593827D3*
X1791740Y1232343D3*
X2090819Y1280601D3*
X1607512Y916822D3*
X963102Y1860050D3*
X600707Y2137819D2*
D14*
X621967D1*
X715865D2*
X755026D1*
X782671D2*
X855050D1*
X882696D2*
X955075D1*
X982720D2*
X1055100D1*
X1082745D2*
X1155125D1*
X1182769D2*
X1255148D1*
X1282794D2*
X1355173D1*
X1382819D2*
X1763392D1*
X1892723D2*
X2094101D1*
X2223432D2*
X2411152D1*
X611411Y2126139D2*
X621967D1*
X715865D2*
X735280D1*
X802602D2*
X835304D1*
X902442D2*
X935328D1*
X1002467D2*
X1035353D1*
X1102491D2*
X1135378D1*
X1202516D2*
X1235403D1*
X1302541D2*
X1335427D1*
X1402566D2*
X1430469D1*
X1508495D2*
X1548579D1*
X1626605D2*
X1763392D1*
X1892723D2*
X2094101D1*
X2223432D2*
X2400449D1*
X715865Y2114459D2*
X726975D1*
X810907D2*
X826999D1*
X910932D2*
X926840D1*
X1010955D2*
X1026864D1*
X1110980D2*
X1126888D1*
X1211005D2*
X1226913D1*
X1311030D2*
X1326938D1*
X1410870D2*
X1430469D1*
X1508495D2*
X1548579D1*
X1626605D2*
X1763392D1*
X1892723D2*
X2094101D1*
X2223432D2*
X2392513D1*
X715865Y2102780D2*
X722915D1*
X814967D2*
X822940D1*
X1015016D2*
X1022804D1*
X1115041D2*
X1122828D1*
X1214881D2*
X1222853D1*
X1314906D2*
X1322878D1*
X1414930D2*
X1430469D1*
X1508495D2*
X1548579D1*
X1626605D2*
X1763392D1*
X1892723D2*
X2094101D1*
X2223432D2*
X2386424D1*
X715865Y2091100D2*
X722176D1*
X815705D2*
X822017D1*
X1015755D2*
X1022066D1*
X1315828D2*
X1322139D1*
X1415853D2*
X1430469D1*
X1508495D2*
X1548579D1*
X1626605D2*
X1763392D1*
X1892723D2*
X2094101D1*
X2223432D2*
X2381810D1*
X715865Y2079420D2*
X724391D1*
X813491D2*
X824416D1*
X1313429D2*
X1324354D1*
X1413454D2*
X1430469D1*
X1508495D2*
X1548579D1*
X1626605D2*
X1651556D1*
X1719433D2*
X1763392D1*
X1892723D2*
X2094101D1*
X2223432D2*
X2378672D1*
X715865Y2067740D2*
X730297D1*
X807585D2*
X830136D1*
X1307707D2*
X1330260D1*
X1407732D2*
X1423455D1*
X1508680D2*
X1548579D1*
X1626605D2*
X1639930D1*
X1731244D2*
X1763392D1*
X1892723D2*
X2094101D1*
X2223432D2*
X2376827D1*
X715865Y2056060D2*
X741923D1*
X795774D2*
X841948D1*
X895798D2*
X908199D1*
X1295896D2*
X1342071D1*
X1395921D2*
X1411644D1*
X1519753D2*
X1548579D1*
X1626605D2*
X1633184D1*
X1737703D2*
X1763392D1*
X1892723D2*
X2094101D1*
X2223432D2*
X2376273D1*
X692243Y2044381D2*
X919827D1*
X1359566D2*
X1400018D1*
X1523444D2*
X1548579D1*
X1741210D2*
X2377012D1*
X893584Y2032701D2*
X931453D1*
X1359566D2*
X1388392D1*
X1523444D2*
X1557991D1*
X1604644D2*
X1629226D1*
X1741948D2*
X1888514D1*
X1925018D2*
X2061804D1*
X2098308D2*
X2378857D1*
X905395Y2021021D2*
X993277D1*
X1359566D2*
X1376581D1*
X1523444D2*
X1557991D1*
X1604644D2*
X1630887D1*
X1740102D2*
X1875043D1*
X1938491D2*
X2048333D1*
X2111781D2*
X2381995D1*
X917021Y2009341D2*
X1004903D1*
X1359566D2*
X1370860D1*
X1523444D2*
X1557991D1*
X1604644D2*
X1635501D1*
X1735673D2*
X1869507D1*
X1944026D2*
X2042612D1*
X2117316D2*
X2386608D1*
X972386Y1997661D2*
X1016529D1*
X1359566D2*
X1370491D1*
X1523444D2*
X1557991D1*
X1604644D2*
X1643621D1*
X1727369D2*
X1868030D1*
X1945503D2*
X2041320D1*
X2118609D2*
X2322755D1*
X2379743D2*
X2392883D1*
X426772Y1985982D2*
X432622D1*
X737088D2*
X875350D1*
X984012D2*
X1028156D1*
X1359566D2*
X1370491D1*
X1523444D2*
X1557991D1*
X1604644D2*
X1658938D1*
X1712235D2*
X1870429D1*
X1943104D2*
X2043719D1*
X2116210D2*
X2210550D1*
X2314782D2*
X2322201D1*
X2390446D2*
X2401003D1*
X2579239D2*
X2585919D1*
X426772Y1974302D2*
X443325D1*
X819580D2*
X887161D1*
X1010587D2*
X1039967D1*
X1359566D2*
X1370491D1*
X1624391D2*
X1672226D1*
X1777934D2*
X1877627D1*
X1935907D2*
X2050732D1*
X2109197D2*
X2209812D1*
X2315521D2*
X2322201D1*
X2401151D2*
X2411891D1*
X2568534D2*
X2585919D1*
X426772Y1962622D2*
X458089D1*
X819580D2*
X899526D1*
X1023505D2*
X1051593D1*
X1359566D2*
X1370491D1*
X1624391D2*
X1672226D1*
X1777934D2*
X1897558D1*
X1915975D2*
X2070848D1*
X2089265D2*
X2209812D1*
X2315521D2*
X2322201D1*
X2411854D2*
X2426470D1*
X2553770D2*
X2585919D1*
X426772Y1950942D2*
X480789D1*
X562507D2*
X578598D1*
X819580D2*
X954152D1*
X1028488D2*
X1053623D1*
X1272459D2*
X1368461D1*
X1624391D2*
X1672226D1*
X1892723D2*
X2094101D1*
X2315521D2*
X2322201D1*
X2422558D2*
X2449354D1*
X2531072D2*
X2585919D1*
X426772Y1939262D2*
X578598D1*
X683753D2*
X687829D1*
X724538D2*
X739524D1*
X819580D2*
X958581D1*
X1028857D2*
X1053623D1*
X1268399D2*
X1356835D1*
X1624391D2*
X1672226D1*
X1892723D2*
X1905125D1*
X2081699D2*
X2094101D1*
X2315521D2*
X2322201D1*
X2433261D2*
X2585919D1*
X426772Y1927583D2*
X440558D1*
X534455D2*
X578598D1*
X683753D2*
X739524D1*
X819580D2*
X962457D1*
X1024982D2*
X1053623D1*
X1257327D2*
X1345024D1*
X1624391D2*
X1672226D1*
X1892723D2*
X1905125D1*
X2081699D2*
X2094101D1*
X2315521D2*
X2322201D1*
X2575178D2*
X2585919D1*
X426772Y1915903D2*
X440558D1*
X534455D2*
X578598D1*
X683753D2*
X739524D1*
X819580D2*
X870184D1*
X942304D2*
X972791D1*
X1014647D2*
X1053623D1*
X1254558D2*
X1333396D1*
X1624391D2*
X1672226D1*
X1892723D2*
X1905125D1*
X2081699D2*
X2094101D1*
X2315521D2*
X2322201D1*
X2578131D2*
X2585919D1*
X426772Y1904223D2*
X440558D1*
X534455D2*
X554608D1*
X683753D2*
X739524D1*
X819580D2*
X870184D1*
X942304D2*
X1043289D1*
X1254558D2*
X1321770D1*
X1624391D2*
X1672226D1*
X1892723D2*
X1905125D1*
X2081699D2*
X2094101D1*
X2315521D2*
X2322201D1*
X2578131D2*
X2585919D1*
X426772Y1892543D2*
X440558D1*
X534455D2*
X547594D1*
X683753D2*
X739524D1*
X819580D2*
X870184D1*
X942304D2*
X1031478D1*
X1269692D2*
X1309959D1*
X1624391D2*
X1672226D1*
X1892723D2*
X1905125D1*
X2081699D2*
X2094101D1*
X2315521D2*
X2322201D1*
X2578131D2*
X2585919D1*
X426772Y1880864D2*
X440558D1*
X534455D2*
X545749D1*
X653488D2*
X733064D1*
X851877D2*
X870184D1*
X942304D2*
X1019852D1*
X1662592D2*
X1672226D1*
X1892723D2*
X1905125D1*
X2081699D2*
X2094101D1*
X2315521D2*
X2322201D1*
X2578131D2*
X2585919D1*
X426772Y1869184D2*
X440558D1*
X534455D2*
X547963D1*
X650167D2*
X721253D1*
X851877D2*
X1008224D1*
X1892723D2*
X1905125D1*
X2081699D2*
X2094101D1*
X2315521D2*
X2322201D1*
X2578131D2*
X2585919D1*
X426772Y1857504D2*
X440558D1*
X534455D2*
X555530D1*
X647398D2*
X709627D1*
X851877D2*
X996413D1*
X1892723D2*
X1905125D1*
X2315521D2*
X2322201D1*
X2578131D2*
X2585919D1*
X426772Y1845824D2*
X567710D1*
X637248D2*
X698001D1*
X851877D2*
X870184D1*
X942304D2*
X986633D1*
X1892723D2*
X1905125D1*
X2315521D2*
X2322201D1*
X2578131D2*
X2585919D1*
X426772Y1834144D2*
X466579D1*
X508434D2*
X564757D1*
X635218D2*
X686374D1*
X756835D2*
X783631D1*
X853907D2*
X870184D1*
X942304D2*
X984971D1*
X1664807D2*
X1672226D1*
X1777934D2*
X1898297D1*
X2315521D2*
X2322201D1*
X2578131D2*
X2585919D1*
X426772Y1822465D2*
X451446D1*
X523567D2*
X565680D1*
X634295D2*
X674563D1*
X745024D2*
X783631D1*
X942304D2*
X984971D1*
X1624391D2*
X1631441D1*
X1643584D2*
X1672226D1*
X1777934D2*
X1794211D1*
X2315521D2*
X2322201D1*
X2578131D2*
X2585919D1*
X426772Y1810785D2*
X444248D1*
X530764D2*
X571402D1*
X628573D2*
X662937D1*
X942304D2*
X984971D1*
X1615164D2*
X1794211D1*
X2315521D2*
X2322201D1*
X2578131D2*
X2585919D1*
X426772Y1799105D2*
X440927D1*
X533902D2*
X587273D1*
X612703D2*
X625474D1*
X721770D2*
X729005D1*
X942304D2*
X984971D1*
X1728291D2*
X1794211D1*
X2315521D2*
X2322201D1*
X2578131D2*
X2585919D1*
X426772Y1787425D2*
X440927D1*
X534085D2*
X625474D1*
X719371D2*
X727159D1*
X916283D2*
X984971D1*
X1728291D2*
X1794211D1*
X2315521D2*
X2322201D1*
X2578131D2*
X2585919D1*
X426772Y1775745D2*
X443879D1*
X531133D2*
X625474D1*
X719371D2*
X729189D1*
X916283D2*
X984971D1*
X1728291D2*
X1794211D1*
X2315521D2*
X2328660D1*
X2571672D2*
X2585919D1*
X426772Y1764066D2*
X450707D1*
X528180D2*
X625474D1*
X719371D2*
X736387D1*
X916283D2*
X984971D1*
X1728291D2*
X1794211D1*
X2315521D2*
X2338072D1*
X2412223D2*
X2585919D1*
X426772Y1752386D2*
X465102D1*
X539807D2*
X625474D1*
X719371D2*
X755580D1*
X916283D2*
X984971D1*
X1728291D2*
X1794211D1*
X2315521D2*
X2338072D1*
X2412223D2*
X2585919D1*
X426772Y1740706D2*
X492231D1*
X551433D2*
X625474D1*
X719371D2*
X759824D1*
X916283D2*
X987186D1*
X1728291D2*
X1794211D1*
X2315151D2*
X2338072D1*
X2412223D2*
X2585919D1*
X426772Y1729026D2*
X503857D1*
X563244D2*
X625474D1*
X719371D2*
X759824D1*
X916283D2*
X997706D1*
X1728291D2*
X1794211D1*
X2305924D2*
X2338072D1*
X2570010D2*
X2585919D1*
X426772Y1717346D2*
X515483D1*
X574871D2*
X625474D1*
X719371D2*
X759824D1*
X916283D2*
X1015791D1*
X1728291D2*
X1794211D1*
X2305924D2*
X2338072D1*
X2570010D2*
X2585919D1*
X426772Y1705667D2*
X527294D1*
X729152D2*
X759824D1*
X953747D2*
X1010808D1*
X1579546D2*
X1794211D1*
X2305924D2*
X2338072D1*
X2570010D2*
X2585919D1*
X426772Y1693987D2*
X460304D1*
X514524D2*
X538921D1*
X729152D2*
X759824D1*
X967034D2*
X1009332D1*
X1579546D2*
X1667797D1*
X1703193D2*
X1869322D1*
X2304079D2*
X2340102D1*
X2570010D2*
X2585919D1*
X426772Y1682307D2*
X448677D1*
X526335D2*
X550547D1*
X729152D2*
X759824D1*
X978660D2*
X1010808D1*
X1579546D2*
X1647312D1*
X1723677D2*
X1869322D1*
X2304079D2*
X2340102D1*
X2570010D2*
X2585919D1*
X426772Y1670627D2*
X442772D1*
X532056D2*
X562912D1*
X729152D2*
X759824D1*
X990471D2*
X1015606D1*
X1579546D2*
X1637530D1*
X1733458D2*
X1869322D1*
X2304079D2*
X2340102D1*
X2570010D2*
X2585919D1*
X426772Y1658948D2*
X440558D1*
X534270D2*
X649096D1*
X729152D2*
X759824D1*
X1002097D2*
X1025572D1*
X1579546D2*
X1631995D1*
X1738995D2*
X1869322D1*
X2304079D2*
X2340102D1*
X2570010D2*
X2585919D1*
X426772Y1647268D2*
X441480D1*
X610119D2*
X649096D1*
X729152D2*
X759824D1*
X1013724D2*
X1098100D1*
X1579546D2*
X1629411D1*
X1741579D2*
X1869322D1*
X2304079D2*
X2340102D1*
X2570010D2*
X2585919D1*
X426772Y1635588D2*
X445541D1*
X610119D2*
X649096D1*
X729152D2*
X759824D1*
X1025350D2*
X1109911D1*
X1579546D2*
X1629411D1*
X1741579D2*
X1869322D1*
X2304079D2*
X2340102D1*
X2570010D2*
X2585919D1*
X426772Y1623908D2*
X454029D1*
X610119D2*
X649096D1*
X729152D2*
X759824D1*
X1068350D2*
X1121537D1*
X1579546D2*
X1631995D1*
X1739180D2*
X1869322D1*
X2304079D2*
X2340102D1*
X2410193D2*
X2585919D1*
X426772Y1612228D2*
X474144D1*
X610119D2*
X761115D1*
X1079976D2*
X1133163D1*
X1579546D2*
X1637346D1*
X1733643D2*
X1869322D1*
X2304079D2*
X2340102D1*
X2410193D2*
X2585919D1*
X426772Y1600549D2*
X474698D1*
X500129D2*
X539844D1*
X610119D2*
X771635D1*
X1091787D2*
X1144974D1*
X1579546D2*
X1647127D1*
X1724046D2*
X1869322D1*
X2304079D2*
X2340102D1*
X2410193D2*
X2585919D1*
X426772Y1588869D2*
X454214D1*
X520798D2*
X539844D1*
X610119D2*
X866123D1*
X1103415D2*
X1149957D1*
X1579546D2*
X1666874D1*
X1704115D2*
X1869322D1*
X2049773D2*
X2233803D1*
X2304079D2*
X2340102D1*
X2410193D2*
X2585919D1*
X426772Y1577189D2*
X445541D1*
X529287D2*
X539844D1*
X610119D2*
X870552D1*
X1115041D2*
X1149957D1*
X1579546D2*
X1615385D1*
X1772214D2*
X1869322D1*
X2049773D2*
X2065496D1*
X2121930D2*
X2340102D1*
X2410193D2*
X2585919D1*
X426772Y1565509D2*
X441480D1*
X533533D2*
X539860D1*
X610119D2*
X880887D1*
X1126667D2*
X1149957D1*
X1579546D2*
X1615385D1*
X1772214D2*
X1922471D1*
X1990164D2*
X2065496D1*
X2193904D2*
X2252627D1*
X2297619D2*
X2328291D1*
X2422004D2*
X2585919D1*
X426772Y1553829D2*
X440558D1*
X534270D2*
X539701D1*
X610119D2*
X884948D1*
X1137371D2*
X1149957D1*
X1579546D2*
X1615385D1*
X1772214D2*
X1922471D1*
X2001052D2*
X2065496D1*
X2200547D2*
X2238416D1*
X2311829D2*
X2328291D1*
X2422004D2*
X2585919D1*
X426772Y1542150D2*
X442772D1*
X532056D2*
X539844D1*
X610119D2*
X755026D1*
X807400D2*
X884948D1*
X1140139D2*
X1149957D1*
X1579546D2*
X1615385D1*
X1772214D2*
X1922471D1*
X2012310D2*
X2065496D1*
X2207375D2*
X2231588D1*
X2318843D2*
X2328291D1*
X2422004D2*
X2585919D1*
X426772Y1530470D2*
X448493D1*
X526335D2*
X539844D1*
X610119D2*
X747828D1*
X814597D2*
X884948D1*
X1140139D2*
X1149957D1*
X1579546D2*
X1615385D1*
X1772214D2*
X1922471D1*
X2016369D2*
X2065496D1*
X2214020D2*
X2228635D1*
X2321795D2*
X2328291D1*
X2422004D2*
X2585919D1*
X426772Y1518790D2*
X460119D1*
X514892D2*
X539844D1*
X610119D2*
X745798D1*
X816627D2*
X889377D1*
X1140139D2*
X1149957D1*
X1582499D2*
X1607819D1*
X1772214D2*
X1922471D1*
X2016185D2*
X2065496D1*
X2121930D2*
X2140052D1*
X2216234D2*
X2228635D1*
X2321610D2*
X2328291D1*
X2422004D2*
X2585919D1*
X426772Y1507110D2*
X600375D1*
X814597D2*
X881441D1*
X1140139D2*
X1149957D1*
X1772214D2*
X1922471D1*
X2011756D2*
X2146881D1*
X2227491D2*
X2231958D1*
X2318474D2*
X2328291D1*
X2422004D2*
X2585919D1*
X426772Y1495430D2*
X440558D1*
X534455D2*
X600375D1*
X807400D2*
X870921D1*
X1140508D2*
X1149957D1*
X1772214D2*
X1922471D1*
X2041098D2*
X2153525D1*
X2234320D2*
X2239228D1*
X2311092D2*
X2328291D1*
X2422004D2*
X2585919D1*
X426772Y1483751D2*
X440558D1*
X534455D2*
X600375D1*
X775843D2*
X866123D1*
X1152319D2*
X1268067D1*
X1310660D2*
X1380640D1*
X1632142D2*
X1646942D1*
X1740840D2*
X1770404D1*
X1817428D2*
X1870429D1*
X1917268D2*
X1922479D1*
X2084652D2*
X2102959D1*
X2159394D2*
X2163714D1*
X2240963D2*
X2254287D1*
X2295958D2*
X2328291D1*
X2422004D2*
X2585919D1*
X426772Y1472071D2*
X440558D1*
X534455D2*
X600375D1*
X764217D2*
X865385D1*
X1162654D2*
X1266959D1*
X1310660D2*
X1377319D1*
X1620516D2*
X1646942D1*
X1740840D2*
X1756748D1*
X1831084D2*
X1856773D1*
X2084652D2*
X2102959D1*
X2159394D2*
X2166997D1*
X2247791D2*
X2302824D1*
X2459652D2*
X2585919D1*
X426772Y1460391D2*
X440558D1*
X741517D2*
X867969D1*
X1165052D2*
X1256441D1*
X1318596D2*
X1378241D1*
X1609627D2*
X1646942D1*
X1740840D2*
X1750105D1*
X1837727D2*
X1850129D1*
X2084652D2*
X2102959D1*
X2159394D2*
X2173825D1*
X2267353D2*
X2302824D1*
X2459652D2*
X2465273D1*
X2559123D2*
X2585919D1*
X426772Y1448711D2*
X440558D1*
X741517D2*
X875167D1*
X1165052D2*
X1252566D1*
X1322656D2*
X1383593D1*
X1597077D2*
X1646942D1*
X1740840D2*
X1747108D1*
X1840496D2*
X1847193D1*
X2084652D2*
X2102959D1*
X2159394D2*
X2180469D1*
X2281379D2*
X2302824D1*
X2459652D2*
X2465273D1*
X2559123D2*
X2585919D1*
X426772Y1437031D2*
X440558D1*
X674526D2*
X683421D1*
X824563D2*
X886054D1*
X1165052D2*
X1252749D1*
X1322287D2*
X1398727D1*
X1590249D2*
X1646942D1*
X1740840D2*
X1747521D1*
X1840311D2*
X1847487D1*
X2084652D2*
X2102959D1*
X2159394D2*
X2187297D1*
X2288022D2*
X2302824D1*
X2459652D2*
X2465273D1*
X2559123D2*
X2585919D1*
X426772Y1425352D2*
X440558D1*
X674526D2*
X683421D1*
X824563D2*
X895097D1*
X1165052D2*
X1257549D1*
X1317490D2*
X1398542D1*
X1740840D2*
X1750843D1*
X1836804D2*
X1850867D1*
X2290975D2*
X2302824D1*
X2459652D2*
X2465273D1*
X2559123D2*
X2585919D1*
X426772Y1413672D2*
X440558D1*
X674526D2*
X683421D1*
X824563D2*
X906723D1*
X1165052D2*
X1270097D1*
X1304940D2*
X1397434D1*
X2290791D2*
X2302824D1*
X2459652D2*
X2465273D1*
X2559123D2*
X2585919D1*
X426772Y1401992D2*
X499613D1*
X674526D2*
X683421D1*
X824563D2*
X872214D1*
X1165052D2*
X1397434D1*
X2287470D2*
X2302824D1*
X2459652D2*
X2465273D1*
X2559123D2*
X2585919D1*
X426772Y1390312D2*
X511239D1*
X672681D2*
X683421D1*
X824563D2*
X860587D1*
X1165052D2*
X1397434D1*
X2199625D2*
X2208520D1*
X2280088D2*
X2302824D1*
X2459652D2*
X2465273D1*
X2559123D2*
X2585919D1*
X426772Y1378633D2*
X523050D1*
X672681D2*
X683421D1*
X824563D2*
X848961D1*
X1213589D2*
X1397434D1*
X2199625D2*
X2224206D1*
X2264400D2*
X2320356D1*
X2392476D2*
X2408199D1*
X2454669D2*
X2465226D1*
X2559123D2*
X2585919D1*
X426772Y1366953D2*
X531723D1*
X672681D2*
X690988D1*
X1225215D2*
X1397434D1*
X2199625D2*
X2320356D1*
X2392476D2*
X2408199D1*
X2460575D2*
X2585919D1*
X426772Y1355273D2*
X506625D1*
X672681D2*
X684898D1*
X1233151D2*
X1397434D1*
X2157549D2*
X2213688D1*
X2274920D2*
X2320356D1*
X2392476D2*
X2412814D1*
X2460944D2*
X2481650D1*
X2542698D2*
X2585919D1*
X426772Y1343593D2*
X482634D1*
X671388D2*
X683052D1*
X1233888D2*
X1397434D1*
X2169175D2*
X2203722D1*
X2284886D2*
X2320356D1*
X2392476D2*
X2410783D1*
X2552664D2*
X2585919D1*
X426772Y1331913D2*
X470823D1*
X672865D2*
X684898D1*
X1233888D2*
X1397434D1*
X2180986D2*
X2198924D1*
X2289684D2*
X2320356D1*
X2392476D2*
X2410783D1*
X2557647D2*
X2585919D1*
X426772Y1320234D2*
X461411D1*
X684492D2*
X691172D1*
X1233888D2*
X1364585D1*
X2192243D2*
X2197448D1*
X2291160D2*
X2410783D1*
X2559123D2*
X2585919D1*
X426772Y1308554D2*
X459934D1*
X696118D2*
X706490D1*
X738564D2*
X752257D1*
X1233520D2*
X1355542D1*
X2289684D2*
X2410783D1*
X2557462D2*
X2585919D1*
X426772Y1296874D2*
X459934D1*
X707745D2*
X752257D1*
X1226507D2*
X1352220D1*
X2196487D2*
X2203907D1*
X2284886D2*
X2320356D1*
X2392476D2*
X2410783D1*
X2552664D2*
X2585919D1*
X426772Y1285194D2*
X459934D1*
X719556D2*
X752257D1*
X1214881D2*
X1353143D1*
X2196487D2*
X2213688D1*
X2274920D2*
X2320356D1*
X2392476D2*
X2412445D1*
X2462974D2*
X2481650D1*
X2542698D2*
X2585919D1*
X426772Y1273514D2*
X459934D1*
X731182D2*
X787507D1*
X1141430D2*
X1358865D1*
X2196487D2*
X2320356D1*
X2392476D2*
X2412445D1*
X2462974D2*
X2585919D1*
X426772Y1261835D2*
X459934D1*
X1141430D2*
X1374182D1*
X1401089D2*
X1408508D1*
X2291160D2*
X2320356D1*
X2392476D2*
X2408016D1*
X2462974D2*
X2491984D1*
X2532364D2*
X2585919D1*
X426772Y1250155D2*
X459934D1*
X1141430D2*
X1166382D1*
X1196241D2*
X1416812D1*
X2291160D2*
X2321093D1*
X2462235D2*
X2476298D1*
X2547865D2*
X2585919D1*
X426772Y1238475D2*
X459934D1*
X1141430D2*
X1152172D1*
X1210451D2*
X1402602D1*
X2291160D2*
X2321093D1*
X2462235D2*
X2469101D1*
X2555247D2*
X2585919D1*
X426772Y1226795D2*
X454583D1*
X831391D2*
X1047533D1*
X1215803D2*
X1392822D1*
X2291160D2*
X2321093D1*
X2558570D2*
X2585919D1*
X426772Y1215115D2*
X445909D1*
X819765D2*
X886054D1*
X1216542D2*
X1384517D1*
X1638232D2*
X1711903D1*
X2291160D2*
X2321093D1*
X2558753D2*
X2585919D1*
X426772Y1203436D2*
X441664D1*
X726753D2*
X771081D1*
X841357D2*
X873690D1*
X1213035D2*
X1248505D1*
X1289068D2*
X1378612D1*
X1641554D2*
X1772251D1*
X2291160D2*
X2321093D1*
X2462235D2*
X2468362D1*
X2555801D2*
X2585919D1*
X426772Y1191756D2*
X440558D1*
X715127D2*
X771081D1*
X841357D2*
X862063D1*
X1141430D2*
X1159000D1*
X1203438D2*
X1237802D1*
X1299773D2*
X1377135D1*
X1640816D2*
X1679793D1*
X1732904D2*
X1900510D1*
X2291160D2*
X2321093D1*
X2462235D2*
X2475190D1*
X2549157D2*
X2585919D1*
X426772Y1180076D2*
X442588D1*
X668436D2*
X771081D1*
X841357D2*
X850437D1*
X1141430D2*
X1233741D1*
X1303832D2*
X1380088D1*
X1635280D2*
X1672780D1*
X1739917D2*
X1900510D1*
X2291160D2*
X2337333D1*
X2387864D2*
X2489031D1*
X2535131D2*
X2585919D1*
X426772Y1168396D2*
X448308D1*
X679694D2*
X771081D1*
X1141430D2*
X1234110D1*
X1303648D2*
X1388392D1*
X1486719D2*
X1496352D1*
X1620516D2*
X1670749D1*
X1741762D2*
X1783508D1*
X2196487D2*
X2337333D1*
X2387864D2*
X2585919D1*
X426772Y1156717D2*
X459566D1*
X683753D2*
X771081D1*
X1141430D2*
X1238724D1*
X1298849D2*
X1496352D1*
X1590249D2*
X1659123D1*
X1739549D2*
X1783508D1*
X2196487D2*
X2207412D1*
X2387864D2*
X2585919D1*
X426772Y1145037D2*
X484110D1*
X543314D2*
X641160D1*
X683753D2*
X771081D1*
X1141430D2*
X1248320D1*
X1291098D2*
X1359234D1*
X1490963D2*
X1496394D1*
X1590249D2*
X1601913D1*
X1732167D2*
X1783508D1*
X2196487D2*
X2207412D1*
X2527566D2*
X2585919D1*
X426772Y1133357D2*
X463441D1*
X531686D2*
X563281D1*
X611596D2*
X641160D1*
X683753D2*
X771081D1*
X958730D2*
X1248320D1*
X1291098D2*
X1348899D1*
X1502589D2*
X1592870D1*
X1706146D2*
X1783508D1*
X2196487D2*
X2207412D1*
X2527566D2*
X2585919D1*
X426772Y1121677D2*
X449970D1*
X524858D2*
X549993D1*
X624883D2*
X641160D1*
X683753D2*
X771081D1*
X890077D2*
X897681D1*
X952270D2*
X1149957D1*
X1694518D2*
X1783508D1*
X2196118D2*
X2207412D1*
X2527566D2*
X2585919D1*
X426772Y1109997D2*
X443510D1*
X531503D2*
X543534D1*
X631343D2*
X641160D1*
X683753D2*
X771081D1*
X891369D2*
X918165D1*
X931785D2*
X1149957D1*
X1694150D2*
X1783508D1*
X2189844D2*
X2207412D1*
X2527566D2*
X2585919D1*
X426772Y1098318D2*
X440741D1*
X534085D2*
X540664D1*
X634110D2*
X640995D1*
X683753D2*
X771081D1*
X891369D2*
X1149957D1*
X1694150D2*
X1711719D1*
X2178033D2*
X2207412D1*
X2527566D2*
X2585919D1*
X426772Y1086638D2*
X441112D1*
X533902D2*
X540975D1*
X633741D2*
X641291D1*
X686706D2*
X746168D1*
X891369D2*
X1149957D1*
X1694150D2*
X1711719D1*
X2185230D2*
X2207412D1*
X2527566D2*
X2585919D1*
X426772Y1074958D2*
X444617D1*
X530395D2*
X544642D1*
X630420D2*
X642083D1*
X698517D2*
X746168D1*
X891369D2*
X1149957D1*
X2185230D2*
X2214241D1*
X2527566D2*
X2585919D1*
X426772Y1063278D2*
X452184D1*
X522644D2*
X552209D1*
X622668D2*
X650757D1*
X710144D2*
X746168D1*
X891369D2*
X1149957D1*
X2185230D2*
X2224391D1*
X2322903D2*
X2335304D1*
X2527566D2*
X2585919D1*
X426772Y1051598D2*
X468609D1*
X506219D2*
X540581D1*
X628021D2*
X662568D1*
X716419D2*
X746168D1*
X891369D2*
X921672D1*
X1487825D2*
X1592686D1*
X2185230D2*
X2335304D1*
X2527566D2*
X2585919D1*
X426772Y1039919D2*
X528955D1*
X639832D2*
X661644D1*
X725831D2*
X746168D1*
X891369D2*
X921672D1*
X1487825D2*
X1592686D1*
X2185230D2*
X2207412D1*
X2261818D2*
X2282155D1*
X2527566D2*
X2585919D1*
X426772Y1028239D2*
X456244D1*
X651458D2*
X658287D1*
X728967D2*
X746168D1*
X891369D2*
X921672D1*
X1151211D2*
X1189265D1*
X1271352D2*
X1288921D1*
X1362887D2*
X1384701D1*
X1452946D2*
X1592686D1*
X1682524D2*
X1711719D1*
X2185230D2*
X2207412D1*
X2261818D2*
X2282155D1*
X2336559D2*
X2406171D1*
X2456699D2*
X2585919D1*
X426772Y1016559D2*
X446647D1*
X728045D2*
X746168D1*
X891369D2*
X921672D1*
X1151211D2*
X1168227D1*
X1271352D2*
X1296118D1*
X1366394D2*
X1383409D1*
X1454239D2*
X1592686D1*
X1682524D2*
X1711719D1*
X2185230D2*
X2207412D1*
X2261818D2*
X2282155D1*
X2336559D2*
X2404509D1*
X2458360D2*
X2585919D1*
X426772Y1004879D2*
X441849D1*
X658840D2*
X664807D1*
X722693D2*
X746168D1*
X891369D2*
X921672D1*
X1151211D2*
X1156785D1*
X1271352D2*
X1296672D1*
X1365840D2*
X1386362D1*
X1451286D2*
X1592686D1*
X1682524D2*
X1689020D1*
X2185230D2*
X2207412D1*
X2261818D2*
X2282155D1*
X2336559D2*
X2397865D1*
X2465004D2*
X2585919D1*
X426772Y993199D2*
X440558D1*
X667698D2*
X679915D1*
X707560D2*
X746168D1*
X891369D2*
X921672D1*
X1271352D2*
X1301840D1*
X1360673D2*
X1394852D1*
X1442797D2*
X1592686D1*
X1682524D2*
X1689020D1*
X2185230D2*
X2207412D1*
X2261818D2*
X2282155D1*
X2356490D2*
X2396020D1*
X2466849D2*
X2585919D1*
X426772Y981520D2*
X442218D1*
X532794D2*
X542243D1*
X889155D2*
X904878D1*
X1271352D2*
X1315496D1*
X1347017D2*
X1446155D1*
X1587113D2*
X1592722D1*
X1682524D2*
X1689020D1*
X2185230D2*
X2198924D1*
X2364425D2*
X2398419D1*
X2464450D2*
X2585919D1*
X426772Y969840D2*
X447386D1*
X527627D2*
X547411D1*
X627651D2*
X631698D1*
X891739D2*
X903402D1*
X1271352D2*
X1446155D1*
X1587113D2*
X1592722D1*
X1682524D2*
X1689020D1*
X2185230D2*
X2198924D1*
X2288761D2*
X2295986D1*
X2366824D2*
X2405986D1*
X2456883D2*
X2585919D1*
X426772Y958160D2*
X457535D1*
X517293D2*
X557560D1*
X617316D2*
X643375D1*
X890077D2*
X903402D1*
X1587113D2*
X1592722D1*
X1682524D2*
X1689020D1*
X2185230D2*
X2198924D1*
X2288761D2*
X2297656D1*
X2365164D2*
X2585919D1*
X426772Y946480D2*
X689696D1*
X883434D2*
X903402D1*
X1587113D2*
X1592722D1*
X1682524D2*
X1689020D1*
X2184307D2*
X2198924D1*
X2288761D2*
X2304301D1*
X2358520D2*
X2585919D1*
X426772Y934801D2*
X466025D1*
X508987D2*
X566050D1*
X608828D2*
X689696D1*
X865164D2*
X903402D1*
X1593202D2*
X1689020D1*
X2190398D2*
X2198924D1*
X2288761D2*
X2325892D1*
X2336928D2*
X2585919D1*
X426772Y923121D2*
X451261D1*
X523751D2*
X551286D1*
X623776D2*
X689696D1*
X865164D2*
X903402D1*
X1593202D2*
X1689020D1*
X1822780D2*
X1838871D1*
X2191689D2*
X2198924D1*
X2288761D2*
X2585919D1*
X426772Y911441D2*
X444064D1*
X530764D2*
X544088D1*
X630789D2*
X689696D1*
X865164D2*
X903402D1*
X1593202D2*
X1689020D1*
X1806354D2*
X1850682D1*
X2188921D2*
X2198924D1*
X2288761D2*
X2585919D1*
X426772Y899761D2*
X440927D1*
X534085D2*
X541001D1*
X633927D2*
X689696D1*
X865164D2*
X903402D1*
X1798604D2*
X1868030D1*
X2180617D2*
X2198924D1*
X2288761D2*
X2335304D1*
X2527566D2*
X2585919D1*
X426772Y888081D2*
X440927D1*
X534085D2*
X541001D1*
X634110D2*
X736202D1*
X763848D2*
X791197D1*
X865164D2*
X903402D1*
X1798604D2*
X1886854D1*
X2086129D2*
X2198924D1*
X2288761D2*
X2335304D1*
X2527566D2*
X2585919D1*
X426772Y876402D2*
X444064D1*
X530949D2*
X543904D1*
X630974D2*
X721070D1*
X778795D2*
X791197D1*
X865164D2*
X903402D1*
X1798604D2*
X1880210D1*
X2086129D2*
X2198924D1*
X2288761D2*
X2335304D1*
X2527566D2*
X2585919D1*
X426772Y864722D2*
X450892D1*
X523936D2*
X550916D1*
X639278D2*
X715718D1*
X784332D2*
X791197D1*
X865164D2*
X903402D1*
X1798604D2*
X1879841D1*
X2086129D2*
X2198924D1*
X2288761D2*
X2335304D1*
X2527566D2*
X2585919D1*
X426772Y853042D2*
X465471D1*
X509357D2*
X565496D1*
X650904D2*
X714794D1*
X785255D2*
X791197D1*
X865164D2*
X903402D1*
X1593202D2*
X1689020D1*
X1798604D2*
X1879841D1*
X2176371D2*
X2198924D1*
X2288761D2*
X2335304D1*
X2527566D2*
X2585919D1*
X426772Y841362D2*
X592071D1*
X662530D2*
X705383D1*
X781933D2*
X791197D1*
X885094D2*
X903402D1*
X1593202D2*
X1689020D1*
X1798604D2*
X1879841D1*
X2044974D2*
X2086349D1*
X2176371D2*
X2198924D1*
X2288761D2*
X2335304D1*
X2527566D2*
X2585919D1*
X426772Y829682D2*
X457904D1*
X516923D2*
X557929D1*
X674341D2*
X694310D1*
X772706D2*
X791197D1*
X885094D2*
X903402D1*
X1593202D2*
X1689020D1*
X1798604D2*
X1879841D1*
X2033348D2*
X2086349D1*
X2176371D2*
X2198924D1*
X2288761D2*
X2335304D1*
X2527566D2*
X2585919D1*
X426772Y818003D2*
X447570D1*
X527442D2*
X547411D1*
X741332D2*
X791197D1*
X885094D2*
X903402D1*
X1634357D2*
X1689020D1*
X1798604D2*
X1879841D1*
X2068412D2*
X2086349D1*
X2318474D2*
X2335304D1*
X2527566D2*
X2585919D1*
X426772Y806323D2*
X442218D1*
X532609D2*
X542243D1*
X733766D2*
X791197D1*
X885094D2*
X903402D1*
X1640446D2*
X1689020D1*
X1798604D2*
X1879841D1*
X2068412D2*
X2086349D1*
X2318474D2*
X2335304D1*
X2527566D2*
X2585919D1*
X426772Y794643D2*
X440558D1*
X534455D2*
X540402D1*
X733766D2*
X789906D1*
X885094D2*
X903402D1*
X1640446D2*
X1882794D1*
X2068412D2*
X2086349D1*
X2318474D2*
X2335304D1*
X2527566D2*
X2585919D1*
X426772Y782963D2*
X441849D1*
X533163D2*
X541970D1*
X733766D2*
X778278D1*
X885094D2*
X903402D1*
X1672743D2*
X1826692D1*
X1848801D2*
X1893682D1*
X2068412D2*
X2086349D1*
X2478106D2*
X2585919D1*
X426772Y771283D2*
X446463D1*
X528550D2*
X546487D1*
X733396D2*
X758717D1*
X885094D2*
X903402D1*
X1681970D2*
X1809529D1*
X1865778D2*
X1927454D1*
X2068412D2*
X2086349D1*
X2489734D2*
X2585919D1*
X426772Y759604D2*
X455875D1*
X518953D2*
X555899D1*
X726753D2*
X758717D1*
X885094D2*
X903402D1*
X1871684D2*
X1927454D1*
X2068412D2*
X2086349D1*
X2501545D2*
X2585919D1*
X426772Y747924D2*
X622336D1*
X715127D2*
X758717D1*
X885094D2*
X903402D1*
X1872976D2*
X2086349D1*
X2176371D2*
X2192280D1*
X2508556D2*
X2585919D1*
X426772Y736244D2*
X640052D1*
X697411D2*
X758717D1*
X885094D2*
X903402D1*
X1871500D2*
X2086349D1*
X2176371D2*
X2185451D1*
X2508927D2*
X2585919D1*
X426772Y724564D2*
X758717D1*
X885094D2*
X903402D1*
X1895122D2*
X2086349D1*
X2176371D2*
X2183451D1*
X2508927D2*
X2585919D1*
X426772Y712885D2*
X678070D1*
X885094D2*
X903402D1*
X1895122D2*
X1907155D1*
X1955469D2*
X2086349D1*
X2176371D2*
X2185636D1*
X2511879D2*
X2585919D1*
X426772Y701205D2*
X678070D1*
X865164D2*
X903402D1*
X1895122D2*
X1898906D1*
X1963958D2*
X2090594D1*
X2520184D2*
X2585919D1*
X426772Y689525D2*
X678070D1*
X865164D2*
X903402D1*
X1966726D2*
X2090041D1*
X2393953D2*
X2452307D1*
X2522951D2*
X2585919D1*
X426772Y677845D2*
X678070D1*
X865164D2*
X903402D1*
X1965434D2*
X2085797D1*
X2393953D2*
X2453598D1*
X2521660D2*
X2585919D1*
X426772Y666165D2*
X678070D1*
X865164D2*
X903402D1*
X1895122D2*
X1903463D1*
X2014892D2*
X2054976D1*
X2393953D2*
X2459689D1*
X2515570D2*
X2585919D1*
X426772Y654486D2*
X678070D1*
X863503D2*
X903402D1*
X1895122D2*
X1920995D1*
X2014892D2*
X2054976D1*
X2393953D2*
X2477406D1*
X2498038D2*
X2585919D1*
X426772Y642806D2*
X678070D1*
X853722D2*
X903402D1*
X1895122D2*
X1934836D1*
X2014892D2*
X2054976D1*
X2393953D2*
X2585919D1*
X426772Y631126D2*
X496844D1*
X546450D2*
X678070D1*
X842096D2*
X903402D1*
X1895122D2*
X1936866D1*
X2014892D2*
X2054976D1*
X2393953D2*
X2585919D1*
X426772Y619446D2*
X465840D1*
X577639D2*
X715164D1*
X734873D2*
X745983D1*
X828992D2*
X903402D1*
X1895122D2*
X1936866D1*
X2014892D2*
X2054976D1*
X2393953D2*
X2585919D1*
X426772Y607766D2*
X448677D1*
X594617D2*
X692280D1*
X793744D2*
X903402D1*
X1895122D2*
X1936866D1*
X2014892D2*
X2054976D1*
X2393953D2*
X2585919D1*
X426772Y596087D2*
X436497D1*
X606798D2*
X683421D1*
X781933D2*
X903402D1*
X1895122D2*
X1936866D1*
X2014892D2*
X2054976D1*
X2393953D2*
X2585919D1*
X616025Y584407D2*
X679177D1*
X770860D2*
X783631D1*
X853907D2*
X903402D1*
X1895122D2*
X2134886D1*
X2393953D2*
X2585919D1*
X622853Y572727D2*
X678070D1*
X771782D2*
X783631D1*
X853907D2*
X903402D1*
X1827946D2*
X2134886D1*
X2393953D2*
X2585919D1*
X628205Y561047D2*
X680100D1*
X769753D2*
X783631D1*
X853907D2*
X903402D1*
X1961190D2*
X2134886D1*
X2393953D2*
X2585919D1*
X631896Y549367D2*
X685636D1*
X764400D2*
X783631D1*
X853907D2*
X903402D1*
X1961928D2*
X2134886D1*
X2393953D2*
X2585919D1*
X634295Y537688D2*
X696709D1*
X753143D2*
X783631D1*
X853907D2*
X903402D1*
X1961928D2*
X2186743D1*
X2381219D2*
X2585919D1*
X635403Y526008D2*
X783631D1*
X853907D2*
X904324D1*
X2028365D2*
X2097608D1*
X2118424D2*
X2186743D1*
X2229337D2*
X2233655D1*
X2455038D2*
X2585919D1*
X635403Y514328D2*
X701138D1*
X748714D2*
X783631D1*
X853907D2*
X890114D1*
X2028365D2*
X2075277D1*
X2140755D2*
X2175302D1*
X2240778D2*
X2245333D1*
X2340803D2*
X2345245D1*
X2455038D2*
X2585919D1*
X634110Y502648D2*
X687667D1*
X853907D2*
X890114D1*
X2028365D2*
X2066419D1*
X2149613D2*
X2166444D1*
X2249636D2*
X2256871D1*
X2349661D2*
X2356896D1*
X2455038D2*
X2585919D1*
X631526Y490969D2*
X681022D1*
X853907D2*
X890114D1*
X2028365D2*
X2062175D1*
X2153857D2*
X2162198D1*
X2253882D2*
X2262223D1*
X2353907D2*
X2361262D1*
X2455038D2*
X2585919D1*
X627467Y479289D2*
X678255D1*
X853907D2*
X890114D1*
X2028365D2*
X2061251D1*
X2154965D2*
X2161276D1*
X2254990D2*
X2261115D1*
X2355013D2*
X2361281D1*
X2455038D2*
X2585919D1*
X622115Y467609D2*
X678623D1*
X853907D2*
X890114D1*
X2028365D2*
X2063281D1*
X2152934D2*
X2163306D1*
X2252959D2*
X2263146D1*
X2352983D2*
X2361248D1*
X2455038D2*
X2585919D1*
X614917Y455929D2*
X681945D1*
X767907D2*
X783631D1*
X853907D2*
X890114D1*
X2028365D2*
X2068818D1*
X2147398D2*
X2168843D1*
X2247423D2*
X2268682D1*
X2347448D2*
X2361140D1*
X2455038D2*
X2585919D1*
X605322Y444249D2*
X689512D1*
X760341D2*
X890114D1*
X1961928D2*
X2079891D1*
X2136140D2*
X2179915D1*
X2236165D2*
X2279940D1*
X2336190D2*
X2361140D1*
X2455038D2*
X2585919D1*
X592772Y432570D2*
X705567D1*
X744285D2*
X957105D1*
X1961928D2*
X2585919D1*
X2337669Y904420D2*
X2526409D1*
Y783396D1*
X2476471D1*
X2501924Y757991D1*
X2505433Y753268D1*
X2507377Y747978D1*
X2507828Y737832D1*
X2507917Y715109D1*
X2512357Y711226D1*
X2516064Y706639D1*
X2518930Y701483D1*
X2520869Y695912D1*
X2521923Y687482D1*
X2521415Y681605D1*
X2519907Y675903D1*
X2517442Y670545D1*
X2514094Y665688D1*
X2509965Y661478D1*
X2505172Y658038D1*
X2499862Y655472D1*
X2494189Y653856D1*
X2488324Y653236D1*
X2482438Y653631D1*
X2476709Y655031D1*
X2471304Y657392D1*
X2466385Y660647D1*
X2462097Y664697D1*
X2458567Y669421D1*
X2455900Y674682D1*
X2454175Y680323D1*
X2453444Y686176D1*
X2453727Y692067D1*
X2455510Y699014D1*
X2450434Y697610D1*
X2444570Y696991D1*
X2438684Y697386D1*
X2432954Y698786D1*
X2429745Y700188D1*
X2429816Y697299D1*
X2392722D1*
X2392836Y682534D1*
Y543794D1*
X2373975D1*
X2390727Y527056D1*
X2453814Y526958D1*
Y435462D1*
X2362318D1*
Y498392D1*
X2343572Y517197D1*
X2336123Y517308D1*
X2342083Y511801D1*
X2345738Y507167D1*
X2348765Y502101D1*
X2351115Y496688D1*
X2352749Y491017D1*
X2353814Y481210D1*
X2353433Y475320D1*
X2352298Y469530D1*
X2350425Y463933D1*
X2347849Y458623D1*
X2344610Y453690D1*
X2340764Y449215D1*
X2336373Y445272D1*
X2331512Y441927D1*
X2326260Y439235D1*
X2320705Y437243D1*
X2314940Y435982D1*
X2309060Y435472D1*
X2303164Y435726D1*
X2297350Y436735D1*
X2291714Y438484D1*
X2286349Y440945D1*
X2281346Y444075D1*
X2276789Y447824D1*
X2272752Y452127D1*
X2269302Y456916D1*
X2266496Y462108D1*
X2264383Y467618D1*
X2262997Y473354D1*
X2262361Y479222D1*
X2262486Y485121D1*
X2263367Y490957D1*
X2264581Y496188D1*
X2235892Y524877D1*
X2232383Y529600D1*
X2230440Y534890D1*
X2229988Y543744D1*
X2228223Y539588D1*
Y522425D1*
X2233144Y519471D1*
X2237861Y515924D1*
X2242083Y511801D1*
X2245738Y507167D1*
X2248765Y502101D1*
X2251115Y496688D1*
X2252749Y491017D1*
X2253814Y481210D1*
X2253433Y475320D1*
X2252298Y469530D1*
X2250425Y463933D1*
X2247849Y458623D1*
X2244610Y453690D1*
X2240764Y449215D1*
X2236373Y445272D1*
X2231512Y441927D1*
X2226260Y439235D1*
X2220705Y437243D1*
X2214940Y435982D1*
X2209060Y435472D1*
X2203164Y435726D1*
X2197350Y436735D1*
X2191714Y438484D1*
X2186349Y440945D1*
X2181346Y444075D1*
X2176789Y447824D1*
X2172752Y452127D1*
X2169302Y456916D1*
X2166496Y462108D1*
X2164383Y467618D1*
X2162997Y473354D1*
X2162361Y479222D1*
X2162486Y485121D1*
X2163367Y490957D1*
X2164995Y496629D1*
X2167337Y502046D1*
X2170358Y507115D1*
X2174007Y511753D1*
X2178222Y515883D1*
X2182934Y519437D1*
X2187908Y522549D1*
Y543772D1*
X2135986Y543794D1*
Y661350D1*
X2131807Y659455D1*
Y585676D1*
X2056059D1*
Y677172D1*
X2086509D1*
X2092598Y683454D1*
X2091684Y686772D1*
X2090953Y692625D1*
X2091236Y698516D1*
X2092406Y703731D1*
X2087604Y703895D1*
X2087789Y783580D1*
X2087604Y784604D1*
Y858383D1*
X2175163D1*
Y706171D1*
X2190427Y706156D1*
X2187122Y712186D1*
X2185396Y717827D1*
X2184665Y723680D1*
X2184949Y729571D1*
X2186239Y735327D1*
X2188497Y740776D1*
X2191656Y745756D1*
X2195623Y750121D1*
X2198680Y752496D1*
X2197226Y753555D1*
X2178564D1*
Y821429D1*
X2250375Y821244D1*
X2263210Y821429D1*
X2317304D1*
Y788764D1*
X2336483Y788898D1*
X2336488Y904420D1*
X2337669D1*
X2386870Y1150483D2*
X2526409D1*
Y1029459D1*
X2455358D1*
X2455524Y1018182D1*
X2459823Y1013085D1*
X2462689Y1007929D1*
X2464627Y1002358D1*
X2465681Y993928D1*
X2465173Y988051D1*
X2463665Y982349D1*
X2461201Y976991D1*
X2457853Y972134D1*
X2453723Y967924D1*
X2448930Y964484D1*
X2443621Y961919D1*
X2437948Y960302D1*
X2432083Y959682D1*
X2426197Y960077D1*
X2420467Y961478D1*
X2415063Y963839D1*
X2410143Y967093D1*
X2405856Y971143D1*
X2402325Y975867D1*
X2399659Y981129D1*
X2397933Y986769D1*
X2397202Y992622D1*
X2397486Y998513D1*
X2398776Y1004269D1*
X2401034Y1009718D1*
X2404193Y1014698D1*
X2407293Y1018108D1*
X2407335Y1029546D1*
X2336488Y1029459D1*
Y1097558D1*
X2335465Y1092766D1*
Y1085916D1*
X2332697D1*
X2332810Y1081273D1*
X2331951Y1075451D1*
X2329448Y1070126D1*
X2325513Y1065751D1*
X2320482Y1062698D1*
X2314600Y1061236D1*
X2259503Y1061115D1*
X2234598D1*
X2228777Y1061974D1*
X2223451Y1064478D1*
X2219076Y1068412D1*
X2216024Y1073444D1*
X2214562Y1079325D1*
X2214441Y1085887D1*
X2208535Y1085916D1*
Y1157727D1*
X2260661Y1157542D1*
X2260110Y1157727D1*
X2335465D1*
Y1145731D1*
X2336488Y1147570D1*
Y1150483D1*
X2338518D1*
X2338563Y1184709D1*
X2322329Y1184850D1*
Y1252724D1*
X2332479D1*
X2332273Y1254451D1*
X2321486D1*
Y1308546D1*
X2391328D1*
Y1254451D1*
X2380440D1*
X2381385Y1252724D1*
X2394140Y1252539D1*
X2402731Y1252724D1*
X2407295Y1259953D1*
X2413476Y1266177D1*
X2413571Y1291909D1*
X2412037Y1291853D1*
Y1345948D1*
X2415543D1*
X2415539Y1353411D1*
X2411714Y1358732D1*
X2409755Y1364285D1*
X2409289Y1374709D1*
Y1387442D1*
X2378845Y1387530D1*
X2304042D1*
Y1475089D1*
X2458530D1*
Y1387530D1*
X2453547D1*
X2453541Y1377975D1*
X2457366Y1372623D1*
X2459325Y1367071D1*
X2459791Y1356647D1*
Y1345759D1*
X2474230Y1345948D1*
X2478096Y1350790D1*
X2482311Y1354920D1*
X2487024Y1358474D1*
X2492154Y1361391D1*
X2497617Y1363623D1*
X2503322Y1365134D1*
X2509173Y1365898D1*
X2515075Y1365902D1*
X2520927Y1365146D1*
X2526634Y1363643D1*
X2532100Y1361419D1*
X2537234Y1358508D1*
X2541950Y1354961D1*
X2546172Y1350837D1*
X2549827Y1346203D1*
X2552854Y1341138D1*
X2555205Y1335724D1*
X2556839Y1330054D1*
X2557903Y1320247D1*
X2557522Y1314357D1*
X2556387Y1308567D1*
X2554514Y1302970D1*
X2551938Y1297660D1*
X2548699Y1292727D1*
X2544853Y1288252D1*
X2540462Y1284308D1*
X2535601Y1280963D1*
X2530349Y1278272D1*
X2524794Y1276280D1*
X2519029Y1275018D1*
X2513150Y1274509D1*
X2507253Y1274762D1*
X2501440Y1275772D1*
X2495803Y1277521D1*
X2490438Y1279982D1*
X2485436Y1283112D1*
X2480878Y1286861D1*
X2476302Y1291912D1*
X2461764Y1291853D1*
X2461612Y1253831D1*
X2461070Y1240913D1*
Y1184850D1*
X2389259Y1185035D1*
X2386573Y1184850D1*
X2386752Y1165638D1*
Y1150320D1*
X1522293Y1975039D2*
X1559202D1*
X1559199Y2035588D1*
X1549702Y2035630D1*
Y2127126D1*
X1625450D1*
Y2035630D1*
X1603490D1*
X1603451Y1974894D1*
X1623201Y1975039D1*
Y1887379D1*
X1629785Y1889707D1*
X1635622Y1890550D1*
X1641518Y1890379D1*
X1647298Y1889199D1*
X1652789Y1887046D1*
X1657828Y1883982D1*
X1662268Y1880098D1*
X1665975Y1875512D1*
X1668841Y1870356D1*
X1670780Y1864785D1*
X1671833Y1856354D1*
X1671325Y1850478D1*
X1669818Y1844776D1*
X1667353Y1839417D1*
X1664005Y1834560D1*
X1659875Y1830350D1*
X1655083Y1826911D1*
X1649773Y1824345D1*
X1644100Y1822728D1*
X1638235Y1822109D1*
X1632349Y1822504D1*
X1626619Y1823904D1*
X1623073Y1825454D1*
X1623201Y1812677D1*
X1613984Y1812524D1*
X1614058Y1800129D1*
X1652404Y1799944D1*
X1653428Y1800129D1*
X1727207D1*
Y1712570D1*
X1578400D1*
X1578449Y1521736D1*
X1585262Y1515340D1*
X1591042Y1514160D1*
X1596533Y1512007D1*
X1600155Y1509804D1*
X1616493Y1526235D1*
X1616492Y1581349D1*
X1696177Y1581164D1*
X1697201Y1581349D1*
X1770980D1*
Y1493790D1*
X1640997D1*
X1614364Y1467129D1*
X1611097Y1464378D1*
X1607749Y1459521D1*
X1603619Y1455311D1*
X1597997Y1451280D1*
X1591403Y1444134D1*
X1589087Y1441546D1*
Y1434668D1*
X1608299Y1434853D1*
X1647976D1*
X1648102Y1489577D1*
X1739598D1*
Y1415205D1*
X1758336Y1415168D1*
X1755087Y1419535D1*
X1752281Y1424727D1*
X1750168Y1430238D1*
X1748782Y1435974D1*
X1748146Y1441841D1*
X1748270Y1447740D1*
X1749152Y1453576D1*
X1750780Y1459248D1*
X1753122Y1464665D1*
X1756143Y1469735D1*
X1759791Y1474373D1*
X1764007Y1478503D1*
X1768719Y1482056D1*
X1773849Y1484974D1*
X1779312Y1487206D1*
X1785017Y1488717D1*
X1790869Y1489480D1*
X1796770Y1489484D1*
X1802622Y1488728D1*
X1808329Y1487226D1*
X1813795Y1485001D1*
X1818929Y1482091D1*
X1823646Y1478543D1*
X1827867Y1474420D1*
X1831522Y1469786D1*
X1834550Y1464720D1*
X1836900Y1459307D1*
X1838534Y1453636D1*
X1839598Y1443829D1*
X1839218Y1437940D1*
X1838083Y1432150D1*
X1836210Y1426552D1*
X1833634Y1421243D1*
X1829314Y1415051D1*
X1858361Y1415168D1*
X1855726Y1418542D1*
X1852281Y1424727D1*
X1849832Y1431370D1*
X1848437Y1438310D1*
X1848129Y1445383D1*
X1848916Y1452419D1*
X1850780Y1459248D1*
X1853673Y1465709D1*
X1857530Y1471646D1*
X1862257Y1476916D1*
X1867740Y1481395D1*
X1873849Y1484974D1*
X1880437Y1487567D1*
X1887345Y1489113D1*
X1894409Y1489573D1*
X1901461Y1488940D1*
X1908329Y1487226D1*
X1914852Y1484472D1*
X1920871Y1480745D1*
X1923730Y1478471D1*
X1923706Y1568083D1*
X1870465Y1567963D1*
X1870650Y1620089D1*
X1870465Y1619538D1*
Y1694892D1*
X1928684Y1695089D1*
Y1703762D1*
X1892854Y1703642D1*
X1862382Y1703827D1*
X1861358Y1703642D1*
X1795453D1*
X1795465Y1827766D1*
X1893213D1*
X1906361Y1841108D1*
X1906297Y1944630D1*
X1985982Y1944445D1*
X1998816Y1944630D1*
X2017478Y1944445D1*
X2030312Y1944630D1*
X2048974Y1944445D1*
X2061808Y1944630D1*
X2080470D1*
Y1864352D1*
X2095273Y1864551D1*
Y1958409D1*
X2210911D1*
X2210891Y1981367D1*
X2212097Y1987105D1*
X2215512Y1991873D1*
X2221741Y1995207D1*
X2231049Y1995619D1*
X2300151D1*
X2305888Y1994413D1*
X2310656Y1990999D1*
X2313991Y1984769D1*
X2314403Y1975462D1*
Y1743843D1*
X2313197Y1738105D1*
X2308837Y1732543D1*
X2304756Y1727530D1*
Y1699026D1*
X2302726D1*
X2302827Y1645444D1*
Y1578514D1*
X2234953D1*
Y1594940D1*
X2096136Y1594892D1*
X2091030Y1592488D1*
X2081723Y1592076D1*
X2048689D1*
X2048575Y1567963D1*
X1988966D1*
X1989024Y1558315D1*
X1996575Y1555761D1*
X2001614Y1552697D1*
X2006054Y1548814D1*
X2009761Y1544227D1*
X2012627Y1539071D1*
X2014566Y1533500D1*
X2015619Y1525070D1*
X2015112Y1519193D1*
X2013604Y1513491D1*
X2011139Y1508133D1*
X2007791Y1503276D1*
X2003661Y1499066D1*
X2001551Y1497301D1*
X2039898D1*
Y1491210D1*
X2083417Y1491231D1*
Y1427727D1*
X2104272D1*
X2104126Y1436743D1*
Y1491231D1*
X2158220D1*
Y1427710D1*
X2198535Y1427727D1*
Y1359853D1*
X2151772D1*
X2189391Y1322268D1*
X2192900Y1317545D1*
X2194844Y1312255D1*
X2195295Y1302109D1*
Y1125028D1*
X2194437Y1119206D1*
X2192071Y1114091D1*
X2185215Y1106598D1*
X2175253Y1096598D1*
X2184072D1*
X2183887Y1024787D1*
X2184072Y1011953D1*
Y957858D1*
X2170231D1*
X2171593Y955698D1*
X2176633Y952634D1*
X2181072Y948751D1*
X2184780Y944164D1*
X2187646Y939008D1*
X2189584Y933437D1*
X2190638Y925007D1*
X2190130Y919130D1*
X2188622Y913428D1*
X2186157Y908070D1*
X2182810Y903213D1*
X2178680Y899003D1*
X2173887Y895563D1*
X2168577Y892997D1*
X2162904Y891381D1*
X2157039Y890761D1*
X2151154Y891156D1*
X2145424Y892556D1*
X2140020Y894917D1*
X2135100Y898172D1*
X2131482Y901588D1*
X2123882Y895563D1*
X2118572Y892997D1*
X2112899Y891381D1*
X2107034Y890761D1*
X2101148Y891156D1*
X2095419Y892556D1*
X2090014Y894917D1*
X2084961Y898298D1*
X2084992Y862255D1*
X2084134Y856433D1*
X2081630Y851108D1*
X2077696Y846732D1*
X2072664Y843680D1*
X2066782Y842218D1*
X2044719Y842097D1*
X2021953Y819486D1*
X2021451Y818759D1*
X2067278D1*
Y750885D1*
X1928538D1*
Y772108D1*
X1914126Y771940D1*
X1908304Y772798D1*
X1903189Y775164D1*
X1895697Y782020D1*
X1886881Y790836D1*
X1883371Y795559D1*
X1881428Y800849D1*
X1880976Y810995D1*
Y872648D1*
X1881835Y878470D1*
X1884201Y883585D1*
X1891056Y891077D1*
X1897735Y897804D1*
X1892062Y896188D1*
X1886197Y895568D1*
X1880311Y895963D1*
X1874581Y897364D1*
X1869177Y899724D1*
X1864257Y902979D1*
X1860104Y906902D1*
X1854050Y909726D1*
X1846142Y916953D1*
X1839924Y923171D1*
X1836298Y927814D1*
X1833877Y933379D1*
X1832702Y934214D1*
X1815427Y916938D1*
X1810703Y913429D1*
X1805413Y911486D1*
X1797298Y911034D1*
X1797472Y905129D1*
Y855129D1*
Y805129D1*
X1690228D1*
Y861219D1*
X1655268Y861034D1*
X1591969D1*
X1592079Y843829D1*
Y820466D1*
X1625080Y820496D1*
X1630818Y819290D1*
X1635585Y815875D1*
X1638920Y809646D1*
X1639332Y800339D1*
Y788713D1*
X1648123Y790434D1*
X1654020Y790264D1*
X1659799Y789084D1*
X1665290Y786930D1*
X1670329Y783866D1*
X1674769Y779983D1*
X1678476Y775396D1*
X1682130Y767978D1*
X1726854Y767832D1*
X1808240D1*
X1814406Y775314D1*
X1819063Y778933D1*
X1824272Y781699D1*
X1829878Y783531D1*
X1835715Y784374D1*
X1841612Y784203D1*
X1847391Y783024D1*
X1852882Y780870D1*
X1857921Y777806D1*
X1862361Y773923D1*
X1866068Y769336D1*
X1868934Y764180D1*
X1870873Y758609D1*
X1871927Y750178D1*
X1871419Y744302D1*
X1870146Y739491D1*
X1870268Y727223D1*
X1893890Y727323D1*
X1893705Y647638D1*
X1893890Y646614D1*
Y572835D1*
X1826825D1*
X1826852Y570448D1*
X1946466Y570680D1*
X1952206Y569483D1*
X1956978Y566076D1*
X1960328Y559829D1*
X1960740Y550522D1*
Y537420D1*
X2027256Y537491D1*
Y449932D1*
X1960709D1*
X1960740Y424845D1*
X2587039Y424617D1*
X2587045Y1998990D1*
X2581306Y1990102D1*
X2573870Y1980933D1*
X2565516Y1972592D1*
X2556335Y1965169D1*
X2546428Y1958749D1*
X2535903Y1953402D1*
X2524877Y1949184D1*
X2513470Y1946143D1*
X2501807Y1944312D1*
X2490017Y1943711D1*
X2478228Y1944348D1*
X2466571Y1946214D1*
X2455173Y1949290D1*
X2444160Y1953542D1*
X2433651Y1958923D1*
X2423764Y1965373D1*
X2414605Y1972823D1*
X2406277Y1981189D1*
X2398869Y1990382D1*
X2392465Y2000299D1*
X2387133Y2010832D1*
X2382930Y2021865D1*
X2379908Y2033277D1*
X2378094Y2044942D1*
X2377512Y2056734D1*
X2378167Y2068521D1*
X2380051Y2080175D1*
X2383144Y2091568D1*
X2387413Y2102575D1*
X2392810Y2113075D1*
X2399276Y2122953D1*
X2406739Y2132100D1*
X2415118Y2140416D1*
X2424323Y2147808D1*
X2426915Y2149575D1*
X2222194Y2149499D1*
X2222202Y2051953D1*
X2095273D1*
Y2149504D1*
X1891493Y2149354D1*
Y2051953D1*
X1764564D1*
Y2149504D1*
X585261Y2149499D1*
X597524Y2139710D1*
X605827Y2131318D1*
X613206Y2122102D1*
X619581Y2112165D1*
X623232Y2105123D1*
X623181Y2139617D1*
X714677D1*
Y2048121D1*
X690870D1*
X691055Y2040904D1*
X747572Y2040997D1*
X875001D1*
X880837Y2040214D1*
X886260Y2037919D1*
X890647Y2034517D1*
X921573Y2003589D1*
X956260Y2003493D1*
X962096Y2002710D1*
X967518Y2000415D1*
X971906Y1997013D1*
X990827Y1978091D1*
X997701Y1977888D1*
X1003480Y1976709D1*
X1008971Y1974555D1*
X1014010Y1971491D1*
X1018450Y1967608D1*
X1022157Y1963021D1*
X1025024Y1957865D1*
X1026962Y1952294D1*
X1028016Y1943864D1*
X1027508Y1937987D1*
X1026000Y1932285D1*
X1023535Y1926927D1*
X1020188Y1922070D1*
X1016058Y1917860D1*
X1011265Y1914420D1*
X1005955Y1911854D1*
X1000282Y1910238D1*
X994417Y1909618D1*
X988531Y1910013D1*
X982802Y1911413D1*
X977398Y1913774D1*
X972478Y1917029D1*
X968190Y1921079D1*
X964660Y1925803D1*
X961993Y1931064D1*
X960268Y1936705D1*
X959537Y1942558D1*
X959740Y1946791D1*
X947192Y1959146D1*
X912505Y1959241D1*
X906669Y1960025D1*
X901247Y1962320D1*
X896860Y1965722D1*
X865933Y1996650D1*
X745080Y1996745D1*
X728286D1*
X728360Y1995064D1*
X734627Y1988024D1*
X737493Y1982867D1*
X739432Y1977297D1*
X740486Y1968866D1*
X739978Y1962990D1*
X738470Y1957287D1*
X736005Y1951929D1*
X732657Y1947072D1*
X728528Y1942862D1*
X723735Y1939423D1*
X718425Y1936857D1*
X712752Y1935240D1*
X706887Y1934621D1*
X701001Y1935016D1*
X695272Y1936416D1*
X689867Y1938777D1*
X684948Y1942031D1*
X682669Y1944182D1*
X682591Y1891861D1*
X662844D1*
X660769Y1889328D1*
X649156Y1877714D1*
X649070Y1868856D1*
X648349Y1863009D1*
X646232Y1857512D1*
X642012Y1851819D1*
X632487Y1842293D1*
X634125Y1833962D1*
X633717Y1825475D1*
X632209Y1819773D1*
X629744Y1814415D1*
X626396Y1809558D1*
X622266Y1805348D1*
X617474Y1801908D1*
X612164Y1799343D1*
X606491Y1797726D1*
X600626Y1797106D1*
X594740Y1797501D1*
X589010Y1798902D1*
X583606Y1801262D1*
X578686Y1804517D1*
X574399Y1808567D1*
X570869Y1813291D1*
X568202Y1818552D1*
X566476Y1824193D1*
X565745Y1830046D1*
X566029Y1835937D1*
X567319Y1841693D1*
X570663Y1848853D1*
X564854Y1851268D1*
X559934Y1854522D1*
X555647Y1858572D1*
X552117Y1863297D1*
X549450Y1868558D1*
X547724Y1874198D1*
X546993Y1880051D1*
X547277Y1885942D1*
X548567Y1891698D1*
X550825Y1897147D1*
X553984Y1902127D1*
X557951Y1906492D1*
X562609Y1910112D1*
X567818Y1912878D1*
X573424Y1914710D1*
X579815Y1915537D1*
Y1959741D1*
X567399Y1953388D1*
X556373Y1949171D1*
X544966Y1946130D1*
X533303Y1944299D1*
X521513Y1943698D1*
X509724Y1944335D1*
X498067Y1946201D1*
X486669Y1949277D1*
X475656Y1953529D1*
X465147Y1958909D1*
X455260Y1965360D1*
X446101Y1972810D1*
X437773Y1981176D1*
X430365Y1990369D1*
X425593Y1997608D1*
X425591Y579924D1*
X434383Y592192D1*
X442316Y600934D1*
X451119Y608801D1*
X460698Y615701D1*
X470946Y621562D1*
X481751Y626319D1*
X492995Y629919D1*
X504552Y632323D1*
X516299Y633504D1*
X528105Y633450D1*
X539840Y632160D1*
X551375Y629651D1*
X562585Y625948D1*
X573346Y621092D1*
X583539Y615136D1*
X593054Y608148D1*
X601786Y600202D1*
X609638Y591386D1*
X616524Y581798D1*
X622369Y571541D1*
X627109Y560728D1*
X630692Y549479D1*
X633079Y537917D1*
X634241Y526169D1*
X634207Y515052D1*
X632972Y503312D1*
X630516Y491765D1*
X626864Y480538D1*
X622058Y469755D1*
X616150Y459534D1*
X609205Y449987D1*
X601299Y441219D1*
X592520Y433327D1*
X581545Y425530D1*
X958381Y425349D1*
X958220Y434024D1*
X948535Y433908D1*
X891291D1*
Y521467D1*
X908255Y521580D1*
X904916Y527814D1*
X904504Y537121D1*
Y975012D1*
X905710Y980749D1*
X909125Y985517D1*
X915354Y988852D1*
X922631Y989264D1*
X922787Y998436D1*
Y1055286D1*
X1062512Y1055493D1*
Y1058407D1*
X1150071D1*
Y987799D1*
X1153307Y986207D1*
X1153591Y992098D1*
X1154881Y997854D1*
X1157139Y1003303D1*
X1160298Y1008283D1*
X1164265Y1012648D1*
X1168923Y1016268D1*
X1174131Y1019034D1*
X1179738Y1020866D1*
X1185575Y1021709D1*
X1190550Y1021564D1*
X1190504Y1036455D1*
X1185150Y1036270D1*
X1151134D1*
Y1127766D1*
X1191449Y1127581D1*
X1190898Y1127766D1*
X1249744D1*
X1249559Y1146794D1*
X1243219Y1152248D1*
X1239689Y1156972D1*
X1237022Y1162234D1*
X1235297Y1167874D1*
X1234566Y1173727D1*
X1234849Y1179618D1*
X1236139Y1185374D1*
X1238398Y1190823D1*
X1241556Y1195803D1*
X1245524Y1200168D1*
X1250181Y1203787D1*
X1255390Y1206554D1*
X1260996Y1208386D1*
X1266833Y1209228D1*
X1272730Y1209058D1*
X1278509Y1207878D1*
X1284000Y1205724D1*
X1289039Y1202660D1*
X1293479Y1198777D1*
X1297186Y1194190D1*
X1300052Y1189034D1*
X1301991Y1183463D1*
X1303045Y1175033D1*
X1302537Y1169156D1*
X1301029Y1163454D1*
X1298564Y1158096D1*
X1295217Y1153239D1*
X1289739Y1148062D1*
X1289874Y1127581D1*
X1309559Y1127766D1*
X1348415D1*
X1348772Y1129948D1*
X1351209Y1135303D1*
X1358064Y1142795D1*
X1360801Y1145531D1*
X1365524Y1149041D1*
X1370814Y1150984D1*
X1380959Y1151436D1*
X1475064D1*
X1480886Y1150577D1*
X1486001Y1148211D1*
X1493493Y1141356D1*
X1508500Y1126349D1*
X1591787Y1126433D1*
X1592427Y1129118D1*
X1594685Y1134567D1*
X1597844Y1139547D1*
X1601811Y1143912D1*
X1606469Y1147531D1*
X1611677Y1150298D1*
X1617283Y1152130D1*
X1623121Y1152972D1*
X1629017Y1152802D1*
X1634797Y1151622D1*
X1640287Y1149469D1*
X1645327Y1146404D1*
X1648240Y1143856D1*
X1651798Y1148315D1*
X1672024Y1168542D1*
X1672395Y1173367D1*
X1673685Y1179123D1*
X1675944Y1184572D1*
X1679102Y1189552D1*
X1683070Y1193917D1*
X1687727Y1197537D1*
X1692936Y1200303D1*
X1698542Y1202135D1*
X1704379Y1202978D1*
X1710276Y1202807D1*
X1716055Y1201627D1*
X1721546Y1199474D1*
X1726585Y1196409D1*
X1731025Y1192526D1*
X1734732Y1187940D1*
X1737598Y1182783D1*
X1739537Y1177213D1*
X1740591Y1168782D1*
X1740083Y1162906D1*
X1738575Y1157203D1*
X1736110Y1151845D1*
X1732762Y1146988D1*
X1728633Y1142778D1*
X1723840Y1139339D1*
X1718530Y1136773D1*
X1712857Y1135156D1*
X1706072Y1134598D1*
X1692971Y1121340D1*
X1692929Y1078314D1*
X1713062Y1078185D1*
X1712871Y1091020D1*
Y1099839D1*
X1788619D1*
Y1008343D1*
X1712871D1*
Y1029934D1*
X1681171Y1029996D1*
X1681361Y1010177D1*
Y935374D1*
X1593802D1*
X1593772Y1061861D1*
X1486550D1*
X1486724Y1036270D1*
X1448252D1*
X1450068Y1032768D1*
X1452007Y1027197D1*
X1453060Y1018766D1*
X1452552Y1012890D1*
X1451045Y1007188D1*
X1448580Y1001829D1*
X1445232Y996972D1*
X1441102Y992762D1*
X1436310Y989323D1*
X1431000Y986757D1*
X1425327Y985140D1*
X1419462Y984521D1*
X1413576Y984916D1*
X1407846Y986316D1*
X1402442Y988677D1*
X1397522Y991932D1*
X1393235Y995982D1*
X1389705Y1000706D1*
X1387038Y1005967D1*
X1385312Y1011608D1*
X1384581Y1017461D1*
X1384865Y1023352D1*
X1386155Y1029108D1*
X1387354Y1032001D1*
Y1036455D1*
X1382000Y1036270D1*
X1355986Y1036260D1*
X1359693Y1031673D1*
X1362559Y1026517D1*
X1364497Y1020946D1*
X1365551Y1012516D1*
X1365043Y1006639D1*
X1363535Y1000937D1*
X1361071Y995579D1*
X1357723Y990722D1*
X1353593Y986512D1*
X1348801Y983072D1*
X1343491Y980507D1*
X1337818Y978890D1*
X1331953Y978270D1*
X1326067Y978665D1*
X1320337Y980066D1*
X1314933Y982427D1*
X1310013Y985681D1*
X1305726Y989731D1*
X1302196Y994455D1*
X1299529Y999717D1*
X1297803Y1005357D1*
X1297072Y1011210D1*
X1297476Y1017640D1*
X1294833Y1020475D1*
X1291324Y1025198D1*
X1289381Y1030488D1*
X1288929Y1036455D1*
X1270004Y1036270D1*
X1270189Y1017058D1*
Y964462D1*
X1274353Y963916D1*
X1447274D1*
X1447236Y990207D1*
X1519047Y990022D1*
X1531882Y990207D1*
X1585976D1*
Y939088D1*
X1592079Y939105D1*
Y903487D1*
X1597787Y901349D1*
X1690245D1*
X1690413Y907255D1*
X1690228Y911034D1*
X1690413Y957255D1*
X1690228Y961034D1*
Y1007255D1*
X1790068D1*
X1790031Y1101332D1*
X1784677Y1101152D1*
Y1169026D1*
X1856488Y1168841D1*
X1869323Y1169026D1*
X1893130D1*
X1901576Y1177660D1*
X1901646Y1195702D1*
X1880856Y1195640D1*
X1880937Y1192688D1*
X1811094D1*
Y1203945D1*
X1803932Y1200333D1*
X1798259Y1198717D1*
X1792394Y1198097D1*
X1786508Y1198492D1*
X1780778Y1199892D1*
X1775374Y1202253D1*
X1772146Y1204388D1*
X1713063Y1204459D1*
Y1216085D1*
X1649862Y1216298D1*
X1636474Y1216113D1*
X1639526Y1208466D1*
X1640580Y1200035D1*
X1640072Y1194159D1*
X1638564Y1188457D1*
X1636100Y1183098D1*
X1632752Y1178241D1*
X1628622Y1174031D1*
X1623829Y1170592D1*
X1618520Y1168026D1*
X1612846Y1166409D1*
X1606982Y1165790D1*
X1600917Y1166230D1*
X1599021Y1164222D1*
X1594345Y1160768D1*
X1588902Y1158318D1*
X1589087Y1138633D1*
X1497591D1*
Y1178188D1*
X1492957Y1178003D1*
X1488987Y1171991D1*
X1484857Y1167781D1*
X1480064Y1164341D1*
X1474755Y1161776D1*
X1469081Y1160159D1*
X1463217Y1159539D1*
X1457331Y1159934D1*
X1451601Y1161335D1*
X1446197Y1163696D1*
X1441277Y1166950D1*
X1437659Y1170366D1*
X1430059Y1164341D1*
X1424749Y1161776D1*
X1419076Y1160159D1*
X1413211Y1159539D1*
X1407325Y1159934D1*
X1401596Y1161335D1*
X1396192Y1163696D1*
X1391272Y1166950D1*
X1386984Y1171000D1*
X1383454Y1175724D1*
X1380787Y1180986D1*
X1379062Y1186626D1*
X1378331Y1192479D1*
X1378614Y1198370D1*
X1379904Y1204126D1*
X1382163Y1209575D1*
X1385322Y1214555D1*
X1389289Y1218920D1*
X1392636Y1221521D1*
X1393188Y1224369D1*
X1395625Y1229724D1*
X1402480Y1237217D1*
X1410806Y1245542D1*
X1415482Y1248996D1*
X1417030Y1254566D1*
X1406461Y1265135D1*
X1399747Y1261786D1*
X1394073Y1260169D1*
X1388209Y1259550D1*
X1382323Y1259945D1*
X1376593Y1261345D1*
X1371189Y1263706D1*
X1366269Y1266961D1*
X1361982Y1271010D1*
X1358451Y1275735D1*
X1355785Y1280996D1*
X1354059Y1286636D1*
X1353328Y1292490D1*
X1353612Y1298381D1*
X1354902Y1304136D1*
X1357160Y1309585D1*
X1360319Y1314566D1*
X1364286Y1318930D1*
X1368944Y1322550D1*
X1374152Y1325316D1*
X1379759Y1327148D1*
X1385596Y1327991D1*
X1391492Y1327820D1*
X1398815Y1326034D1*
X1398651Y1365697D1*
Y1418808D1*
X1399509Y1424630D1*
X1401875Y1429745D1*
X1406512Y1435020D1*
X1401596Y1436364D1*
X1396192Y1438724D1*
X1391272Y1441979D1*
X1386984Y1446029D1*
X1383454Y1450753D1*
X1380787Y1456014D1*
X1379062Y1461655D1*
X1378331Y1467508D1*
X1378614Y1473399D1*
X1379904Y1479155D1*
X1382394Y1485089D1*
X1347984Y1485274D1*
X1343024Y1485089D1*
X1309374D1*
X1309559Y1470121D1*
X1315938Y1462969D1*
X1318804Y1457812D1*
X1320743Y1452241D1*
X1321797Y1443811D1*
X1321289Y1437934D1*
X1319781Y1432232D1*
X1317316Y1426874D1*
X1313969Y1422017D1*
X1309839Y1417807D1*
X1305046Y1414367D1*
X1299736Y1411802D1*
X1294063Y1410185D1*
X1288198Y1409566D1*
X1282312Y1409961D1*
X1276583Y1411361D1*
X1271178Y1413722D1*
X1266259Y1416976D1*
X1261971Y1421026D1*
X1258441Y1425751D1*
X1255774Y1431012D1*
X1254049Y1436652D1*
X1253318Y1442505D1*
X1253601Y1448396D1*
X1254891Y1454152D1*
X1257150Y1459601D1*
X1260308Y1464581D1*
X1264276Y1468946D1*
X1269096Y1472651D1*
X1269244Y1485274D1*
X1249559Y1485089D1*
X1210189D1*
X1151134D1*
X1151319Y1576585D1*
X1151134Y1595613D1*
X1086701Y1659902D1*
X1084559Y1657891D1*
X1079698Y1654546D1*
X1074446Y1651854D1*
X1068891Y1649862D1*
X1063126Y1648601D1*
X1057247Y1648092D1*
X1051350Y1648345D1*
X1045537Y1649354D1*
X1039900Y1651104D1*
X1034535Y1653564D1*
X1029533Y1656694D1*
X1024975Y1660444D1*
X1020938Y1664747D1*
X1017488Y1669535D1*
X1014682Y1674727D1*
X1012570Y1680238D1*
X1011184Y1685974D1*
X1010547Y1691841D1*
X1010672Y1697740D1*
X1011554Y1703576D1*
X1013181Y1709248D1*
X1015524Y1714665D1*
X1018545Y1719735D1*
X1021623Y1723648D1*
X1012516Y1723685D1*
X1006694Y1724543D1*
X1001682Y1726844D1*
X994096Y1733756D1*
X988508Y1740552D1*
X986559Y1745853D1*
X986108Y1755999D1*
Y1837602D1*
X986966Y1843424D1*
X989332Y1848539D1*
X996188Y1856031D1*
X1054780Y1914623D1*
X1054865Y1960432D1*
X991738Y2023644D1*
X950009Y2023717D1*
X944188Y2024575D1*
X939072Y2026941D1*
X931580Y2033797D1*
X902479Y2062896D1*
X897236Y2057930D1*
X892375Y2054585D1*
X887123Y2051894D1*
X881568Y2049902D1*
X875803Y2048640D1*
X869924Y2048131D1*
X864028Y2048385D1*
X858214Y2049394D1*
X852577Y2051143D1*
X847213Y2053604D1*
X842210Y2056734D1*
X837652Y2060483D1*
X833615Y2064786D1*
X830165Y2069575D1*
X827360Y2074766D1*
X825247Y2080277D1*
X823861Y2086013D1*
X823224Y2091881D1*
X823349Y2097780D1*
X824231Y2103615D1*
X825858Y2109287D1*
X828201Y2114705D1*
X831222Y2119774D1*
X834870Y2124412D1*
X839085Y2128542D1*
X843798Y2132096D1*
X848928Y2135013D1*
X854391Y2137245D1*
X860096Y2138756D1*
X865948Y2139520D1*
X871849Y2139524D1*
X877701Y2138768D1*
X883408Y2137265D1*
X888874Y2135041D1*
X894008Y2132130D1*
X898724Y2128583D1*
X902946Y2124459D1*
X906601Y2119825D1*
X909629Y2114760D1*
X911465Y2110531D1*
X922619Y2099770D1*
X923533Y2098857D1*
X924231Y2103615D1*
X925858Y2109287D1*
X928201Y2114705D1*
X931222Y2119774D1*
X934870Y2124412D1*
X939085Y2128542D1*
X943798Y2132096D1*
X948928Y2135013D1*
X954391Y2137245D1*
X960096Y2138756D1*
X965948Y2139520D1*
X971849Y2139524D1*
X977701Y2138768D1*
X983408Y2137265D1*
X988874Y2135041D1*
X994008Y2132130D1*
X998724Y2128583D1*
X1002946Y2124459D1*
X1006601Y2119825D1*
X1009629Y2114760D1*
X1011979Y2109346D1*
X1013613Y2103676D1*
X1014677Y2093869D1*
X1014379Y2089268D1*
X1026196Y2077454D1*
X1023861Y2086013D1*
X1023224Y2091881D1*
X1023349Y2097780D1*
X1024231Y2103615D1*
X1025858Y2109287D1*
X1028201Y2114705D1*
X1031222Y2119774D1*
X1034870Y2124412D1*
X1039085Y2128542D1*
X1043798Y2132096D1*
X1048928Y2135013D1*
X1054391Y2137245D1*
X1060096Y2138756D1*
X1065948Y2139520D1*
X1071849Y2139524D1*
X1077701Y2138768D1*
X1083408Y2137265D1*
X1088874Y2135041D1*
X1094008Y2132130D1*
X1098724Y2128583D1*
X1102946Y2124459D1*
X1106601Y2119825D1*
X1109629Y2114760D1*
X1111979Y2109346D1*
X1113613Y2103676D1*
X1114677Y2093869D1*
X1114642Y2093316D1*
X1123967Y2102573D1*
X1125858Y2109287D1*
X1128201Y2114705D1*
X1131222Y2119774D1*
X1134870Y2124412D1*
X1139085Y2128542D1*
X1143798Y2132096D1*
X1148928Y2135013D1*
X1154391Y2137245D1*
X1160096Y2138756D1*
X1165948Y2139520D1*
X1171849Y2139524D1*
X1177701Y2138768D1*
X1183408Y2137265D1*
X1188874Y2135041D1*
X1194008Y2132130D1*
X1198724Y2128583D1*
X1202946Y2124459D1*
X1206601Y2119825D1*
X1209629Y2114760D1*
X1211979Y2109346D1*
X1213613Y2103676D1*
X1214677Y2093869D1*
X1213978Y2086350D1*
X1223234Y2095580D1*
X1224231Y2103615D1*
X1225858Y2109287D1*
X1228201Y2114705D1*
X1231222Y2119774D1*
X1234870Y2124412D1*
X1239085Y2128542D1*
X1243798Y2132096D1*
X1248928Y2135013D1*
X1254391Y2137245D1*
X1260096Y2138756D1*
X1265948Y2139520D1*
X1271849Y2139524D1*
X1277701Y2138768D1*
X1283408Y2137265D1*
X1288874Y2135041D1*
X1294008Y2132130D1*
X1298724Y2128583D1*
X1302946Y2124459D1*
X1306601Y2119825D1*
X1309629Y2114760D1*
X1311979Y2109346D1*
X1313613Y2103676D1*
X1314677Y2093869D1*
X1314297Y2087979D1*
X1313161Y2082189D1*
X1311289Y2076592D1*
X1308713Y2071282D1*
X1305474Y2066349D1*
X1301627Y2061874D1*
X1297236Y2057930D1*
X1292375Y2054585D1*
X1287123Y2051894D1*
X1282089Y2050088D1*
X1355486Y2050150D1*
X1347213Y2053604D1*
X1342210Y2056734D1*
X1337652Y2060483D1*
X1333615Y2064786D1*
X1330165Y2069575D1*
X1327360Y2074766D1*
X1325247Y2080277D1*
X1323861Y2086013D1*
X1323224Y2091881D1*
X1323349Y2097780D1*
X1324231Y2103615D1*
X1325858Y2109287D1*
X1328201Y2114705D1*
X1331222Y2119774D1*
X1334870Y2124412D1*
X1339085Y2128542D1*
X1343798Y2132096D1*
X1348928Y2135013D1*
X1354391Y2137245D1*
X1360096Y2138756D1*
X1365948Y2139520D1*
X1371849Y2139524D1*
X1377701Y2138768D1*
X1383408Y2137265D1*
X1388874Y2135041D1*
X1394008Y2132130D1*
X1398724Y2128583D1*
X1402946Y2124459D1*
X1406601Y2119825D1*
X1409629Y2114760D1*
X1411979Y2109346D1*
X1413613Y2103676D1*
X1414677Y2093869D1*
X1414297Y2087979D1*
X1413161Y2082189D1*
X1411289Y2076592D1*
X1408713Y2071282D1*
X1405474Y2066349D1*
X1401627Y2061874D1*
X1397236Y2057930D1*
X1392375Y2054585D1*
X1387123Y2051894D1*
X1381568Y2049902D1*
X1375803Y2048640D1*
X1369924Y2048131D1*
X1364028Y2048385D1*
X1358395Y2049362D1*
X1358436Y1962591D1*
X1271268D1*
X1271791Y1956365D1*
X1271283Y1950488D1*
X1269776Y1944786D1*
X1267311Y1939428D1*
X1263963Y1934571D1*
X1259833Y1930361D1*
X1253547Y1926201D1*
X1253507Y1901701D1*
X1258997Y1899547D1*
X1264037Y1896483D1*
X1269751Y1891022D1*
X1309673Y1890982D1*
X1371663Y1953010D1*
X1371680Y2005718D1*
X1372463Y2011554D1*
X1374759Y2016976D1*
X1378160Y2021364D1*
X1431533Y2074736D1*
X1431592Y2127126D1*
X1507340D1*
Y2067886D1*
X1515713Y2059520D1*
X1519285Y2054839D1*
X1521496Y2049382D1*
X1522193Y2043874D1*
Y1975038D1*
X1674618Y1975039D2*
X1776744D1*
Y1958394D1*
X1891493Y1958409D1*
Y1843291D1*
X1776741D1*
X1776744Y1812677D1*
X1673437D1*
Y1975039D1*
X1674618D1*
X793836Y1278593D2*
X753434D1*
Y1321298D1*
X749923Y1317109D1*
X745493Y1313211D1*
X740518Y1310041D1*
X735114Y1307673D1*
X729411Y1306165D1*
X723542Y1305552D1*
X717651Y1305848D1*
X711874Y1307047D1*
X706350Y1309119D1*
X701211Y1312017D1*
X696579Y1315671D1*
X692563Y1319993D1*
X689260Y1324881D1*
X686748Y1330219D1*
X685087Y1335881D1*
X684315Y1341730D1*
X684453Y1347627D1*
X685496Y1353434D1*
X687419Y1359012D1*
X690177Y1364227D1*
X693703Y1368955D1*
X697259Y1372441D1*
X684655Y1372373D1*
Y1440247D1*
X756466Y1440062D1*
X757490Y1440247D1*
X823395D1*
Y1376430D1*
X848079Y1376459D1*
X873249Y1401808D1*
X877972Y1405318D1*
X883262Y1407261D1*
X893408Y1407713D1*
X913892D1*
X891999Y1429560D1*
X888490Y1434283D1*
X886531Y1439706D1*
X877650Y1447312D1*
X873867Y1451841D1*
X870795Y1456878D1*
X868500Y1462314D1*
X867033Y1468028D1*
X866427Y1473896D1*
X866693Y1479791D1*
X867827Y1485581D1*
X869803Y1491140D1*
X872579Y1496346D1*
X876093Y1501085D1*
X880269Y1505255D1*
X885014Y1508760D1*
X890226Y1511528D1*
X895614Y1513432D1*
X891999Y1517070D1*
X888490Y1521793D1*
X886546Y1527083D1*
X886094Y1537228D1*
Y1562881D1*
X882060Y1565440D1*
X877650Y1569360D1*
X873867Y1573888D1*
X870795Y1578925D1*
X868500Y1584361D1*
X867033Y1590075D1*
X866427Y1595944D1*
X866684Y1601654D1*
X860490Y1599123D1*
X850344Y1598672D1*
X781241D1*
X775420Y1599530D1*
X770094Y1602034D1*
X765719Y1605969D1*
X762667Y1611000D1*
X761205Y1616882D1*
X761084Y1671979D1*
Y1748197D1*
X754852Y1754226D1*
X751528Y1755147D1*
X746123Y1757508D1*
X741203Y1760762D1*
X736916Y1764812D1*
X733386Y1769537D1*
X730719Y1774798D1*
X728993Y1780438D1*
X728262Y1786291D1*
X728546Y1792182D1*
X729836Y1797938D1*
X732094Y1803387D1*
X735253Y1808367D1*
X739220Y1812732D1*
X743878Y1816352D1*
X749087Y1819118D1*
X754693Y1820950D1*
X760530Y1821793D1*
X766427Y1821622D1*
X772206Y1820442D1*
X777697Y1818289D1*
X782736Y1815224D1*
X784818Y1813404D1*
X784804Y1834184D1*
X852678D1*
Y1826617D1*
X871318Y1826507D1*
X871333Y1852148D1*
X941176D1*
Y1798054D1*
X915155D1*
X915189Y1707724D1*
X943759Y1707744D1*
X949580Y1706886D1*
X954696Y1704520D1*
X962188Y1697664D1*
X1027043Y1632808D1*
X1050020Y1632736D1*
X1055841Y1631878D1*
X1060957Y1629512D1*
X1068449Y1622656D1*
X1133030Y1558075D1*
X1136539Y1553352D1*
X1138483Y1548062D1*
X1138934Y1537916D1*
Y1496024D1*
X1158033Y1476816D1*
X1161542Y1472093D1*
X1163486Y1466803D1*
X1163937Y1456657D1*
Y1388929D1*
X1193785Y1388961D1*
X1199606Y1388102D1*
X1204722Y1385736D1*
X1212214Y1378881D1*
X1226790Y1364304D1*
X1230299Y1359581D1*
X1232243Y1354291D1*
X1232694Y1344146D1*
Y1312547D1*
X1231836Y1306726D1*
X1229470Y1301610D1*
X1222614Y1294118D1*
X1210828Y1282332D1*
X1206105Y1278823D1*
X1200815Y1276879D1*
X1190669Y1276428D1*
X1140083D1*
X1140268Y1256743D1*
Y1237818D1*
X1153021Y1238003D1*
X1158014Y1243923D1*
X1162672Y1247542D1*
X1167881Y1250308D1*
X1173487Y1252140D1*
X1179324Y1252983D1*
X1185220Y1252812D1*
X1191000Y1251633D1*
X1196491Y1249479D1*
X1201530Y1246415D1*
X1205970Y1242531D1*
X1209677Y1237945D1*
X1212543Y1232789D1*
X1214482Y1227218D1*
X1215535Y1218787D1*
X1215028Y1212911D1*
X1213520Y1207209D1*
X1211055Y1201850D1*
X1207707Y1196993D1*
X1203577Y1192783D1*
X1198785Y1189344D1*
X1193475Y1186778D1*
X1187802Y1185161D1*
X1181937Y1184542D1*
X1176051Y1184937D1*
X1170322Y1186337D1*
X1164917Y1188698D1*
X1159997Y1191953D1*
X1154496Y1197626D1*
X1140083Y1197688D1*
X1140268Y1178003D1*
Y1138633D1*
X1048772Y1138818D1*
X1029559Y1138633D1*
X958878D1*
X957243Y1132201D1*
X954778Y1126843D1*
X951430Y1121986D1*
X947301Y1117776D1*
X942508Y1114336D1*
X937198Y1111770D1*
X931525Y1110154D1*
X925660Y1109534D1*
X919774Y1109929D1*
X914045Y1111329D1*
X908640Y1113690D1*
X903720Y1116945D1*
X899433Y1120995D1*
X895903Y1125719D1*
X892643Y1132919D1*
X888848Y1129118D1*
X888908Y1121474D1*
X890186Y1121601D1*
X890001Y1049790D1*
X890186Y1036955D1*
Y982861D1*
X887509Y982762D1*
X889448Y977192D1*
X890501Y968761D1*
X889993Y962885D1*
X888486Y957182D1*
X886021Y951824D1*
X882673Y946967D1*
X878543Y942757D1*
X873751Y939318D1*
X868441Y936752D1*
X864009Y935490D1*
X863906Y846407D1*
X883936Y846572D1*
X883751Y774761D1*
X883936Y761927D1*
Y707832D1*
X863820D1*
X863906Y662479D1*
X863047Y656657D1*
X860681Y651542D1*
X853825Y644050D1*
X832999Y623223D1*
X828276Y619714D1*
X822986Y617770D1*
X812840Y617319D1*
X801951D1*
X769500Y584727D1*
X770528Y578512D1*
X770320Y568648D1*
X769185Y562858D1*
X767312Y557261D1*
X764736Y551951D1*
X761497Y547018D1*
X757651Y542543D1*
X753260Y538600D1*
X748399Y535255D1*
X743147Y532563D1*
X737592Y530571D1*
X731827Y529310D1*
X725948Y528801D1*
X720051Y529054D1*
X714238Y530063D1*
X708601Y531812D1*
X703236Y534273D1*
X698234Y537403D1*
X693676Y541152D1*
X689639Y545455D1*
X686189Y550244D1*
X683383Y555436D1*
X681270Y560946D1*
X679885Y566682D1*
X679248Y572550D1*
X679373Y578449D1*
X680255Y584285D1*
X681882Y589957D1*
X684224Y595374D1*
X687245Y600444D1*
X690894Y605081D1*
X695109Y609211D1*
X699822Y612765D1*
X704951Y615682D1*
X710415Y617915D1*
X716119Y619425D1*
X721971Y620189D1*
X727873Y620193D1*
X733724Y619437D1*
X739432Y617934D1*
X744043Y616056D1*
X756613Y628853D1*
X679205Y628790D1*
Y720286D1*
X759852D1*
X759806Y777815D1*
X775861D1*
X779490Y782993D1*
X792408Y795912D1*
X792337Y897298D1*
X757837Y897505D1*
X756814Y897320D1*
X690908D1*
Y948588D1*
X662479Y948604D1*
X656657Y949462D1*
X651542Y951828D1*
X644050Y958684D1*
X628782Y973951D1*
X624017Y966270D1*
X620171Y961795D1*
X615780Y957852D1*
X610919Y954507D1*
X605667Y951815D1*
X600112Y949823D1*
X594346Y948562D1*
X588467Y948052D1*
X582571Y948306D1*
X576757Y949315D1*
X571121Y951064D1*
X565756Y953525D1*
X560753Y956655D1*
X556196Y960404D1*
X552159Y964707D1*
X548709Y969496D1*
X545903Y974688D1*
X543790Y980198D1*
X542404Y985934D1*
X541825Y994567D1*
X532484Y985278D1*
X529832Y976513D1*
X527256Y971203D1*
X524017Y966270D1*
X520171Y961795D1*
X515780Y957852D1*
X510919Y954507D1*
X505667Y951815D1*
X500112Y949823D1*
X494346Y948562D1*
X488467Y948052D1*
X482571Y948306D1*
X476757Y949315D1*
X471121Y951064D1*
X465756Y953525D1*
X460753Y956655D1*
X456196Y960404D1*
X452159Y964707D1*
X448709Y969496D1*
X445903Y974688D1*
X443790Y980198D1*
X442404Y985934D1*
X441768Y991802D1*
X441892Y997701D1*
X442774Y1003537D1*
X444402Y1009209D1*
X446744Y1014626D1*
X449765Y1019696D1*
X453413Y1024333D1*
X457629Y1028463D1*
X462341Y1032017D1*
X467471Y1034934D1*
X472934Y1037167D1*
X478639Y1038677D1*
X484491Y1039441D1*
X490392Y1039445D1*
X496244Y1038689D1*
X501951Y1037186D1*
X507417Y1034962D1*
X512551Y1032051D1*
X517928Y1027860D1*
X548215Y1058022D1*
X552891Y1061476D1*
X552159Y1064707D1*
X548709Y1069496D1*
X545903Y1074688D1*
X543790Y1080198D1*
X542404Y1085934D1*
X541768Y1091802D1*
X541892Y1097701D1*
X542774Y1103537D1*
X544402Y1109209D1*
X546744Y1114626D1*
X549765Y1119696D1*
X553413Y1124333D1*
X557629Y1128463D1*
X562341Y1132017D1*
X567471Y1134934D1*
X572934Y1137167D1*
X578639Y1138677D1*
X584491Y1139441D1*
X590392Y1139445D1*
X596244Y1138689D1*
X601951Y1137186D1*
X607417Y1134962D1*
X612551Y1132051D1*
X617268Y1128504D1*
X621490Y1124381D1*
X625144Y1119747D1*
X628172Y1114681D1*
X630522Y1109268D1*
X632156Y1103597D1*
X633220Y1093790D1*
X632840Y1087900D1*
X631705Y1082110D1*
X629832Y1076513D1*
X627256Y1071203D1*
X624017Y1066270D1*
X618113Y1059946D1*
X624652Y1053846D1*
X651730Y1026769D1*
X655239Y1022046D1*
X657182Y1016756D1*
X657634Y1006610D1*
Y1001996D1*
X670912Y988835D1*
X747186Y988919D1*
X747304Y1023419D1*
Y1090348D1*
X772218D1*
X772307Y1137759D1*
Y1204688D1*
X840181D1*
Y1168701D1*
X883875Y1212413D1*
X888598Y1215923D1*
X893888Y1217866D1*
X904034Y1218318D1*
X1048772Y1218554D1*
Y1237243D1*
X1029559Y1237058D1*
X840398D1*
X814247Y1210785D1*
X809524Y1207276D1*
X804234Y1205332D1*
X794088Y1204881D1*
X727097D1*
X714236Y1192033D1*
X709513Y1188524D1*
X704223Y1186580D1*
X694077Y1186129D1*
X661043D1*
X676732Y1170534D1*
X680241Y1165811D1*
X682185Y1160521D1*
X682636Y1150375D1*
Y1089659D1*
X707986Y1064273D1*
X711495Y1059550D1*
X713979Y1052644D1*
X718419Y1048761D1*
X722126Y1044175D1*
X724992Y1039018D1*
X726930Y1033448D1*
X727984Y1025017D1*
X727476Y1019140D1*
X725969Y1013438D1*
X723504Y1008080D1*
X720156Y1003223D1*
X716026Y999013D1*
X711234Y995573D1*
X705924Y993008D1*
X700251Y991391D1*
X694386Y990772D1*
X688500Y991167D1*
X682770Y992567D1*
X677366Y994928D1*
X672446Y998182D1*
X668159Y1002232D1*
X664629Y1006957D1*
X661962Y1012218D1*
X660236Y1017858D1*
X659505Y1023711D1*
X659789Y1029602D1*
X661079Y1035358D1*
X663337Y1040807D1*
X667860Y1047287D1*
X648226Y1067020D1*
X644717Y1071743D1*
X642773Y1077033D1*
X642322Y1087178D1*
Y1147895D1*
X633220Y1156861D1*
Y1148042D1*
X545192D1*
X521575Y1124385D1*
X525144Y1119747D1*
X528172Y1114681D1*
X530522Y1109268D1*
X532156Y1103597D1*
X533220Y1093790D1*
X532840Y1087900D1*
X531705Y1082110D1*
X529832Y1076513D1*
X527256Y1071203D1*
X524017Y1066270D1*
X520171Y1061795D1*
X515780Y1057852D1*
X510919Y1054507D1*
X505667Y1051815D1*
X500112Y1049823D1*
X494346Y1048562D1*
X488467Y1048052D1*
X482571Y1048306D1*
X476757Y1049315D1*
X471121Y1051064D1*
X465756Y1053525D1*
X460753Y1056655D1*
X456196Y1060404D1*
X452159Y1064707D1*
X448709Y1069496D1*
X445903Y1074688D1*
X443790Y1080198D1*
X442404Y1085934D1*
X441768Y1091802D1*
X441892Y1097701D1*
X442774Y1103537D1*
X444402Y1109209D1*
X446744Y1114626D1*
X449765Y1119696D1*
X453413Y1124333D1*
X457629Y1128463D1*
X462341Y1132017D1*
X467471Y1134934D1*
X472934Y1137167D1*
X478822Y1138701D1*
X488226Y1148049D1*
X482571Y1148306D1*
X476757Y1149315D1*
X471121Y1151064D1*
X465756Y1153525D1*
X460753Y1156655D1*
X456196Y1160404D1*
X452159Y1164707D1*
X448709Y1169496D1*
X445903Y1174688D1*
X443790Y1180198D1*
X442404Y1185934D1*
X441768Y1191802D1*
X441892Y1197701D1*
X442774Y1203537D1*
X444402Y1209209D1*
X446744Y1214626D1*
X449765Y1219696D1*
X453413Y1224333D1*
X457629Y1228463D1*
X461016Y1231017D1*
X461052Y1312547D1*
X461911Y1318369D1*
X464277Y1323484D1*
X471133Y1330976D1*
X485719Y1345563D1*
X490442Y1349072D1*
X495732Y1351016D1*
X505878Y1351467D1*
X507908D1*
X507827Y1365247D1*
X532740D1*
X531533Y1371232D1*
X491882Y1410549D1*
X441724D1*
Y1502045D1*
X533220D1*
Y1426564D1*
X534642Y1426900D1*
Y1465247D1*
X601756D1*
X601571Y1500528D1*
Y1514251D1*
X549852Y1514167D1*
X541033D1*
Y1611177D1*
X494346Y1611068D1*
X488467Y1610559D1*
X482571Y1610812D1*
X476757Y1611822D1*
X471121Y1613571D1*
X465756Y1616031D1*
X460753Y1619161D1*
X456196Y1622911D1*
X452159Y1627214D1*
X448709Y1632003D1*
X445903Y1637194D1*
X443790Y1642705D1*
X442404Y1648441D1*
X441768Y1654308D1*
X441892Y1660207D1*
X442774Y1666043D1*
X444402Y1671715D1*
X446744Y1677133D1*
X449765Y1682202D1*
X453413Y1686840D1*
X457629Y1690970D1*
X462341Y1694524D1*
X467471Y1697441D1*
X472934Y1699673D1*
X478639Y1701184D1*
X484491Y1701948D1*
X490392Y1701951D1*
X496244Y1701196D1*
X501951Y1699693D1*
X507417Y1697469D1*
X512551Y1694558D1*
X517268Y1691010D1*
X521490Y1686887D1*
X525144Y1682253D1*
X528172Y1677188D1*
X530522Y1671774D1*
X532156Y1666104D1*
X533220Y1656297D1*
X532899Y1651328D1*
X541176Y1651488D1*
X541033Y1652907D1*
X608907D1*
X608722Y1581096D1*
X608907Y1580072D1*
Y1515222D1*
X673382Y1515067D1*
X686217Y1515252D1*
X740311D1*
Y1506209D1*
X747362Y1513446D1*
X747014Y1517513D1*
X747298Y1523404D1*
X748588Y1529160D1*
X750846Y1534609D1*
X754005Y1539589D1*
X757972Y1543954D1*
X762630Y1547573D1*
X767839Y1550340D1*
X773445Y1552172D1*
X779282Y1553014D1*
X785178Y1552844D1*
X790958Y1551664D1*
X796449Y1549510D1*
X801488Y1546446D1*
X805928Y1542563D1*
X809635Y1537976D1*
X812501Y1532820D1*
X814440Y1527249D1*
X815493Y1518819D1*
X814986Y1512942D1*
X813478Y1507240D1*
X811013Y1501882D1*
X807665Y1497025D1*
X803535Y1492815D1*
X798743Y1489375D1*
X793433Y1486810D1*
X787760Y1485193D1*
X781895Y1484573D1*
X775831Y1485013D1*
X757991Y1467062D1*
X753268Y1463552D1*
X747978Y1461609D1*
X740231Y1461157D1*
X740311Y1447378D1*
X673197D1*
X673382Y1412097D1*
Y1397373D1*
X671720D1*
X671567Y1347373D1*
X670276D1*
X670135Y1333512D1*
X733262Y1270270D1*
X785332Y1270198D1*
X793713Y1278518D1*
X2287660Y908593D2*
X2287675Y828908D1*
X2200115D1*
Y983396D1*
X2208420D1*
X2208535Y1044577D1*
Y1051428D1*
X2260661D1*
Y983329D1*
X2283251Y983396D1*
X2283339Y1051428D1*
X2335465D1*
Y1002892D1*
X2341121Y1001606D1*
X2346612Y999453D1*
X2351651Y996388D1*
X2356091Y992505D1*
X2359798Y987919D1*
X2362664Y982762D1*
X2364602Y977192D1*
X2365656Y968761D1*
X2365148Y962885D1*
X2363640Y957182D1*
X2361176Y951824D1*
X2357828Y946967D1*
X2353698Y942757D1*
X2348906Y939318D1*
X2343596Y936752D1*
X2337923Y935135D1*
X2332058Y934516D1*
X2326172Y934911D1*
X2320442Y936311D1*
X2315038Y938672D1*
X2310118Y941927D1*
X2305831Y945976D1*
X2302301Y950701D1*
X2299634Y955962D1*
X2297908Y961602D1*
X2297177Y967455D1*
X2297381Y971689D1*
X2292949Y976005D1*
X2287675Y977491D1*
X2287490Y903711D1*
X532840Y1550407D2*
X531705Y1544617D1*
X529832Y1539020D1*
X527256Y1533710D1*
X524017Y1528777D1*
X520171Y1524302D1*
X515780Y1520358D1*
X510919Y1517013D1*
X505667Y1514322D1*
X500112Y1512329D1*
X494346Y1511068D1*
X488467Y1510559D1*
X482571Y1510812D1*
X476757Y1511822D1*
X471121Y1513571D1*
X465756Y1516031D1*
X460753Y1519161D1*
X456196Y1522911D1*
X452159Y1527214D1*
X448709Y1532003D1*
X445903Y1537194D1*
X443790Y1542705D1*
X442404Y1548441D1*
X441768Y1554308D1*
X441892Y1560207D1*
X442774Y1566043D1*
X444402Y1571715D1*
X446744Y1577133D1*
X449765Y1582202D1*
X453413Y1586840D1*
X457629Y1590970D1*
X462341Y1594524D1*
X467471Y1597441D1*
X472934Y1599673D1*
X478639Y1601184D1*
X484491Y1601948D1*
X490392Y1601951D1*
X496244Y1601196D1*
X501951Y1599693D1*
X507417Y1597469D1*
X512551Y1594558D1*
X517268Y1591010D1*
X521490Y1586887D1*
X525144Y1582253D1*
X528172Y1577188D1*
X530522Y1571774D1*
X532156Y1566104D1*
X533220Y1556297D1*
X532840Y1550407D1*
X2204471Y1265995D2*
X2290062D1*
Y1174499D1*
X2198566D1*
Y1265995D1*
X2204471D1*
X2289681Y1314357D2*
X2288546Y1308567D1*
X2286673Y1302970D1*
X2284097Y1297660D1*
X2280858Y1292727D1*
X2277012Y1288252D1*
X2272621Y1284308D1*
X2267760Y1280963D1*
X2262508Y1278272D1*
X2256953Y1276280D1*
X2251188Y1275018D1*
X2245308Y1274509D1*
X2239412Y1274762D1*
X2233598Y1275772D1*
X2227962Y1277521D1*
X2222597Y1279982D1*
X2217594Y1283112D1*
X2213037Y1286861D1*
X2209000Y1291164D1*
X2205550Y1295953D1*
X2202744Y1301144D1*
X2200631Y1306655D1*
X2199245Y1312391D1*
X2198609Y1318259D1*
X2198734Y1324157D1*
X2199615Y1329993D1*
X2201243Y1335665D1*
X2203585Y1341083D1*
X2206606Y1346152D1*
X2210255Y1350790D1*
X2214470Y1354920D1*
X2219182Y1358474D1*
X2224312Y1361391D1*
X2229776Y1363623D1*
X2235480Y1365134D1*
X2241332Y1365898D1*
X2247234Y1365902D1*
X2253085Y1365146D1*
X2258793Y1363643D1*
X2264259Y1361419D1*
X2269392Y1358508D1*
X2274109Y1354961D1*
X2278331Y1350837D1*
X2281986Y1346203D1*
X2285013Y1341138D1*
X2287364Y1335724D1*
X2288997Y1330054D1*
X2290062Y1320247D1*
X2289681Y1314357D1*
Y1414357D2*
X2288546Y1408567D1*
X2286673Y1402970D1*
X2284097Y1397660D1*
X2280858Y1392727D1*
X2277012Y1388252D1*
X2272621Y1384308D1*
X2267760Y1380963D1*
X2262508Y1378272D1*
X2256953Y1376280D1*
X2251188Y1375018D1*
X2245308Y1374509D1*
X2239412Y1374762D1*
X2233598Y1375772D1*
X2227962Y1377521D1*
X2222597Y1379982D1*
X2217594Y1383112D1*
X2213037Y1386861D1*
X2209000Y1391164D1*
X2205550Y1395953D1*
X2202744Y1401144D1*
X2200631Y1406655D1*
X2199245Y1412391D1*
X2198609Y1418259D1*
X2198734Y1424157D1*
X2199667Y1430171D1*
X2196302Y1430928D1*
X2190298Y1434655D1*
X2185287Y1442509D1*
X2166587Y1474899D1*
X2164762Y1480471D1*
X2165757Y1487467D1*
X2162837Y1488891D1*
X2156833Y1492618D1*
X2151823Y1500472D1*
X2136597Y1526843D1*
X2120832Y1526703D1*
X2120819Y1511940D1*
X2066724D1*
Y1581782D1*
X2120819D1*
Y1566833D1*
X2141016Y1567018D1*
X2163909Y1567094D1*
X2172433Y1572016D1*
X2178005Y1573840D1*
X2183840Y1573266D1*
X2189844Y1569539D1*
X2194854Y1561685D1*
X2213555Y1529295D1*
X2215379Y1523723D1*
X2214385Y1516727D1*
X2217304Y1515303D1*
X2223308Y1511576D1*
X2228319Y1503722D1*
X2247020Y1471332D1*
X2248827Y1465577D1*
X2253085Y1465146D1*
X2258793Y1463643D1*
X2264259Y1461419D1*
X2269392Y1458508D1*
X2274109Y1454961D1*
X2278331Y1450837D1*
X2281986Y1446203D1*
X2285013Y1441138D1*
X2287364Y1435724D1*
X2288997Y1430054D1*
X2290062Y1420247D1*
X2289681Y1414357D1*
X2153798Y480029D2*
X2153068Y472987D1*
X2151261Y466142D1*
X2148419Y459659D1*
X2144610Y453690D1*
X2139928Y448382D1*
X2134480Y443858D1*
X2128402Y440231D1*
X2121836Y437584D1*
X2114940Y435982D1*
X2107879Y435462D1*
X2100823Y436039D1*
X2093941Y437697D1*
X2087396Y440398D1*
X2081346Y444075D1*
X2075937Y448642D1*
X2071298Y453990D1*
X2067538Y459988D1*
X2064749Y466495D1*
X2062997Y473354D1*
X2062324Y480402D1*
X2062748Y487469D1*
X2064256Y494386D1*
X2066814Y500987D1*
X2070358Y507115D1*
X2074807Y512622D1*
X2080051Y517378D1*
X2085967Y521266D1*
X2092412Y524197D1*
X2099232Y526097D1*
X2106262Y526923D1*
X2113337Y526654D1*
X2120286Y525295D1*
X2126941Y522882D1*
X2133144Y519471D1*
X2138748Y515144D1*
X2143615Y510004D1*
X2147633Y504175D1*
X2150702Y497794D1*
X2152749Y491017D1*
X2153728Y484007D1*
X2153798Y480029D1*
X769220Y463039D2*
X767312Y457261D1*
X764736Y451951D1*
X761497Y447018D1*
X757651Y442543D1*
X753260Y438600D1*
X748399Y435255D1*
X743147Y432563D1*
X737592Y430571D1*
X731827Y429310D1*
X725948Y428801D1*
X720051Y429054D1*
X714238Y430063D1*
X708601Y431812D1*
X703236Y434273D1*
X698234Y437403D1*
X693676Y441152D1*
X689639Y445455D1*
X686189Y450244D1*
X683383Y455436D1*
X681270Y460946D1*
X679885Y466682D1*
X679248Y472550D1*
X679373Y478449D1*
X680255Y484285D1*
X681882Y489957D1*
X684224Y495374D1*
X687245Y500444D1*
X690894Y505081D1*
X695109Y509211D1*
X699822Y512765D1*
X704951Y515682D1*
X710415Y517915D1*
X716119Y519425D1*
X721971Y520189D1*
X727873Y520193D1*
X733724Y519437D1*
X739432Y517934D1*
X744898Y515710D1*
X750031Y512799D1*
X754748Y509252D1*
X760454Y503245D1*
X784941Y503196D1*
X784808Y518944D1*
Y585873D1*
X852682D1*
Y447133D1*
X784808D1*
Y462819D1*
X769102Y462881D1*
X533205Y892609D2*
X532475Y885567D1*
X530668Y878722D1*
X527825Y872239D1*
X524017Y866270D1*
X519335Y860962D1*
X513887Y856438D1*
X507808Y852811D1*
X501243Y850164D1*
X494346Y848562D1*
X487286Y848042D1*
X480230Y848619D1*
X473348Y850277D1*
X466803Y852978D1*
X460753Y856655D1*
X455344Y861222D1*
X450705Y866570D1*
X446945Y872568D1*
X444156Y879075D1*
X442404Y885934D1*
X441731Y892982D1*
X442155Y900049D1*
X443663Y906966D1*
X446220Y913567D1*
X449765Y919696D1*
X454214Y925202D1*
X459458Y929958D1*
X465374Y933846D1*
X471819Y936777D1*
X478639Y938677D1*
X485669Y939503D1*
X492744Y939234D1*
X499693Y937875D1*
X506348Y935462D1*
X512551Y932051D1*
X518155Y927724D1*
X523022Y922584D1*
X527039Y916755D1*
X530109Y910374D1*
X532156Y903597D1*
X533135Y896587D1*
X533205Y892609D1*
X532840Y787900D2*
X531705Y782110D1*
X529832Y776513D1*
X527256Y771203D1*
X524017Y766270D1*
X520171Y761795D1*
X515780Y757852D1*
X510919Y754507D1*
X505667Y751815D1*
X500112Y749823D1*
X494346Y748562D1*
X488467Y748052D1*
X482571Y748306D1*
X476757Y749315D1*
X471121Y751064D1*
X465756Y753525D1*
X460753Y756655D1*
X456196Y760404D1*
X452159Y764707D1*
X448709Y769496D1*
X445903Y774688D1*
X443790Y780198D1*
X442404Y785934D1*
X441768Y791802D1*
X441892Y797701D1*
X442774Y803537D1*
X444402Y809209D1*
X446744Y814626D1*
X449765Y819696D1*
X453413Y824333D1*
X457629Y828463D1*
X462341Y832017D1*
X467471Y834934D1*
X472934Y837167D1*
X478639Y838677D1*
X484491Y839441D1*
X490392Y839445D1*
X496244Y838689D1*
X501951Y837186D1*
X507417Y834962D1*
X512551Y832051D1*
X517268Y828504D1*
X521490Y824381D1*
X525144Y819747D1*
X528172Y814681D1*
X530522Y809268D1*
X532156Y803597D1*
X533220Y793790D1*
X532840Y787900D1*
X614413Y756911D2*
X610919Y754507D1*
X605667Y751815D1*
X600112Y749823D1*
X594346Y748562D1*
X588467Y748052D1*
X582571Y748306D1*
X576757Y749315D1*
X571121Y751064D1*
X565756Y753525D1*
X560753Y756655D1*
X556196Y760404D1*
X552159Y764707D1*
X548709Y769496D1*
X545903Y774688D1*
X543790Y780198D1*
X542404Y785934D1*
X541768Y791802D1*
X541892Y797701D1*
X542774Y803537D1*
X544402Y809209D1*
X546744Y814626D1*
X549765Y819696D1*
X553413Y824333D1*
X557629Y828463D1*
X562341Y832017D1*
X567471Y834934D1*
X572934Y837167D1*
X578639Y838677D1*
X584491Y839441D1*
X590392Y839445D1*
X596062Y838713D1*
X586563Y848085D1*
X576757Y849315D1*
X571121Y851064D1*
X565756Y853525D1*
X560753Y856655D1*
X556196Y860404D1*
X552159Y864707D1*
X548709Y869496D1*
X545903Y874688D1*
X543790Y880198D1*
X542404Y885934D1*
X541768Y891802D1*
X541892Y897701D1*
X542774Y903537D1*
X544402Y909209D1*
X546744Y914626D1*
X549765Y919696D1*
X553413Y924333D1*
X557629Y928463D1*
X562341Y932017D1*
X567471Y934934D1*
X572934Y937167D1*
X578639Y938677D1*
X584491Y939441D1*
X590392Y939445D1*
X596244Y938689D1*
X601951Y937186D1*
X607417Y934962D1*
X612551Y932051D1*
X617268Y928504D1*
X621490Y924381D1*
X625144Y919747D1*
X628172Y914681D1*
X630522Y909268D1*
X632156Y903597D1*
X633220Y893790D1*
X632840Y887900D1*
X631705Y882110D1*
X628625Y874025D1*
X674846Y827951D1*
X678917Y827768D1*
X684697Y826588D1*
X690188Y824434D1*
X692865Y822806D1*
X693114Y824327D1*
X695551Y829682D1*
X702407Y837175D1*
X716109Y850877D1*
X715761Y854944D1*
X716045Y860835D1*
X717335Y866591D1*
X719593Y872039D1*
X722752Y877020D1*
X726719Y881385D1*
X731377Y885004D1*
X736585Y887770D1*
X742192Y889602D1*
X748029Y890445D1*
X753925Y890274D1*
X759705Y889094D1*
X765196Y886941D1*
X770235Y883877D1*
X774675Y879993D1*
X778382Y875407D1*
X781248Y870251D1*
X783186Y864680D1*
X784240Y856249D1*
X783732Y850373D1*
X782224Y844671D1*
X779760Y839312D1*
X776412Y834455D1*
X772282Y830245D1*
X767490Y826806D1*
X762180Y824240D1*
X756507Y822623D1*
X750642Y822004D1*
X744577Y822444D1*
X732531Y810286D1*
X732642Y774991D1*
X731783Y769169D1*
X729417Y764054D1*
X722562Y756562D1*
X707986Y741986D1*
X703262Y738476D1*
X697972Y736533D1*
X687827Y736081D1*
X643727D1*
X637906Y736940D1*
X632790Y739306D1*
X625298Y746161D1*
X614467Y756992D1*
X2472312Y1465995D2*
X2557903D1*
Y1374499D1*
X2466407D1*
Y1465995D1*
X2472312D1*
X2557887Y1219066D2*
X2557157Y1212024D1*
X2555350Y1205178D1*
X2552508Y1198696D1*
X2548699Y1192727D1*
X2544017Y1187419D1*
X2538570Y1182895D1*
X2532491Y1179268D1*
X2525925Y1176621D1*
X2519029Y1175018D1*
X2511969Y1174499D1*
X2504912Y1175076D1*
X2498030Y1176734D1*
X2491486Y1179434D1*
X2485436Y1183112D1*
X2480026Y1187678D1*
X2475387Y1193026D1*
X2471627Y1199025D1*
X2468839Y1205531D1*
X2467087Y1212391D1*
X2466413Y1219438D1*
X2466837Y1226505D1*
X2468345Y1233423D1*
X2470903Y1240024D1*
X2474448Y1246152D1*
X2478896Y1251659D1*
X2484140Y1256415D1*
X2490056Y1260303D1*
X2496501Y1263234D1*
X2503322Y1265134D1*
X2510352Y1265959D1*
X2517427Y1265690D1*
X2524375Y1264332D1*
X2531030Y1261919D1*
X2537234Y1258508D1*
X2542837Y1254181D1*
X2547705Y1249041D1*
X2551722Y1243211D1*
X2554791Y1236831D1*
X2556839Y1230054D1*
X2557818Y1223043D1*
X2557887Y1219066D1*
X442906Y1938638D2*
X533220D1*
Y1847142D1*
X441724D1*
Y1938638D1*
X442906D1*
X532840Y1787000D2*
X531705Y1781210D1*
X529832Y1775613D1*
X527256Y1770303D1*
X524726Y1766449D1*
X583285Y1707778D1*
X650450Y1707744D1*
X650307Y1714577D1*
X728024D1*
Y1623081D1*
X650307D1*
Y1667558D1*
X600583Y1667429D1*
X574970D1*
X569148Y1668287D1*
X564033Y1670654D1*
X556541Y1677509D1*
X486987Y1747063D1*
X476757Y1748415D1*
X471121Y1750164D1*
X465756Y1752625D1*
X460753Y1755755D1*
X456196Y1759504D1*
X452159Y1763807D1*
X448709Y1768596D1*
X445903Y1773787D1*
X443790Y1779298D1*
X442404Y1785034D1*
X441768Y1790902D1*
X441892Y1796801D1*
X442774Y1802636D1*
X444402Y1808308D1*
X446744Y1813726D1*
X449765Y1818795D1*
X453413Y1823433D1*
X457629Y1827563D1*
X462341Y1831117D1*
X467471Y1834034D1*
X472934Y1836266D1*
X478639Y1837777D1*
X484491Y1838541D1*
X490392Y1838545D1*
X496244Y1837789D1*
X501951Y1836286D1*
X507417Y1834062D1*
X512551Y1831151D1*
X517268Y1827604D1*
X521490Y1823480D1*
X525144Y1818846D1*
X528172Y1813781D1*
X530522Y1808367D1*
X532156Y1802697D1*
X533220Y1792890D1*
X532840Y1787000D1*
X814661Y2092688D2*
X813932Y2085646D1*
X812125Y2078801D1*
X809282Y2072318D1*
X805474Y2066349D1*
X800791Y2061041D1*
X795344Y2056517D1*
X789265Y2052890D1*
X782699Y2050243D1*
X775803Y2048640D1*
X768743Y2048121D1*
X761686Y2048698D1*
X754804Y2050356D1*
X748260Y2053056D1*
X742210Y2056734D1*
X736801Y2061301D1*
X732161Y2066648D1*
X728402Y2072647D1*
X725613Y2079154D1*
X723861Y2086013D1*
X723188Y2093060D1*
X723612Y2100127D1*
X725119Y2107045D1*
X727677Y2113646D1*
X731222Y2119774D1*
X735671Y2125281D1*
X740915Y2130037D1*
X746831Y2133925D1*
X753276Y2136856D1*
X760096Y2138756D1*
X767126Y2139581D1*
X774201Y2139312D1*
X781150Y2137954D1*
X787804Y2135541D1*
X794008Y2132130D1*
X799612Y2127803D1*
X804479Y2122663D1*
X808496Y2116833D1*
X811566Y2110453D1*
X813613Y2103676D1*
X814592Y2096665D1*
X814661Y2092688D1*
X2117067Y1993395D2*
X2115688Y1987659D1*
X2113427Y1982210D1*
X2110339Y1977182D1*
X2106503Y1972701D1*
X2102010Y1968877D1*
X2096975Y1965802D1*
X2091521Y1963555D1*
X2085781Y1962192D1*
X2079899Y1961743D1*
X2074018Y1962222D1*
X2068286Y1963617D1*
X2062844Y1965892D1*
X2057824Y1968992D1*
X2053353Y1972841D1*
X2049541Y1977343D1*
X2046479Y1982386D1*
X2044247Y1987846D1*
X2042898Y1993589D1*
X2042465Y1999472D1*
X2042959Y2005352D1*
X2044369Y2011080D1*
X2046659Y2016517D1*
X2049773Y2021528D1*
X2053633Y2025990D1*
X2058144Y2029790D1*
X2063196Y2032837D1*
X2068663Y2035056D1*
X2074409Y2036390D1*
X2080294Y2036807D1*
X2086171Y2036297D1*
X2091895Y2034873D1*
X2097327Y2032568D1*
X2102329Y2029442D1*
X2106781Y2025570D1*
X2110570Y2021049D1*
X2113604Y2015990D1*
X2115807Y2010517D1*
X2117126Y2004766D1*
X2117530Y1999276D1*
X2117067Y1993395D1*
X1943839D2*
X1942459Y1987659D1*
X1940198Y1982210D1*
X1937110Y1977182D1*
X1933274Y1972701D1*
X1928782Y1968877D1*
X1923747Y1965802D1*
X1918293Y1963555D1*
X1912552Y1962192D1*
X1906671Y1961743D1*
X1900790Y1962222D1*
X1895058Y1963617D1*
X1889615Y1965892D1*
X1884596Y1968992D1*
X1880125Y1972841D1*
X1876312Y1977343D1*
X1873251Y1982386D1*
X1871018Y1987846D1*
X1869669Y1993589D1*
X1869236Y1999472D1*
X1869731Y2005352D1*
X1871140Y2011080D1*
X1873430Y2016517D1*
X1876545Y2021528D1*
X1880404Y2025990D1*
X1884916Y2029790D1*
X1889967Y2032837D1*
X1895434Y2035056D1*
X1901181Y2036390D1*
X1907066Y2036807D1*
X1912942Y2036297D1*
X1918667Y2034873D1*
X1924098Y2032568D1*
X1929101Y2029442D1*
X1933552Y2025570D1*
X1937341Y2021049D1*
X1940375Y2015990D1*
X1942579Y2010517D1*
X1943898Y2004766D1*
X1944302Y1999276D1*
X1943839Y1993395D1*
X746606Y1983357D2*
X818417D1*
Y1891861D1*
X811589D1*
X816215Y1889550D1*
X850625D1*
Y1835455D1*
X780782D1*
Y1838593D1*
X759995Y1838408D1*
X718249Y1796791D1*
X718161Y1716861D1*
X626665D1*
Y1808357D1*
X661545D1*
X732849Y1879539D1*
X737492Y1883165D1*
X742875Y1885555D1*
X749886Y1886597D1*
X763358D1*
X759362Y1891861D1*
X740701D1*
Y1983357D1*
X746606D1*
X2320516Y1519180D2*
X2319381Y1513390D1*
X2317508Y1507793D1*
X2314932Y1502483D1*
X2311693Y1497550D1*
X2307846Y1493075D1*
X2303455Y1489131D1*
X2298594Y1485786D1*
X2293343Y1483094D1*
X2287787Y1481102D1*
X2282022Y1479841D1*
X2276143Y1479332D1*
X2270247Y1479585D1*
X2264433Y1480594D1*
X2258797Y1482344D1*
X2253432Y1484804D1*
X2248429Y1487934D1*
X2243871Y1491684D1*
X2239835Y1495987D1*
X2236385Y1500776D1*
X2233579Y1505967D1*
X2231466Y1511478D1*
X2230080Y1517214D1*
X2229444Y1523081D1*
X2229568Y1528980D1*
X2230450Y1534816D1*
X2232077Y1540488D1*
X2234420Y1545906D1*
X2237441Y1550975D1*
X2241089Y1555613D1*
X2245304Y1559743D1*
X2250017Y1563297D1*
X2255147Y1566214D1*
X2260610Y1568446D1*
X2266315Y1569957D1*
X2272167Y1570720D1*
X2278068Y1570724D1*
X2283920Y1569969D1*
X2289627Y1568466D1*
X2295093Y1566241D1*
X2300227Y1563331D1*
X2304944Y1559783D1*
X2309165Y1555660D1*
X2312820Y1551026D1*
X2315848Y1545961D1*
X2318198Y1540547D1*
X2319832Y1534877D1*
X2320896Y1525070D1*
X2320516Y1519180D1*
X1963970Y677172D2*
X2013697D1*
Y585676D1*
X1937949D1*
Y640856D1*
X1924900Y653840D1*
X1920400Y655031D1*
X1914996Y657392D1*
X1910076Y660647D1*
X1905789Y664697D1*
X1902259Y669421D1*
X1899592Y674682D1*
X1897866Y680323D1*
X1897135Y686176D1*
X1897419Y692067D1*
X1898709Y697823D1*
X1900967Y703272D1*
X1904126Y708252D1*
X1908093Y712617D1*
X1912751Y716236D1*
X1917959Y719003D1*
X1923566Y720835D1*
X1929403Y721677D1*
X1935299Y721507D1*
X1941079Y720327D1*
X1946570Y718173D1*
X1951609Y715109D1*
X1956049Y711226D1*
X1959756Y706639D1*
X1962622Y701483D1*
X1964560Y695912D1*
X1965614Y687482D1*
X1965106Y681605D1*
X1963928Y677151D1*
X2322667Y1383349D2*
X2391328D1*
Y1329255D1*
X2321486D1*
Y1383349D1*
X2322667D1*
X872514Y1926951D2*
X941176D1*
Y1872857D1*
X871333D1*
Y1926951D1*
X872514D1*
X1740478Y2029077D2*
X1739535Y2023249D1*
X1737976Y2017556D1*
X1735819Y2012062D1*
X1733088Y2006829D1*
X1729815Y2001917D1*
X1726035Y1997383D1*
X1721794Y1993278D1*
X1717139Y1989648D1*
X1712123Y1986535D1*
X1706804Y1983976D1*
X1701243Y1982000D1*
X1695503Y1980627D1*
X1689648Y1979874D1*
X1683747Y1979751D1*
X1677866Y1980257D1*
X1672072Y1981390D1*
X1666433Y1983133D1*
X1661012Y1985467D1*
X1655870Y1988366D1*
X1651067Y1991798D1*
X1646659Y1995723D1*
X1642693Y2000094D1*
X1639217Y2004866D1*
X1636269Y2009980D1*
X1633885Y2015379D1*
X1632089Y2021003D1*
X1630904Y2026785D1*
X1630343Y2032660D1*
X1630411Y2038563D1*
X1631109Y2044424D1*
X1632428Y2050177D1*
X1634353Y2055757D1*
X1636864Y2061100D1*
X1639928Y2066144D1*
X1643514Y2070833D1*
X1647580Y2075112D1*
X1652079Y2078933D1*
X1656961Y2082252D1*
X1662168Y2085031D1*
X1667642Y2087240D1*
X1673320Y2088852D1*
X1679138Y2089848D1*
X1685029Y2090218D1*
X1690927Y2089958D1*
X1696762Y2089070D1*
X1702470Y2087564D1*
X1707983Y2085458D1*
X1713241Y2082776D1*
X1718184Y2079549D1*
X1722753Y2075811D1*
X1726898Y2071609D1*
X1730571Y2066988D1*
X1733730Y2062001D1*
X1736337Y2056706D1*
X1738366Y2051163D1*
X1739793Y2045436D1*
X1740793Y2034971D1*
X1740478Y2029077D1*
Y1635377D2*
X1739535Y1629549D1*
X1737976Y1623856D1*
X1735819Y1618361D1*
X1733088Y1613129D1*
X1729815Y1608217D1*
X1726035Y1603682D1*
X1721794Y1599577D1*
X1717139Y1595948D1*
X1712123Y1592835D1*
X1706804Y1590276D1*
X1701243Y1588299D1*
X1695503Y1586927D1*
X1689648Y1586173D1*
X1683747Y1586050D1*
X1677866Y1586556D1*
X1672072Y1587689D1*
X1666433Y1589432D1*
X1661012Y1591766D1*
X1655870Y1594665D1*
X1651067Y1598097D1*
X1646659Y1602022D1*
X1642693Y1606394D1*
X1639217Y1611165D1*
X1636269Y1616280D1*
X1633885Y1621678D1*
X1632089Y1627302D1*
X1630904Y1633084D1*
X1630343Y1638959D1*
X1630411Y1644862D1*
X1631109Y1650723D1*
X1632428Y1656476D1*
X1634353Y1662056D1*
X1636864Y1667399D1*
X1639928Y1672444D1*
X1643514Y1677133D1*
X1647580Y1681411D1*
X1652079Y1685232D1*
X1656961Y1688551D1*
X1662168Y1691331D1*
X1667642Y1693539D1*
X1673320Y1695151D1*
X1679138Y1696147D1*
X1685029Y1696517D1*
X1690927Y1696257D1*
X1696762Y1695369D1*
X1702470Y1693864D1*
X1707983Y1691757D1*
X1713241Y1689075D1*
X1718184Y1685848D1*
X1722753Y1682110D1*
X1726898Y1677908D1*
X1730571Y1673287D1*
X1733730Y1668301D1*
X1736337Y1663005D1*
X1738366Y1657462D1*
X1739793Y1651735D1*
X1740793Y1641270D1*
X1740478Y1635377D1*
X2411026Y1751152D2*
X2411213Y1729459D1*
X2568850D1*
Y1626152D1*
X2409070D1*
X2409087Y1570789D1*
X2420896Y1570818D1*
Y1479322D1*
X2329400D1*
Y1570818D1*
X2341396D1*
X2341213Y1605837D1*
X2341398Y1642215D1*
X2341213Y1655050D1*
Y1699156D1*
X2339244Y1699026D1*
X2339429Y1751152D1*
X2339244Y1750601D1*
Y1773374D1*
X2331917Y1774551D1*
X2327150Y1777966D1*
X2323815Y1784196D1*
X2323403Y1793503D1*
Y1993869D1*
X2324609Y1999606D1*
X2328024Y2004374D1*
X2334253Y2007709D1*
X2343560Y2008121D1*
X2362657D1*
X2368395Y2006915D1*
X2373163Y2003499D1*
X2437635Y1933167D1*
X2562678Y1933113D1*
X2568416Y1931907D1*
X2573184Y1928492D1*
X2576518Y1922262D1*
X2576930Y1912955D1*
Y1787597D1*
X2575724Y1781860D1*
X2572310Y1777092D1*
X2566080Y1773757D1*
X2556773Y1773345D1*
X2411055Y1773199D1*
Y1729560D1*
X2431449Y904396D2*
D17*
Y843908D1*
X2336512D2*
X2526386D1*
X1725091Y1975016D2*
Y1812701D1*
X1673461Y1893858D2*
X1725091D1*
X789340Y1312530D2*
Y1278617D1*
X753458Y1312530D2*
X789340D1*
X787490Y1440223D2*
Y1406310D1*
X823371D1*
X1106291Y1058383D2*
Y1018564D1*
X1150047D1*
X1637581Y975217D2*
Y935398D1*
X1593825Y975217D2*
X1681337D1*
X1731138Y1581325D2*
Y1493814D1*
Y1537570D2*
X1770957D1*
X1318593Y2050126D2*
Y1962614D1*
Y2006370D2*
X1358412D1*
X2162630Y1646546D2*
Y1594916D1*
X1831358Y1737579D2*
Y1703665D1*
X1795476Y1737579D2*
X1831358D1*
X2487669Y1729436D2*
Y1626176D1*
Y1677806D2*
X2568827D1*
X2131383Y858360D2*
Y818541D1*
X2087627D2*
X2175139D1*
X2343885Y1475066D2*
Y1387554D1*
X2304066Y1431310D2*
X2343885D1*
X2341182Y624975D2*
X2392812D1*
X1687365Y1800105D2*
Y1712593D1*
Y1756349D2*
X1727184D1*
X2243895Y868751D2*
Y828932D1*
X2200139Y868751D2*
X2287651D1*
X1850110Y612677D2*
Y572858D1*
Y612677D2*
X1893866D1*
X1893850Y1489554D2*
D18*
Y1443829D1*
X1848126D2*
X1893850D1*
X2108066Y526934D2*
Y435486D1*
X2062341Y481210D2*
X2153790D1*
X487472Y939514D2*
Y848066D1*
X441748Y893790D2*
X533197D1*
X2512155Y1265971D2*
Y1174522D1*
X2466430Y1220247D2*
X2557879D1*
X487472Y1938614D2*
Y1847165D1*
X441748Y1892890D2*
X533197D1*
X768929Y2139593D2*
Y2048144D1*
X723205Y2093869D2*
X814654D1*
X1930391Y1944606D2*
D17*
Y1891008D1*
X1906320D2*
X1930391D1*
X2158738Y1958386D2*
Y1900850D1*
X2095297D2*
X2158738D1*
X1828029Y1958386D2*
Y1843315D1*
Y1900850D2*
X1891470D1*
X2158738Y2109512D2*
Y2051976D1*
X2095297Y2109512D2*
X2222178D1*
X1828029D2*
Y2051976D1*
X1764588Y2109512D2*
X1891470D1*
X962630Y1055262D2*
Y1011507D1*
X922811D2*
X962630D1*
X2131173Y1491207D2*
Y1456310D1*
X2104150D2*
X2158197D1*
X2356407Y1383325D2*
Y1329278D1*
X2321509Y1356302D2*
X2391304D1*
X906255Y1926928D2*
Y1872881D1*
X871357Y1899904D2*
X941152D1*
X806244Y1204664D2*
Y1168782D1*
X772331D2*
X840157D1*
X726814Y931257D2*
Y897344D1*
X690932Y931257D2*
X726814D1*
X2031373Y818735D2*
Y750908D1*
Y784822D2*
X2067255D1*
X570547Y1465223D2*
Y1431310D1*
X534665D2*
X570547D1*
X2268890Y1614420D2*
Y1578538D1*
Y1614420D2*
X2302803D1*
X1831370Y1827743D2*
Y1793829D1*
X1795488D2*
X1831370D1*
X1987413Y537467D2*
Y449955D1*
Y493711D2*
X2027232D1*
X931134Y477688D2*
Y433932D1*
X891315Y477688D2*
X931134D1*
X818745Y585849D2*
Y549967D1*
X784832D2*
X852659D1*
X574970Y1550072D2*
Y1514190D1*
X541056Y1550072D2*
X608883D1*
X2162630Y1427703D2*
Y1359877D1*
Y1393790D2*
X2198512D1*
X881252Y1768829D2*
X915165D1*
X1558142Y836270D2*
X1592055D1*
X1048795Y1237530D2*
X1140244D1*
X1190976Y1127743D2*
Y1036294D1*
X1387827Y1082018D2*
Y1036294D1*
X1446882Y1082018D2*
Y1036294D1*
X1543339Y1434381D2*
X1589063D1*
X1190976Y1530837D2*
Y1485113D1*
X2339268Y1762491D2*
X2411031D1*
X2272000Y1157703D2*
Y1121822D1*
X1870488Y1631428D2*
X1906370D1*
X1743850Y831192D2*
Y805152D1*
X1690252Y831192D2*
X1797449D1*
X2344741Y1976283D2*
D14*
X2369600D1*
X2344741Y1964604D2*
X2380303D1*
X2344741Y1952924D2*
X2391008D1*
X2344741Y1941244D2*
X2401711D1*
X2344741Y1929564D2*
X2412415D1*
X2344741Y1917885D2*
X2423118D1*
X2344741Y1906205D2*
X2555623D1*
X2344741Y1894525D2*
X2555623D1*
X2344741Y1882845D2*
X2555623D1*
X2344741Y1871165D2*
X2555623D1*
X2344741Y1859486D2*
X2555623D1*
X2344741Y1847806D2*
X2555623D1*
X2344741Y1836126D2*
X2555623D1*
X2344741Y1824446D2*
X2555623D1*
X2344741Y1812766D2*
X2555623D1*
X2344741Y1801087D2*
X2555623D1*
X2550867Y1912955D2*
X2431260Y1913041D1*
X2427062Y1914870D1*
X2360096Y1987924D1*
X2343560Y1987963D1*
Y1793503D1*
X2556773D1*
Y1912955D1*
X2550867D1*
X2232285Y1963782D2*
X2293038D1*
X2232285Y1952102D2*
X2293038D1*
X2232285Y1940423D2*
X2293038D1*
X2232285Y1928743D2*
X2293038D1*
X2232285Y1917063D2*
X2293038D1*
X2232285Y1905383D2*
X2293038D1*
X2232285Y1893703D2*
X2293038D1*
X2232285Y1882024D2*
X2293038D1*
X2232285Y1870344D2*
X2293038D1*
X2232285Y1858664D2*
X2293038D1*
X2231362Y1846984D2*
X2293038D1*
X2050875Y1835304D2*
X2293038D1*
X2054013Y1823625D2*
X2293038D1*
X2054013Y1811945D2*
X2293038D1*
X2054013Y1800265D2*
X2293038D1*
X2054013Y1788585D2*
X2293038D1*
X2054013Y1776906D2*
X2293038D1*
X2054013Y1765226D2*
X2293038D1*
X2054013Y1753546D2*
X2293038D1*
X2054013Y1741866D2*
X2224387D1*
X2054013Y1730186D2*
X2224387D1*
X2054013Y1718507D2*
X2224387D1*
X2054013Y1706827D2*
X2224387D1*
X2054013Y1695147D2*
X2080256D1*
X2049768Y1683467D2*
X2080256D1*
X2049768Y1671787D2*
X2080256D1*
X2049768Y1660108D2*
X2080256D1*
X2049768Y1648428D2*
X2080256D1*
X2000955Y1636748D2*
X2080256D1*
X2000955Y1625068D2*
X2080256D1*
X2049768Y1613388D2*
X2080256D1*
X2081449Y1612055D2*
X2081723Y1700088D1*
X2084614Y1705070D1*
X2087629Y1705993D1*
X2225488D1*
Y1743843D1*
X2228379Y1748824D1*
X2231394Y1749748D1*
X2233055D1*
X2232954Y1751154D1*
X2294408D1*
X2294245Y1791087D1*
Y1975462D1*
X2231049D1*
Y1850104D1*
X2228157Y1845122D1*
X2225143Y1844198D1*
X2222005D1*
X2222202Y1843291D1*
X2095273D1*
X2095222Y1844198D1*
X2049780D1*
X2049895Y1827924D1*
X2052808D1*
X2052623Y1756113D1*
X2052808Y1743278D1*
Y1689184D1*
X2048584Y1688992D1*
Y1642772D1*
X1999678D1*
X1999774Y1620178D1*
X2048584Y1620094D1*
Y1612159D1*
X2081529Y1612234D1*
X1151266Y910707D2*
X1187290D1*
X1251660D2*
X1521136D1*
X1069882Y899028D2*
X1187290D1*
X1247785D2*
X1281778D1*
X1412402D2*
X1428864D1*
X1069882Y887348D2*
X1187290D1*
X1245755D2*
X1281778D1*
X1412402D2*
X1428864D1*
X925843Y875668D2*
X1187290D1*
X1245755D2*
X1281778D1*
X1412402D2*
X1428864D1*
X925843Y863988D2*
X1187290D1*
X1245755D2*
X1281778D1*
X1412402D2*
X1428864D1*
X925843Y852308D2*
X1187290D1*
X1245755D2*
X1281778D1*
X1412402D2*
X1428864D1*
X925843Y840629D2*
X1187290D1*
X1245755D2*
X1281778D1*
X1412402D2*
X1428864D1*
X925843Y828949D2*
X1187290D1*
X1245755D2*
X1318504D1*
X1412402D2*
X1428864D1*
X1069882Y817269D2*
X1318504D1*
X1412402D2*
X1428864D1*
X1069882Y805589D2*
X1264801D1*
X1297798D2*
X1383465D1*
X1416646D2*
X1478690D1*
X1069882Y793909D2*
X1251513D1*
X1429749D2*
X1478690D1*
X1521469D2*
X1618024D1*
X1069882Y782230D2*
X1131741D1*
X1434731D2*
X1464849D1*
X1605807D2*
X1618024D1*
X1069882Y770550D2*
X1131741D1*
X1435101D2*
X1464849D1*
X1605807D2*
X1617840D1*
X1069882Y758870D2*
X1131741D1*
X1431409D2*
X1464849D1*
X1605807D2*
X1614702D1*
X1069882Y747190D2*
X1131741D1*
X1421260D2*
X1464849D1*
X1605807D2*
X1615810D1*
X1069882Y735510D2*
X1131741D1*
X1429196D2*
X1464849D1*
X1605807D2*
X1621715D1*
X1069882Y723831D2*
X1082467D1*
X1431594D2*
X1464849D1*
X1617249D2*
X1635371D1*
X925843Y712151D2*
X938521D1*
X1032234D2*
X1069919D1*
X1431594D2*
X1478690D1*
X1727793D2*
X1805155D1*
X925843Y700471D2*
X938521D1*
X1032234D2*
X1065304D1*
X1431594D2*
X1478690D1*
X1727793D2*
X1805155D1*
X925843Y688791D2*
X938521D1*
X1032234D2*
X1064936D1*
X1431594D2*
X1478690D1*
X1727793D2*
X1805155D1*
X925843Y677112D2*
X938521D1*
X1032234D2*
X1068996D1*
X1431594D2*
X1478690D1*
X1727793D2*
X1805155D1*
X925843Y665432D2*
X938521D1*
X1032234D2*
X1079514D1*
X1429564D2*
X1478690D1*
X1611159D2*
X1617627D1*
X1727793D2*
X1805155D1*
X925843Y653752D2*
X938521D1*
X1032234D2*
X1121777D1*
X1420337D2*
X1478875D1*
X1611159D2*
X1625959D1*
X1727793D2*
X1805155D1*
X925843Y642072D2*
X1121777D1*
X1408710D2*
X1484596D1*
X1611159D2*
X1625959D1*
X1727793D2*
X1805155D1*
X925843Y630392D2*
X960298D1*
X1010458D2*
X1050357D1*
X1398560D2*
X1501575D1*
X1611159D2*
X1625959D1*
X1727793D2*
X1805155D1*
X925843Y618713D2*
X947564D1*
X1023192D2*
X1050357D1*
X1398560D2*
X1501575D1*
X1611159D2*
X1805155D1*
X925843Y607033D2*
X941289D1*
X1029466D2*
X1050357D1*
X1398560D2*
X1501575D1*
X1611159D2*
X1711404D1*
X1801243D2*
X1805234D1*
X925843Y595353D2*
X938706D1*
X1032234D2*
X1050357D1*
X1398560D2*
X1501575D1*
X1611159D2*
X1625959D1*
X1801243D2*
X1805234D1*
X925843Y583673D2*
X939075D1*
X1031680D2*
X1050357D1*
X1398560D2*
X1501575D1*
X1611159D2*
X1625959D1*
X1801243D2*
X1805234D1*
X925843Y571993D2*
X942765D1*
X1398560D2*
X1501575D1*
X1801243D2*
X1805560D1*
X925843Y560314D2*
X950701D1*
X1020239D2*
X1028026D1*
X1398560D2*
X1501575D1*
X1801243D2*
X1805560D1*
X925843Y548634D2*
X967864D1*
X1002891D2*
X1028026D1*
X1398560D2*
X1501575D1*
X1801243D2*
X1939320D1*
X979084Y536954D2*
X1028026D1*
X1398560D2*
X1501575D1*
X1801243D2*
X1871592D1*
X979638Y525274D2*
X1028026D1*
X1303703D2*
X1625959D1*
X1801243D2*
X1871592D1*
X1296136Y513594D2*
X1625959D1*
X1801243D2*
X1871592D1*
X1284510Y501915D2*
X1711404D1*
X1801243D2*
X1871592D1*
X1272699Y490235D2*
X1310753D1*
X1351685D2*
X1389739D1*
X1530881D2*
X1562290D1*
X1612820D2*
X1711404D1*
X1801243D2*
X1871592D1*
X1174520Y478555D2*
X1178962D1*
X1271038D2*
X1300234D1*
X1620571D2*
X1711404D1*
X1801243D2*
X1871592D1*
X1174520Y466875D2*
X1183148D1*
X1266978D2*
X1296173D1*
X1622970D2*
X1711404D1*
X1801243D2*
X1871592D1*
X1174520Y455196D2*
X1191535D1*
X1258673D2*
X1296542D1*
X1621308D2*
X1711404D1*
X1801243D2*
X1871592D1*
X1174520Y443516D2*
X1211282D1*
X1238743D2*
X1301341D1*
X1614665D2*
X1939320D1*
X979638Y431836D2*
X1313890D1*
X1348732D2*
X1389739D1*
X1530881D2*
X1582776D1*
X1592538D2*
X1939320D1*
X1150071Y919197D2*
Y903919D1*
X1068685D1*
X1068693Y876900D1*
X924635D1*
X924661Y826820D1*
X977197Y826664D1*
X1068693D1*
Y723357D1*
X1031230D1*
X1031154Y645619D1*
X939657D1*
Y723314D1*
X924562Y723357D1*
X924661Y626587D1*
X924660Y537122D1*
X972471Y537136D1*
X977453Y534247D1*
X978378Y531231D1*
Y521450D1*
X1029098Y521467D1*
X1029115Y575010D1*
X1051446D1*
X1051606Y581388D1*
Y633908D1*
X1122916D1*
X1122874Y668348D1*
X1117526Y664289D1*
X1112217Y661723D1*
X1106543Y660106D1*
X1100678Y659487D1*
X1094793Y659882D1*
X1089063Y661282D1*
X1083659Y663643D1*
X1078739Y666898D1*
X1074451Y670948D1*
X1070921Y675672D1*
X1068255Y680933D1*
X1066529Y686573D1*
X1065798Y692427D1*
X1066081Y698318D1*
X1067371Y704073D1*
X1069630Y709522D1*
X1072789Y714503D1*
X1076756Y718867D1*
X1081413Y722487D1*
X1086622Y725253D1*
X1092228Y727085D1*
X1098066Y727928D1*
X1102143Y727976D1*
X1107730Y729846D1*
X1118432Y730328D1*
X1133010D1*
X1132877Y783925D1*
X1204688Y783740D1*
X1217522Y783925D1*
X1248341D1*
X1250899Y790781D1*
X1254058Y795761D1*
X1258025Y800126D1*
X1262682Y803745D1*
X1267891Y806512D1*
X1273497Y808344D1*
X1279335Y809186D1*
X1285231Y809016D1*
X1291010Y807836D1*
X1296501Y805682D1*
X1301541Y802618D1*
X1305564Y799098D1*
X1375597Y799085D1*
X1381445Y803745D1*
X1386654Y806512D1*
X1392260Y808344D1*
X1398097Y809186D1*
X1403993Y809016D1*
X1409773Y807836D1*
X1415264Y805682D1*
X1420303Y802618D1*
X1424743Y798735D1*
X1428450Y794148D1*
X1431316Y788992D1*
X1433255Y783421D1*
X1434308Y774991D1*
X1433801Y769114D1*
X1432293Y763412D1*
X1429828Y758054D1*
X1426480Y753197D1*
X1422350Y748987D1*
X1418906Y746516D1*
X1423344Y742022D1*
X1426970Y737379D1*
X1429360Y731996D1*
X1430402Y724986D1*
Y674980D1*
X1429681Y669134D1*
X1427564Y663636D1*
X1423344Y657944D1*
X1404594Y639194D1*
X1397941Y634488D1*
X1397354Y632294D1*
X1397169Y580168D1*
X1397354Y576388D1*
Y530168D1*
X1303346D1*
X1302636Y525379D1*
X1300341Y519957D1*
X1296940Y515570D1*
X1270710Y489340D1*
X1270399Y481601D1*
X1269264Y475811D1*
X1267391Y470214D1*
X1264815Y464904D1*
X1261576Y459971D1*
X1257730Y455496D1*
X1253339Y451552D1*
X1248478Y448207D1*
X1243226Y445516D1*
X1237671Y443524D1*
X1231906Y442262D1*
X1226026Y441753D1*
X1220130Y442007D1*
X1214316Y443016D1*
X1208680Y444765D1*
X1203315Y447226D1*
X1198312Y450356D1*
X1193755Y454105D1*
X1189718Y458408D1*
X1186268Y463197D1*
X1183462Y468388D1*
X1181349Y473899D1*
X1179963Y479635D1*
X1179370Y487530D1*
X1173417Y487294D1*
Y434774D1*
X1045772D1*
X1045780Y433908D1*
X978346D1*
X978378Y425719D1*
X1940583D1*
Y449895D1*
X1872768Y449932D1*
Y537491D1*
X1940571D1*
X1940592Y550513D1*
X1812609Y550312D1*
X1807622Y553196D1*
X1806694Y556218D1*
Y573012D1*
X1806324Y572836D1*
X1806509Y652521D1*
X1806324Y665356D1*
Y719797D1*
X1774285Y719643D1*
X1650083D1*
X1644236Y720364D1*
X1638739Y722480D1*
X1633799Y726008D1*
X1628797Y729404D1*
X1624509Y733454D1*
X1620979Y738178D1*
X1618312Y743440D1*
X1616587Y749080D1*
X1615856Y754933D1*
X1616139Y760824D1*
X1617429Y766580D1*
X1619193Y770836D1*
X1619175Y800339D1*
X1531320D1*
X1526339Y803230D1*
X1522386Y803420D1*
X1522571Y875231D1*
X1522386Y888066D1*
Y919255D1*
X1484076Y919101D1*
X1250623D1*
X1250504Y910995D1*
X1249646Y905173D1*
X1247280Y900058D1*
X1244470Y896610D1*
X1244559Y871113D1*
Y819932D1*
X1188496D1*
Y919119D1*
X1150230Y919101D1*
X1325622Y909883D2*
X1411213D1*
Y810513D1*
X1319717D1*
Y839487D1*
X1282984Y839617D1*
Y903554D1*
X1319709D1*
X1319717Y909883D1*
X1325622D1*
X1435858D2*
X1521449D1*
Y810513D1*
X1520157D1*
X1520224Y790117D1*
X1537794Y789983D1*
X1538818Y790168D1*
X1604723D1*
Y732257D1*
X1609953Y732294D1*
Y726203D1*
X1617268Y723164D1*
X1624760Y716308D1*
X1627761Y713307D1*
X1726543Y713345D1*
Y621849D1*
X1627173D1*
Y661526D1*
X1620394Y664298D1*
X1612902Y671154D1*
X1609900Y674155D1*
X1609768Y630168D1*
X1609953Y626388D1*
Y576203D1*
X1627012Y576388D1*
X1627173Y594290D1*
Y603109D1*
X1712618D1*
X1712583Y608564D1*
X1800142D1*
X1799957Y528879D1*
X1800142Y527856D1*
Y454076D1*
X1712583D1*
Y511618D1*
X1627173Y511613D1*
Y536157D1*
X1609845Y536073D1*
X1609953Y530168D1*
X1502709D1*
X1502894Y582294D1*
X1502709Y586073D1*
Y636259D1*
X1500067Y636073D1*
X1494245Y636932D1*
X1488920Y639436D1*
X1484545Y643370D1*
X1481492Y648402D1*
X1480030Y654283D1*
X1479909Y709381D1*
Y722483D1*
X1465983Y722294D1*
Y790168D1*
X1479824D1*
X1479909Y810680D1*
X1432866Y810513D1*
X1429953D1*
Y909883D1*
X1435858D1*
X1031138Y590186D2*
X1030408Y583144D1*
X1028601Y576299D1*
X1025759Y569816D1*
X1021950Y563848D1*
X1017268Y558539D1*
X1011820Y554016D1*
X1005741Y550388D1*
X999176Y547741D1*
X992280Y546139D1*
X985219Y545619D1*
X978163Y546197D1*
X971281Y547854D1*
X964736Y550555D1*
X958686Y554232D1*
X953277Y558799D1*
X948638Y564147D1*
X944878Y570146D1*
X942089Y576652D1*
X940337Y583512D1*
X939664Y590559D1*
X940088Y597626D1*
X941596Y604543D1*
X944154Y611144D1*
X947698Y617273D1*
X952147Y622780D1*
X957391Y627535D1*
X963307Y631424D1*
X969752Y634354D1*
X976572Y636255D1*
X983602Y637080D1*
X990677Y636811D1*
X997626Y635453D1*
X1004281Y633039D1*
X1010484Y629629D1*
X1016088Y625302D1*
X1020955Y620161D1*
X1024972Y614332D1*
X1028042Y607951D1*
X1030089Y601175D1*
X1031068Y594164D1*
X1031138Y590186D1*
X1463811Y495877D2*
X1529717D1*
Y482035D1*
X1557480Y482097D1*
X1560340Y486647D1*
X1564307Y491012D1*
X1568965Y494631D1*
X1574173Y497398D1*
X1579780Y499230D1*
X1585617Y500072D1*
X1591513Y499902D1*
X1597293Y498722D1*
X1602783Y496568D1*
X1607823Y493504D1*
X1612262Y489621D1*
X1615970Y485034D1*
X1618836Y479878D1*
X1620774Y474307D1*
X1621828Y465877D1*
X1621320Y460000D1*
X1619812Y454298D1*
X1617348Y448940D1*
X1614000Y444083D1*
X1609870Y439873D1*
X1605077Y436433D1*
X1599768Y433867D1*
X1594094Y432251D1*
X1588230Y431631D1*
X1582344Y432026D1*
X1576614Y433427D1*
X1571210Y435787D1*
X1566290Y439042D1*
X1563476Y441699D1*
X1529812Y441782D1*
X1529717Y428003D1*
X1457906Y428188D1*
X1445071Y428003D1*
X1390976D1*
Y441844D1*
X1359154Y441782D1*
X1353593Y435936D1*
X1348801Y432496D1*
X1343491Y429930D1*
X1337818Y428314D1*
X1331953Y427694D1*
X1326067Y428089D1*
X1320337Y429490D1*
X1314933Y431850D1*
X1310013Y435105D1*
X1305726Y439155D1*
X1302196Y443879D1*
X1299529Y449140D1*
X1297803Y454781D1*
X1297072Y460634D1*
X1297356Y466525D1*
X1298646Y472281D1*
X1300904Y477730D1*
X1304063Y482710D1*
X1308030Y487075D1*
X1312688Y490694D1*
X1317896Y493461D1*
X1323503Y495293D1*
X1329340Y496135D1*
X1335236Y495965D1*
X1341016Y494785D1*
X1346507Y492631D1*
X1351546Y489567D1*
X1355986Y485684D1*
X1358882Y482100D1*
X1390908Y482097D1*
X1390976Y495877D1*
X1462787Y495692D1*
X1457906Y495877D1*
X1463811D1*
X1756362Y493919D2*
D17*
Y454100D1*
X1712606Y493919D2*
X1800118D1*
X987512Y928554D2*
Y876924D1*
X985406Y637092D2*
D18*
Y545643D1*
X939681Y591367D2*
X1031130D1*
X1087512Y633885D2*
D17*
Y599971D1*
X1051630D2*
X1087512D1*
X1216528Y845995D2*
Y819955D1*
X1188520Y845995D2*
X1244535D1*
X1137512Y468711D2*
Y434798D1*
Y468711D2*
X1173394D1*
X1568818Y790144D2*
Y756231D1*
X1604699D1*
X1912610Y537467D2*
Y449955D1*
X1872791Y493711D2*
X1912610D1*
X1005937Y521444D2*
Y433932D1*
X1343732Y556231D2*
Y530192D1*
Y556231D2*
X1397331D1*
X1502732Y606231D2*
X1609929D1*
D19*
X2431449Y843908D3*
Y1089971D3*
D20*
X1571547Y1893858D3*
X1725091D3*
D21*
X856269Y1312530D3*
X789340D3*
X787490Y1406310D3*
X720560D3*
D22*
X1106291Y943761D3*
Y1018564D3*
X1637581Y1050020D3*
Y975217D3*
D23*
X1656335Y1537570D3*
X1731138D3*
X1243790Y2006370D3*
X1318593D3*
D24*
X1365465Y860198D3*
X1475701D3*
D22*
X1018766Y1493816D3*
Y1568619D3*
D23*
X1237520Y656210D3*
X1162717D3*
X1143761Y531231D3*
X1068958D3*
D27*
X1676858Y667597D3*
Y557361D3*
D22*
X1756362Y568722D3*
Y493919D3*
D25*
X987512Y775010D3*
Y928554D3*
X2162630Y1800089D3*
Y1646546D3*
D21*
X1831358Y1737579D3*
X1898287D3*
D25*
X2487669Y1831349D3*
Y1677806D3*
D22*
X2131383Y743738D3*
Y818541D3*
D23*
X2418688Y1431310D3*
X2343885D3*
D20*
X2187639Y624975D3*
X2341182D3*
D23*
X1612562Y1756349D3*
X1687365D3*
D22*
X2243895Y868751D3*
Y943554D3*
X1850110Y687480D3*
Y612677D3*
D30*
X1693850Y1443829D3*
D31*
X1793850D3*
X1893850D3*
D30*
X487472Y1456297D3*
D31*
Y1556297D3*
Y1656297D3*
D30*
X2244314Y1220247D3*
D31*
Y1320247D3*
Y1420247D3*
D30*
X2408066Y481210D3*
D31*
X2308066D3*
X2208066D3*
X2108066D3*
D30*
X724953Y674538D3*
D31*
Y574538D3*
Y474538D3*
X487472Y1193790D3*
Y1093790D3*
Y993790D3*
Y893790D3*
Y793790D3*
X587472D3*
Y893790D3*
Y993790D3*
Y1093790D3*
D30*
Y1193790D3*
X2512155Y1420247D3*
D31*
Y1320247D3*
Y1220247D3*
D30*
X487472Y1892890D3*
D31*
Y1792890D3*
D30*
X1056252Y1793829D3*
D31*
Y1693829D3*
D30*
X668929Y2093869D3*
D31*
X768929D3*
X868929D3*
X968929D3*
X1068929D3*
X1168929D3*
X1268929D3*
X1368929D3*
D30*
X985406Y691367D3*
D31*
Y591367D3*
D30*
X1225031Y587491D3*
D31*
Y487491D3*
D32*
X2056375Y1891008D3*
X2024879D3*
X1993383D3*
X1961887D3*
X1930391D3*
D33*
X2158738Y1900850D3*
X1828029D3*
X2158738Y2109512D3*
X1828029D3*
D34*
X824992Y1668829D3*
X689165D3*
X643732Y1937609D3*
X779559D3*
D31*
X2275148Y1525070D3*
D30*
X2375148D3*
D23*
X962630Y1011507D3*
X1037433D3*
D30*
X672413Y1762609D3*
D35*
X1469466Y2081378D3*
X1587576D3*
X2093933Y631424D3*
X1975823D3*
D37*
X2490189Y2056388D3*
X521685Y2056375D3*
Y520955D3*
D39*
X1747984Y1306310D3*
Y1231507D3*
X1838535Y1268908D3*
D40*
X2056370Y1456310D3*
X2131173D3*
X2093772Y1546861D3*
D39*
X1936567Y1182333D3*
Y1257136D3*
X1846016Y1219735D3*
X2042827Y1182333D3*
Y1257136D3*
X1952276Y1219735D3*
X2356407Y1356302D3*
Y1281499D3*
X2446958Y1318900D3*
X906255Y1825101D3*
Y1899904D3*
X815703Y1862503D3*
D21*
X1087512Y599971D3*
X1154441D3*
X1618839Y1250050D3*
X1685768D3*
X1618839Y1300050D3*
X1685768D3*
D41*
X1216528Y897176D3*
D42*
X1311016Y871585D3*
D41*
X1216528Y845995D3*
D135*
X2206803Y1473115D3*
X2173339Y1531079D3*
D26*
X2005961Y1394466D3*
Y1461395D3*
D21*
X637476Y1481315D3*
X704406D3*
D26*
X806244Y1168782D3*
Y1101853D3*
D21*
X793743Y931257D3*
X726814D3*
D26*
X856249Y1018766D3*
Y1085696D3*
X793743Y674980D3*
Y741909D3*
D21*
X2031373Y784822D3*
X1964444D3*
X1820583Y1135089D3*
X1887512D3*
X1550071Y956270D3*
X1483142D3*
D35*
X1868856Y1054091D3*
X1750745D3*
D21*
X637476Y1431310D3*
X570547D3*
X568732Y1381310D3*
X635661D3*
D138*
X1300899Y1701436D3*
X1253573Y1748761D3*
D21*
X1493811Y461940D3*
X1426882D3*
X1137512Y468711D3*
X1070583D3*
X1568818Y756231D3*
X1501888D3*
X1168772Y749971D3*
X1235701D3*
D26*
X781241Y987513D3*
Y1054442D3*
D21*
X543732Y1331310D3*
X610661D3*
X587472Y1281310D3*
X520543D3*
D26*
X2268890Y1681349D3*
Y1614420D3*
X2018871Y1725089D3*
Y1792018D3*
X1962621Y1725089D3*
Y1792018D3*
X2100130Y993764D3*
Y1060693D3*
X2150135Y993764D3*
Y1060693D3*
X2375150Y1606310D3*
Y1673239D3*
D21*
X1831370Y1793829D3*
X1898299D3*
X2393911Y731236D3*
X2326982D3*
X2281399Y787492D3*
X2214470D3*
D141*
X2031373Y968126D3*
Y901197D3*
D23*
X1912610Y493711D3*
X1987413D3*
X1005937Y477688D3*
X931134D3*
D26*
X849999Y743738D3*
Y810667D3*
X818745Y549967D3*
Y483038D3*
X574970Y1550072D3*
Y1617001D3*
D21*
X2162630Y1393790D3*
X2095701D3*
D26*
X818741Y1731349D3*
Y1798278D3*
X881252Y1768829D3*
Y1701900D3*
D21*
X2425164Y1218787D3*
X2358235D3*
D26*
X2023811Y1109892D3*
Y1042963D3*
X1955701Y1109105D3*
Y1042176D3*
X1558142Y836270D3*
Y903199D3*
D43*
X1343732Y706231D3*
Y656231D3*
Y606231D3*
Y556231D3*
X1556331D3*
Y606231D3*
Y656231D3*
Y706231D3*
D44*
X1094520Y1454066D3*
Y1434381D3*
Y1414696D3*
Y1395010D3*
Y1375325D3*
Y1355640D3*
Y1335955D3*
Y1316270D3*
Y1296585D3*
Y1276900D3*
Y1257215D3*
Y1237530D3*
Y1217845D3*
Y1198160D3*
Y1178475D3*
Y1158790D3*
D45*
X1171291Y1082018D3*
X1190976D3*
X1210661D3*
X1230346D3*
X1250031D3*
X1269717D3*
X1289402D3*
X1309087D3*
X1328772D3*
X1348457D3*
X1368142D3*
X1387827D3*
X1407512D3*
X1427197D3*
X1446882D3*
X1466567D3*
D44*
X1543339Y1158790D3*
Y1178475D3*
Y1198160D3*
Y1217845D3*
Y1237530D3*
Y1257215D3*
Y1276900D3*
Y1296585D3*
Y1316270D3*
Y1335955D3*
Y1355640D3*
Y1375325D3*
Y1395010D3*
Y1414696D3*
Y1434381D3*
Y1454066D3*
D45*
X1466567Y1530837D3*
X1446882D3*
X1427197D3*
X1407512D3*
X1387827D3*
X1368142D3*
X1348457D3*
X1328772D3*
X1309087D3*
X1289402D3*
X1269717D3*
X1250031D3*
X1230346D3*
X1210661D3*
X1190976D3*
X1171291D3*
D51*
X2375150Y1725089D3*
Y1762491D3*
Y1799892D3*
X2268850D3*
Y1725089D3*
D52*
X2309402Y1121822D3*
X2272000D3*
X2234598D3*
Y1015522D3*
X2309402D3*
D51*
X1906370Y1668829D3*
Y1631428D3*
Y1594026D3*
X2012669D3*
Y1631428D3*
Y1668829D3*
D43*
X1743850Y981192D3*
Y931192D3*
Y881192D3*
Y831192D3*
X1956449D3*
Y881192D3*
Y931192D3*
Y981192D3*
D53*
X912512Y1343790D3*
X722512D3*
D54*
X906252Y1475050D3*
Y1597097D3*
M02*
