G04 DipTrace Beta 2.9.0.1*
G04 TopMask.gbr*
%MOIN*%
G04 #@! TF.FileFunction,Soldermask,Top*
G04 #@! TF.Part,Single*
%AMOUTLINE4*
4,1,4,
-0.033253,0.010351,
0.007662,0.033973,
0.033253,-0.010351,
-0.007662,-0.033973,
-0.033253,0.010351,
0*%
%AMOUTLINE7*
4,1,4,
-0.034799,0.001392,
-0.001392,0.034799,
0.034799,-0.001392,
0.001392,-0.034799,
-0.034799,0.001392,
0*%
%AMOUTLINE10*
4,1,4,
-0.023622,0.025591,
0.023622,0.025591,
0.023622,-0.025591,
-0.023622,-0.025591,
-0.023622,0.025591,
0*%
%ADD57C,0.035433*%
%ADD58C,0.059055*%
%ADD64C,0.204724*%
%ADD66C,0.059055*%
%ADD68C,0.055874*%
%ADD70R,0.031496X0.051181*%
%ADD72R,0.051181X0.031496*%
%ADD83R,0.070866X0.019685*%
%ADD84R,0.019685X0.070866*%
%ADD87R,0.086614X0.031496*%
%ADD89R,0.047874X0.043307*%
%ADD91R,0.047874X0.031496*%
%ADD93R,0.033465X0.049213*%
%ADD95R,0.049213X0.033465*%
%ADD99R,0.055118X0.070866*%
%ADD101R,0.057087X0.070866*%
%ADD103R,0.106299X0.094488*%
%ADD105R,0.027559X0.086614*%
%ADD107C,0.070866*%
%ADD109R,0.070866X0.070866*%
%ADD113R,0.07874X0.070866*%
%ADD115R,0.047244X0.051181*%
%ADD117R,0.141732X0.082677*%
%ADD119R,0.070866X0.07874*%
%ADD121R,0.059055X0.066929*%
%ADD123R,0.066929X0.059055*%
%ADD125R,0.051181X0.047244*%
%ADD127R,0.082677X0.141732*%
%ADD129R,0.169291X0.100394*%
%ADD137OUTLINE4*%
%ADD140OUTLINE7*%
%ADD143OUTLINE10*%
%FSLAX26Y26*%
G04*
G70*
G90*
G75*
G01*
G04 TopMask*
%LPD*%
D129*
X2431449Y843908D3*
Y1089971D3*
D127*
X1571547Y1893858D3*
X1725091D3*
D125*
X856269Y1312530D3*
X789340D3*
X787490Y1406310D3*
X720560D3*
D123*
X1106291Y943762D3*
Y1018565D3*
X1637581Y1050019D3*
Y975216D3*
D121*
X1656335Y1537570D3*
X1731138D3*
X1243791Y2006370D3*
X1318594D3*
D119*
X1365465Y860198D3*
X1475701D3*
D123*
X1018766Y1493817D3*
Y1568620D3*
D121*
X1237519Y656210D3*
X1162716D3*
X1143761Y531231D3*
X1068957D3*
D113*
X1676858Y667597D3*
Y557361D3*
D123*
X1756362Y568721D3*
Y493918D3*
D117*
X987512Y775010D3*
Y928554D3*
X2162630Y1800089D3*
Y1646546D3*
D125*
X1831358Y1737579D3*
X1898287D3*
D117*
X2487669Y1831349D3*
Y1677806D3*
D123*
X2131383Y743738D3*
Y818541D3*
D121*
X2418687Y1431310D3*
X2343884D3*
D127*
X2187639Y624975D3*
X2341182D3*
D121*
X1612562Y1756349D3*
X1687365D3*
D123*
X2243895Y868751D3*
Y943554D3*
X1850110Y687480D3*
Y612677D3*
D109*
X1693850Y1443829D3*
D107*
X1793850D3*
X1893850D3*
D109*
X487472Y1456297D3*
D107*
Y1556297D3*
Y1656297D3*
D109*
X2244314Y1220247D3*
D107*
Y1320247D3*
Y1420247D3*
D109*
X2408066Y481210D3*
D107*
X2308066D3*
X2208066D3*
X2108066D3*
D109*
X724953Y674538D3*
D107*
Y574538D3*
Y474538D3*
X487472Y1193790D3*
Y1093790D3*
Y993790D3*
Y893790D3*
Y793790D3*
X587472D3*
Y893790D3*
Y993790D3*
Y1093790D3*
D109*
Y1193790D3*
X2512155Y1420247D3*
D107*
Y1320247D3*
Y1220247D3*
D109*
X487472Y1892890D3*
D107*
Y1792890D3*
D109*
X1056252Y1793829D3*
D107*
Y1693829D3*
D109*
X668929Y2093869D3*
D107*
X768929D3*
X868929D3*
X968929D3*
X1068929D3*
X1168929D3*
X1268929D3*
X1368929D3*
D109*
X985406Y691367D3*
D107*
Y591367D3*
D109*
X1225031Y587491D3*
D107*
Y487491D3*
D105*
X2056375Y1891008D3*
X2024879D3*
X1993383D3*
X1961887D3*
X1930391D3*
D103*
X2158738Y1900850D3*
X1828029D3*
X2158738Y2109512D3*
X1828029D3*
D57*
X2079997Y1999276D3*
X1906769D3*
D101*
X824992Y1668829D3*
X689165D3*
X643732Y1937609D3*
X779559D3*
D107*
X2275148Y1525070D3*
D109*
X2375148D3*
D121*
X962630Y1011507D3*
X1037433D3*
D109*
X672413Y1762609D3*
D99*
X1469466Y2081378D3*
X1587576D3*
X2093933Y631424D3*
X1975823D3*
D95*
X1747984Y1306310D3*
Y1231507D3*
X1838535Y1268908D3*
D93*
X2056370Y1456310D3*
X2131173D3*
X2093772Y1546861D3*
D95*
X1936567Y1182333D3*
Y1257136D3*
X1846016Y1219735D3*
X2042827Y1182333D3*
Y1257136D3*
X1952276Y1219735D3*
X2356407Y1356302D3*
Y1281499D3*
X2446958Y1318900D3*
X906255Y1825101D3*
Y1899904D3*
X815703Y1862503D3*
D125*
X1087512Y599971D3*
X1154441D3*
X1618839Y1250050D3*
X1685768D3*
X1618839Y1300050D3*
X1685768D3*
D91*
X1186567Y896034D3*
D89*
X1292567Y870034D3*
D91*
X1186567Y844034D3*
D137*
X2206803Y1473116D3*
X2173339Y1531078D3*
D115*
X2005961Y1394466D3*
Y1461395D3*
D125*
X637476Y1481315D3*
X704406D3*
D115*
X806244Y1168782D3*
Y1101853D3*
D125*
X793743Y931257D3*
X726814D3*
D115*
X856249Y1018766D3*
Y1085696D3*
X793743Y674980D3*
Y741909D3*
D125*
X2031373Y784822D3*
X1964444D3*
X1820583Y1135089D3*
X1887512D3*
X1550071Y956270D3*
X1483142D3*
D99*
X1868856Y1054091D3*
X1750745D3*
D125*
X637476Y1431310D3*
X570547D3*
X568732Y1381310D3*
X635661D3*
D140*
X1300899Y1701435D3*
X1253573Y1748761D3*
D125*
X1493811Y461940D3*
X1426882D3*
X1137512Y468711D3*
X1070583D3*
X1568818Y756231D3*
X1501888D3*
X1168772Y749971D3*
X1235701D3*
D115*
X781241Y987513D3*
Y1054442D3*
D125*
X543732Y1331310D3*
X610661D3*
X587472Y1281310D3*
X520543D3*
D115*
X2268890Y1681349D3*
Y1614420D3*
X2018871Y1725089D3*
Y1792018D3*
X1962621Y1725089D3*
Y1792018D3*
X2100130Y993764D3*
Y1060693D3*
X2150135Y993764D3*
Y1060693D3*
X2375150Y1606310D3*
Y1673239D3*
D125*
X1831370Y1793829D3*
X1898299D3*
X2393911Y731236D3*
X2326982D3*
X2281399Y787492D3*
X2214470D3*
D143*
X2031373Y968126D3*
Y901197D3*
D121*
X1912610Y493711D3*
X1987413D3*
X1005937Y477688D3*
X931134D3*
D115*
X849999Y743738D3*
Y810667D3*
X818745Y549967D3*
Y483038D3*
X574970Y1550072D3*
Y1617001D3*
D125*
X2162630Y1393790D3*
X2095701D3*
D115*
X818741Y1731349D3*
Y1798278D3*
X881252Y1768829D3*
Y1701900D3*
D125*
X2425164Y1218787D3*
X2358235D3*
D115*
X2023811Y1109892D3*
Y1042963D3*
X1955701Y1109105D3*
Y1042176D3*
X1558142Y836270D3*
Y903199D3*
D87*
X1343732Y706231D3*
Y656231D3*
Y606231D3*
Y556231D3*
X1556331D3*
Y606231D3*
Y656231D3*
Y706231D3*
D83*
X1094520Y1454066D3*
Y1434381D3*
Y1414696D3*
Y1395010D3*
Y1375325D3*
Y1355640D3*
Y1335955D3*
Y1316270D3*
Y1296585D3*
Y1276900D3*
Y1257215D3*
Y1237530D3*
Y1217845D3*
Y1198160D3*
Y1178475D3*
Y1158790D3*
D84*
X1171291Y1082018D3*
X1190976D3*
X1210661D3*
X1230346D3*
X1250031D3*
X1269717D3*
X1289402D3*
X1309087D3*
X1328772D3*
X1348457D3*
X1368142D3*
X1387827D3*
X1407512D3*
X1427197D3*
X1446882D3*
X1466567D3*
D83*
X1543339Y1158790D3*
Y1178475D3*
Y1198160D3*
Y1217845D3*
Y1237530D3*
Y1257215D3*
Y1276900D3*
Y1296585D3*
Y1316270D3*
Y1335955D3*
Y1355640D3*
Y1375325D3*
Y1395010D3*
Y1414696D3*
Y1434381D3*
Y1454066D3*
D84*
X1466567Y1530837D3*
X1446882D3*
X1427197D3*
X1407512D3*
X1387827D3*
X1368142D3*
X1348457D3*
X1328772D3*
X1309087D3*
X1289402D3*
X1269717D3*
X1250031D3*
X1230346D3*
X1210661D3*
X1190976D3*
X1171291D3*
D58*
X1685543Y2034971D3*
Y1641270D3*
D72*
X2375150Y1725089D3*
Y1762491D3*
Y1799892D3*
X2268850D3*
Y1725089D3*
D70*
X2309402Y1121822D3*
X2272000D3*
X2234598D3*
Y1015522D3*
X2309402D3*
D72*
X1906370Y1668829D3*
Y1631428D3*
Y1594026D3*
X2012669D3*
Y1631428D3*
Y1668829D3*
D87*
X1743850Y981192D3*
Y931192D3*
Y881192D3*
Y831192D3*
X1956449D3*
Y881192D3*
Y931192D3*
Y981192D3*
D68*
X912512Y1343790D3*
X722512D3*
D66*
X906252Y1475050D3*
Y1597097D3*
D64*
X2490189Y2056388D3*
X521685Y2056375D3*
Y520955D3*
M02*
