G04 DipTrace 2.4.0.2*
%INBottom.gbr*%
%MOIN*%
%ADD10C,0.0098*%
%ADD14C,0.013*%
%ADD15C,0.0157*%
%ADD17C,0.0633*%
%ADD22C,0.0787*%
%ADD23C,0.04*%
%ADD43C,0.0046*%
%FSLAX44Y44*%
G04*
G70*
G90*
G75*
G01*
%LNBottom*%
%LPD*%
X9145Y12326D2*
D14*
Y12252D1*
X9355Y12042D1*
X11167D1*
X11417Y11792D1*
Y11417D1*
X9667Y9667D1*
Y9292D1*
X9980Y8980D1*
Y8479D1*
X9730Y8229D1*
X9292D1*
X8792Y8730D1*
X8109D1*
X8087Y8752D1*
X7417Y9730D2*
Y9811D1*
X7023Y10205D1*
X5667Y10730D2*
Y10855D1*
X5166Y11355D1*
X5520Y11708D2*
Y11689D1*
X6042Y11167D1*
X6670Y9851D2*
X6292Y10229D1*
Y10417D1*
X8292Y12417D1*
Y12667D1*
X8542Y12917D1*
Y14230D1*
X8395Y14377D1*
Y14333D1*
X8792Y14730D1*
X10730D1*
X11355Y14105D1*
X13480Y8104D2*
D15*
Y8229D1*
X12667D1*
X12355Y8542D1*
Y11792D1*
X11355Y14105D2*
X11292D1*
Y13355D1*
X12355Y12292D1*
Y11792D1*
X6227Y12415D2*
D14*
Y12420D1*
X5792Y12855D1*
X7288Y13476D2*
X7296D1*
X7667Y13105D1*
X7917D1*
X8229Y13417D1*
Y13793D1*
X7979Y14043D1*
Y14668D1*
X8104Y14793D1*
X8479D1*
X8667Y14980D1*
X10855D1*
X11167Y14668D1*
X11480D1*
X11792Y14355D1*
X12042D1*
X12167Y14230D1*
X9064Y14377D2*
Y14315D1*
X8792Y14043D1*
Y12792D1*
X8542Y12542D1*
Y12222D1*
X8791Y11973D1*
X11812Y10980D2*
X11705Y10873D1*
X11622D1*
X7792Y10105D2*
Y10143D1*
X7377Y10559D1*
X8084Y11266D2*
Y11250D1*
X8792Y10542D1*
Y10167D1*
X9355Y9605D1*
Y8898D1*
X9501Y8752D1*
X10915Y11580D2*
Y11605D1*
X9792D1*
X9480Y11292D1*
X8764D1*
X8438Y11619D1*
X13953Y7631D2*
X13655D1*
X13253Y7229D1*
X13953Y7631D2*
Y8256D1*
X13418Y8792D1*
Y10855D1*
X13730Y11167D1*
X14355D1*
X14480Y11292D1*
X13253Y7229D2*
Y7542D1*
X12167D1*
X13855Y12667D2*
X12766Y13757D1*
X12641D1*
X12950Y13043D2*
D15*
Y13105D1*
X12355D1*
X12315Y13145D1*
D23*
X6042Y11167D3*
X5667Y10730D3*
X7417Y9730D3*
X5792Y12855D3*
X12167Y7542D3*
X7542Y14668D3*
X8104Y9542D3*
X9855Y4604D3*
X7792Y10105D3*
X12355Y11792D3*
X13230Y11542D3*
X10542Y7917D3*
X12980Y8855D3*
X8808Y15326D2*
D10*
X10877D1*
X8370Y15229D2*
X11315D1*
X8071Y15132D2*
X8458D1*
X11064D2*
X11613D1*
X7793Y15035D2*
X8041D1*
X11161D2*
X11892D1*
X7576Y14937D2*
X7889D1*
X11258D2*
X12110D1*
X7358Y14840D2*
X7792D1*
X11667D2*
X12327D1*
X7179Y14743D2*
X7733D1*
X11765D2*
X12505D1*
X7012Y14646D2*
X7722D1*
X11862D2*
X12009D1*
X12299D2*
X12673D1*
X6842Y14549D2*
X7722D1*
X12396D2*
X12842D1*
X6703Y14452D2*
X7722D1*
X12493D2*
X12982D1*
X6569Y14355D2*
X7353D1*
X7539D2*
X7722D1*
X12590D2*
X13116D1*
X6435Y14258D2*
X7244D1*
X7648D2*
X7722D1*
X12648D2*
X13250D1*
X6307Y14161D2*
X7147D1*
X12783D2*
X13377D1*
X6200Y14063D2*
X7090D1*
X12880D2*
X13485D1*
X6092Y13966D2*
X6952D1*
X12979D2*
X13593D1*
X5984Y13869D2*
X6855D1*
X13076D2*
X13700D1*
X5881Y13772D2*
X6764D1*
X13123D2*
X13803D1*
X5794Y13675D2*
X6734D1*
X13208D2*
X13891D1*
X5706Y13578D2*
X6564D1*
X13305D2*
X13979D1*
X5618Y13481D2*
X6468D1*
X13402D2*
X14066D1*
X5531Y13384D2*
X6392D1*
X13500D2*
X14154D1*
X5457Y13287D2*
X6280D1*
X13597D2*
X14228D1*
X5386Y13189D2*
X5596D1*
X5987D2*
X6175D1*
X13694D2*
X14298D1*
X5315Y13092D2*
X5482D1*
X13791D2*
X14369D1*
X5245Y12995D2*
X5425D1*
X8168D2*
X8259D1*
X13977D2*
X14440D1*
X5174Y12898D2*
X5402D1*
X8064D2*
X8162D1*
X14074D2*
X14511D1*
X5117Y12801D2*
X5403D1*
X7438D2*
X8073D1*
X12588D2*
X12744D1*
X13269D2*
X13360D1*
X14171D2*
X14569D1*
X5060Y12704D2*
X5429D1*
X7341D2*
X8036D1*
X12491D2*
X12841D1*
X13172D2*
X13426D1*
X14260D2*
X14625D1*
X5005Y12607D2*
X5491D1*
X7238D2*
X8035D1*
X12420D2*
X13468D1*
X14284D2*
X14680D1*
X4948Y12510D2*
X5496D1*
X7124D2*
X8024D1*
X12517D2*
X13136D1*
X13405D2*
X13563D1*
X14254D2*
X14737D1*
X4892Y12412D2*
X5399D1*
X7050D2*
X7927D1*
X12597D2*
X13039D1*
X13502D2*
X13660D1*
X14161D2*
X14792D1*
X4845Y12315D2*
X5328D1*
X6953D2*
X7830D1*
X12625D2*
X12942D1*
X13598D2*
X13757D1*
X14064D2*
X14840D1*
X4802Y12218D2*
X5208D1*
X6782D2*
X7732D1*
X12626D2*
X12899D1*
X13695D2*
X14883D1*
X4759Y12121D2*
X5108D1*
X6752D2*
X7635D1*
X12626D2*
X12911D1*
X13752D2*
X14927D1*
X4716Y12024D2*
X5011D1*
X6661D2*
X7538D1*
X12670D2*
X12991D1*
X13746D2*
X14971D1*
X4671Y11927D2*
X4967D1*
X6564D2*
X7441D1*
X12723D2*
X13088D1*
X13675D2*
X15014D1*
X4631Y11830D2*
X4816D1*
X6424D2*
X7344D1*
X12746D2*
X13185D1*
X13578D2*
X14262D1*
X14698D2*
X15055D1*
X4599Y11733D2*
X4719D1*
X6370D2*
X7247D1*
X12743D2*
X13302D1*
X13462D2*
X14099D1*
X14863D2*
X15086D1*
X4568Y11636D2*
X4632D1*
X6273D2*
X7150D1*
X12714D2*
X14008D1*
X14953D2*
X15118D1*
X4536Y11538D2*
X4613D1*
X6164D2*
X7052D1*
X12651D2*
X13949D1*
X15012D2*
X15149D1*
X4503Y11441D2*
X4647D1*
X6320D2*
X6955D1*
X12626D2*
X13914D1*
X15047D2*
X15181D1*
X4473Y11344D2*
X4742D1*
X6392D2*
X6858D1*
X12626D2*
X13546D1*
X15064D2*
X15212D1*
X4445Y11247D2*
X4839D1*
X6426D2*
X6761D1*
X12626D2*
X13450D1*
X15066D2*
X15240D1*
X4425Y11150D2*
X4936D1*
X6433D2*
X6664D1*
X12626D2*
X13353D1*
X15049D2*
X15260D1*
X4405Y11053D2*
X5033D1*
X6416D2*
X6567D1*
X12626D2*
X13256D1*
X15015D2*
X15281D1*
X4383Y10956D2*
X4574D1*
X6370D2*
X6471D1*
X12626D2*
X13182D1*
X14958D2*
X15301D1*
X4363Y10859D2*
X4574D1*
X6278D2*
X6372D1*
X12626D2*
X13160D1*
X13781D2*
X14089D1*
X14870D2*
X15321D1*
X4342Y10762D2*
X4574D1*
X6058D2*
X6275D1*
X12626D2*
X13160D1*
X13685D2*
X14135D1*
X14824D2*
X15343D1*
X4328Y10664D2*
X4574D1*
X6054D2*
X6178D1*
X11026D2*
X11158D1*
X12626D2*
X13160D1*
X13675D2*
X14029D1*
X14930D2*
X15358D1*
X4317Y10567D2*
X4574D1*
X6023D2*
X6085D1*
X8211D2*
X8407D1*
X12027D2*
X12084D1*
X12626D2*
X13160D1*
X13675D2*
X13963D1*
X14996D2*
X15367D1*
X4306Y10470D2*
X5376D1*
X5958D2*
X6040D1*
X8114D2*
X8504D1*
X11928D2*
X12084D1*
X12626D2*
X13160D1*
X13675D2*
X13922D1*
X15038D2*
X15378D1*
X4297Y10373D2*
X5517D1*
X5817D2*
X6034D1*
X8074D2*
X8534D1*
X11379D2*
X12084D1*
X12626D2*
X13160D1*
X13675D2*
X13899D1*
X15061D2*
X15389D1*
X4286Y10276D2*
X4976D1*
X5983D2*
X6034D1*
X8144D2*
X8534D1*
X11412D2*
X12084D1*
X12626D2*
X13160D1*
X13675D2*
X13894D1*
X15067D2*
X15398D1*
X4276Y10179D2*
X4902D1*
X8177D2*
X8534D1*
X11424D2*
X12084D1*
X12626D2*
X13160D1*
X13675D2*
X13905D1*
X15055D2*
X15409D1*
X4273Y10082D2*
X4893D1*
X8184D2*
X8550D1*
X11418D2*
X12084D1*
X12626D2*
X13160D1*
X13675D2*
X13934D1*
X15027D2*
X15413D1*
X4273Y9985D2*
X4893D1*
X6066D2*
X6126D1*
X8165D2*
X8614D1*
X10346D2*
X10440D1*
X11390D2*
X12084D1*
X12626D2*
X13160D1*
X13675D2*
X13982D1*
X14978D2*
X15413D1*
X4273Y9888D2*
X4893D1*
X6066D2*
X6198D1*
X8117D2*
X8528D1*
X11339D2*
X12084D1*
X12626D2*
X13160D1*
X13675D2*
X14059D1*
X14901D2*
X15413D1*
X4273Y9790D2*
X4893D1*
X6066D2*
X6295D1*
X8020D2*
X8410D1*
X11255D2*
X12084D1*
X12626D2*
X13160D1*
X13675D2*
X13926D1*
X15033D2*
X15413D1*
X4273Y9693D2*
X4893D1*
X6066D2*
X6392D1*
X7808D2*
X8344D1*
X10658D2*
X10743D1*
X11087D2*
X12084D1*
X12626D2*
X13160D1*
X13675D2*
X13894D1*
X15067D2*
X15413D1*
X4273Y9596D2*
X4893D1*
X6066D2*
X6489D1*
X7785D2*
X8304D1*
X10698D2*
X12084D1*
X12626D2*
X13160D1*
X13675D2*
X13894D1*
X15067D2*
X15413D1*
X4277Y9499D2*
X4893D1*
X6066D2*
X6586D1*
X7733D2*
X8285D1*
X10715D2*
X12084D1*
X12626D2*
X13160D1*
X13675D2*
X13894D1*
X15067D2*
X15407D1*
X4288Y9402D2*
X4893D1*
X6066D2*
X6683D1*
X7045D2*
X7209D1*
X7625D2*
X8288D1*
X10713D2*
X12084D1*
X12626D2*
X13160D1*
X13675D2*
X13894D1*
X15067D2*
X15398D1*
X4297Y9305D2*
X4896D1*
X6063D2*
X7924D1*
X8250D2*
X8308D1*
X10693D2*
X12084D1*
X12626D2*
X13160D1*
X13675D2*
X13894D1*
X15067D2*
X15387D1*
X4308Y9208D2*
X4945D1*
X6014D2*
X7827D1*
X10650D2*
X12084D1*
X12626D2*
X13160D1*
X13675D2*
X13894D1*
X15067D2*
X15377D1*
X4317Y9111D2*
X5037D1*
X5921D2*
X7730D1*
X10576D2*
X12084D1*
X12626D2*
X13160D1*
X13675D2*
X13894D1*
X15067D2*
X15367D1*
X4328Y9014D2*
X4968D1*
X5990D2*
X7632D1*
X10444D2*
X12084D1*
X12626D2*
X13160D1*
X13675D2*
X13894D1*
X15067D2*
X15357D1*
X4343Y8916D2*
X4923D1*
X6035D2*
X7535D1*
X10238D2*
X12084D1*
X12626D2*
X13160D1*
X13675D2*
X13894D1*
X15067D2*
X15341D1*
X4365Y8819D2*
X4900D1*
X6058D2*
X7459D1*
X10238D2*
X12084D1*
X12626D2*
X13160D1*
X13751D2*
X13911D1*
X15049D2*
X15320D1*
X4385Y8722D2*
X4893D1*
X6066D2*
X7449D1*
X10238D2*
X12084D1*
X12626D2*
X13170D1*
X13848D2*
X14028D1*
X14933D2*
X15300D1*
X4406Y8625D2*
X4902D1*
X6057D2*
X7496D1*
X10238D2*
X12084D1*
X12651D2*
X13225D1*
X13944D2*
X15280D1*
X4426Y8528D2*
X4930D1*
X6029D2*
X7593D1*
X10238D2*
X12084D1*
X12750D2*
X13320D1*
X14041D2*
X15258D1*
X4446Y8431D2*
X4976D1*
X5983D2*
X7692D1*
X10232D2*
X12109D1*
X14140D2*
X15238D1*
X4474Y8334D2*
X5050D1*
X5909D2*
X7789D1*
X10190D2*
X12184D1*
X14198D2*
X15210D1*
X4506Y8237D2*
X5170D1*
X5789D2*
X7885D1*
X10097D2*
X12281D1*
X14211D2*
X15178D1*
X4537Y8140D2*
X5063D1*
X5895D2*
X7996D1*
X8177D2*
X8293D1*
X10000D2*
X12378D1*
X14211D2*
X15147D1*
X4569Y8042D2*
X4985D1*
X5974D2*
X8284D1*
X9903D2*
X12475D1*
X14211D2*
X15115D1*
X4602Y7945D2*
X4934D1*
X6024D2*
X8295D1*
X9294D2*
X12754D1*
X14211D2*
X15084D1*
X4633Y7848D2*
X4905D1*
X6054D2*
X8325D1*
X9263D2*
X11927D1*
X12407D2*
X12658D1*
X14283D2*
X15052D1*
X4674Y7751D2*
X4893D1*
X6066D2*
X8379D1*
X9208D2*
X11836D1*
X14380D2*
X15011D1*
X4719Y7654D2*
X4897D1*
X6061D2*
X8473D1*
X9115D2*
X11792D1*
X14435D2*
X14967D1*
X4762Y7557D2*
X4919D1*
X6040D2*
X8676D1*
X8912D2*
X11775D1*
X14427D2*
X14924D1*
X4805Y7460D2*
X4960D1*
X5998D2*
X11784D1*
X14357D2*
X14880D1*
X4848Y7363D2*
X5025D1*
X5934D2*
X11819D1*
X14260D2*
X14837D1*
X4895Y7266D2*
X5126D1*
X5832D2*
X9568D1*
X10141D2*
X11893D1*
X14163D2*
X14789D1*
X4952Y7168D2*
X5336D1*
X5621D2*
X9334D1*
X10375D2*
X12073D1*
X12262D2*
X12516D1*
X14112D2*
X14732D1*
X5008Y7071D2*
X9193D1*
X10516D2*
X12613D1*
X14177D2*
X14677D1*
X5065Y6974D2*
X9088D1*
X10621D2*
X11782D1*
X12134D2*
X12711D1*
X14178D2*
X14620D1*
X5120Y6877D2*
X9008D1*
X10701D2*
X11686D1*
X12231D2*
X12808D1*
X14115D2*
X14565D1*
X5180Y6780D2*
X8945D1*
X10764D2*
X11589D1*
X12328D2*
X12905D1*
X14018D2*
X14506D1*
X5251Y6683D2*
X8897D1*
X10813D2*
X11492D1*
X12425D2*
X13002D1*
X13921D2*
X14435D1*
X5320Y6586D2*
X8860D1*
X10849D2*
X11395D1*
X12523D2*
X13099D1*
X13824D2*
X14365D1*
X5391Y6489D2*
X8834D1*
X10875D2*
X11297D1*
X12620D2*
X13196D1*
X13728D2*
X14294D1*
X5461Y6392D2*
X8817D1*
X10892D2*
X11241D1*
X12717D2*
X13293D1*
X13631D2*
X14223D1*
X5538Y6294D2*
X8811D1*
X10899D2*
X11246D1*
X12814D2*
X14148D1*
X5624Y6197D2*
X8813D1*
X10896D2*
X11317D1*
X12911D2*
X14060D1*
X5712Y6100D2*
X8824D1*
X10886D2*
X11413D1*
X13008D2*
X13972D1*
X5800Y6003D2*
X8845D1*
X10864D2*
X11510D1*
X13085D2*
X13885D1*
X5887Y5906D2*
X8876D1*
X10833D2*
X11607D1*
X13096D2*
X13797D1*
X5992Y5809D2*
X8917D1*
X10792D2*
X11704D1*
X13048D2*
X13693D1*
X6100Y5712D2*
X8973D1*
X10736D2*
X11802D1*
X12951D2*
X13585D1*
X6207Y5615D2*
X9043D1*
X10666D2*
X11899D1*
X12854D2*
X13477D1*
X6315Y5517D2*
X9133D1*
X10576D2*
X11996D1*
X12756D2*
X13370D1*
X6444Y5420D2*
X9253D1*
X10457D2*
X12093D1*
X12659D2*
X13240D1*
X6578Y5323D2*
X9423D1*
X10286D2*
X12190D1*
X12562D2*
X13107D1*
X6712Y5226D2*
X12333D1*
X12420D2*
X12973D1*
X6855Y5129D2*
X12830D1*
X7024Y5032D2*
X12662D1*
X7192Y4935D2*
X12493D1*
X7373Y4838D2*
X12312D1*
X7591Y4741D2*
X12093D1*
X7810Y4643D2*
X11876D1*
X8093Y4546D2*
X11592D1*
X8391Y4449D2*
X11293D1*
X8842Y4352D2*
X10843D1*
X14077Y7193D2*
X14120Y7150D1*
X14150Y7111D1*
X14168Y7065D1*
X14174Y7017D1*
X14166Y6968D1*
X14142Y6917D1*
X14085Y6856D1*
X13591Y6362D1*
X13552Y6332D1*
X13507Y6314D1*
X13458Y6309D1*
X13410Y6316D1*
X13358Y6341D1*
X13298Y6397D1*
X12431Y7264D1*
X12365Y7214D1*
X12322Y7191D1*
X12275Y7174D1*
X12228Y7164D1*
X12179Y7159D1*
X12129Y7161D1*
X12081Y7169D1*
X12034Y7183D1*
X11989Y7203D1*
X11947Y7229D1*
X11909Y7259D1*
X11875Y7295D1*
X11845Y7334D1*
X11821Y7377D1*
X11803Y7423D1*
X11791Y7471D1*
X11785Y7520D1*
Y7569D1*
X11792Y7617D1*
X11805Y7665D1*
X11823Y7710D1*
X11848Y7753D1*
X11877Y7792D1*
X11912Y7827D1*
X11951Y7858D1*
X11993Y7883D1*
X12038Y7902D1*
X12085Y7916D1*
X12134Y7923D1*
X12183Y7925D1*
X12232Y7919D1*
X12280Y7908D1*
X12326Y7891D1*
X12369Y7867D1*
X12409Y7839D1*
X12458Y7790D1*
X12609D1*
X12785Y7967D1*
X12667Y7968D1*
X12618Y7972D1*
X12571Y7986D1*
X12527Y8008D1*
X12482Y8044D1*
X12170Y8357D1*
X12138Y8395D1*
X12115Y8438D1*
X12099Y8484D1*
X12093Y8542D1*
Y10706D1*
X12062Y10637D1*
X12008Y10555D1*
X11938Y10486D1*
X11856Y10431D1*
X11765Y10394D1*
X11669Y10375D1*
X11570Y10376D1*
X11474Y10396D1*
X11384Y10434D1*
X11302Y10489D1*
X11233Y10559D1*
X11179Y10641D1*
X11143Y10732D1*
X11131Y10782D1*
X11007Y10656D1*
X11040Y10650D1*
X11105Y10628D1*
X11167Y10597D1*
X11224Y10559D1*
X11275Y10512D1*
X11319Y10460D1*
X11356Y10401D1*
X11384Y10339D1*
X11403Y10273D1*
X11413Y10204D1*
X11414Y10136D1*
X11405Y10068D1*
X11387Y10002D1*
X11360Y9938D1*
X11324Y9879D1*
X11281Y9826D1*
X11231Y9779D1*
X11175Y9739D1*
X11114Y9707D1*
X11049Y9684D1*
X10981Y9671D1*
X10912Y9666D1*
X10844Y9671D1*
X10776Y9686D1*
X10712Y9709D1*
X10651Y9742D1*
X10595Y9782D1*
X10545Y9830D1*
X10503Y9884D1*
X10468Y9943D1*
X10442Y10006D1*
X10424Y10073D1*
X10300Y9949D1*
X10361Y9934D1*
X10451Y9895D1*
X10532Y9839D1*
X10600Y9768D1*
X10653Y9686D1*
X10689Y9594D1*
X10706Y9497D1*
X10705Y9409D1*
X10686Y9313D1*
X10648Y9222D1*
X10593Y9141D1*
X10524Y9071D1*
X10442Y9017D1*
X10351Y8980D1*
X10254Y8961D1*
X10228Y8960D1*
Y8479D1*
X10223Y8431D1*
X10208Y8384D1*
X10185Y8340D1*
X10155Y8304D1*
X9905Y8054D1*
X9867Y8023D1*
X9824Y8000D1*
X9776Y7986D1*
X9730Y7981D1*
X9291Y7982D1*
X9272Y7899D1*
X9234Y7808D1*
X9179Y7727D1*
X9110Y7657D1*
X9028Y7603D1*
X8937Y7566D1*
X8840Y7547D1*
X8742D1*
X8646Y7567D1*
X8555Y7605D1*
X8474Y7661D1*
X8405Y7731D1*
X8351Y7813D1*
X8314Y7904D1*
X8296Y8000D1*
X8297Y8099D1*
X8317Y8195D1*
X8356Y8285D1*
X8412Y8366D1*
X8482Y8435D1*
X8553Y8481D1*
X8523D1*
X8216Y8174D1*
X8177Y8145D1*
X8132Y8126D1*
X8083Y8121D1*
X8034Y8128D1*
X7983Y8153D1*
X7922Y8209D1*
X7510Y8622D1*
X7480Y8661D1*
X7462Y8707D1*
X7456Y8755D1*
X7464Y8804D1*
X7488Y8855D1*
X7544Y8916D1*
X7957Y9329D1*
X7996Y9358D1*
X8042Y9377D1*
X8090Y9382D1*
X8139Y9375D1*
X8190Y9350D1*
X8251Y9294D1*
X8567Y8977D1*
X8661Y8978D1*
X8600Y8998D1*
X8513Y9045D1*
X8438Y9108D1*
X8376Y9185D1*
X8330Y9272D1*
X8303Y9366D1*
X8294Y9464D1*
X8305Y9562D1*
X8334Y9655D1*
X8382Y9741D1*
X8445Y9816D1*
X8522Y9878D1*
X8609Y9923D1*
X8666Y9941D1*
X8617Y9992D1*
X8586Y10030D1*
X8562Y10073D1*
X8548Y10120D1*
X8544Y10167D1*
Y10439D1*
X8275Y10706D1*
X8268Y10667D1*
X8254Y10631D1*
X8231Y10598D1*
X8048Y10414D1*
X8034Y10402D1*
X8070Y10368D1*
X8101Y10331D1*
X8128Y10289D1*
X8149Y10244D1*
X8164Y10198D1*
X8172Y10149D1*
X8175Y10105D1*
X8172Y10056D1*
X8162Y10007D1*
X8147Y9961D1*
X8126Y9916D1*
X8099Y9875D1*
X8067Y9838D1*
X8030Y9805D1*
X7990Y9777D1*
X7946Y9754D1*
X7900Y9737D1*
X7852Y9726D1*
X7798Y9722D1*
X7797Y9681D1*
X7787Y9632D1*
X7772Y9586D1*
X7750Y9541D1*
X7724Y9500D1*
X7692Y9463D1*
X7655Y9430D1*
X7615Y9402D1*
X7571Y9379D1*
X7525Y9362D1*
X7477Y9351D1*
X7428Y9347D1*
X7379Y9348D1*
X7330Y9356D1*
X7283Y9371D1*
X7238Y9391D1*
X7196Y9416D1*
X7158Y9447D1*
X7121Y9486D1*
X6994Y9360D1*
X6955Y9330D1*
X6910Y9312D1*
X6861Y9306D1*
X6812Y9314D1*
X6761Y9339D1*
X6700Y9395D1*
X6178Y9917D1*
X6149Y9956D1*
X6129Y10010D1*
X6116Y10054D1*
X6085Y10092D1*
X6062Y10135D1*
X6048Y10183D1*
X6044Y10229D1*
Y10417D1*
X6049Y10466D1*
X6063Y10513D1*
X6086Y10556D1*
X6116Y10593D1*
X8044Y12521D1*
Y12667D1*
X8049Y12716D1*
X8063Y12763D1*
X8087Y12806D1*
X8117Y12843D1*
X8294Y13020D1*
Y13131D1*
X8092Y12930D1*
X8054Y12898D1*
X8011Y12875D1*
X7964Y12861D1*
X7917Y12857D1*
X7667D1*
X7618Y12862D1*
X7571Y12876D1*
X7528Y12900D1*
X7490Y12931D1*
X7479Y12924D1*
X7472Y12875D1*
X7447Y12824D1*
X7391Y12763D1*
X7259Y12631D1*
X7220Y12601D1*
X7165Y12581D1*
X7126Y12570D1*
X7118Y12522D1*
X7094Y12471D1*
X7037Y12410D1*
X6905Y12278D1*
X6866Y12248D1*
X6811Y12228D1*
X6772Y12217D1*
X6764Y12168D1*
X6740Y12117D1*
X6684Y12056D1*
X6551Y11924D1*
X6512Y11894D1*
X6458Y11874D1*
X6419Y11863D1*
X6411Y11815D1*
X6386Y11763D1*
X6330Y11703D1*
X6198Y11570D1*
X6151Y11537D1*
X6200Y11516D1*
X6244Y11493D1*
X6284Y11464D1*
X6320Y11431D1*
X6351Y11393D1*
X6378Y11352D1*
X6398Y11307D1*
X6413Y11260D1*
X6422Y11212D1*
X6425Y11167D1*
X6422Y11118D1*
X6412Y11070D1*
X6397Y11023D1*
X6375Y10979D1*
X6348Y10938D1*
X6317Y10900D1*
X6280Y10867D1*
X6240Y10839D1*
X6196Y10817D1*
X6150Y10800D1*
X6102Y10789D1*
X6045Y10785D1*
X6050Y10730D1*
X6047Y10681D1*
X6037Y10632D1*
X6022Y10586D1*
X6000Y10541D1*
X5973Y10500D1*
X5941Y10463D1*
X5905Y10430D1*
X5865Y10402D1*
X5821Y10379D1*
X5775Y10362D1*
X5727Y10351D1*
X5678Y10347D1*
X5629Y10349D1*
X5580Y10357D1*
X5533Y10371D1*
X5488Y10391D1*
X5446Y10416D1*
X5408Y10447D1*
X5374Y10483D1*
X5332Y10545D1*
X4585Y10544D1*
Y11029D1*
X5066D1*
X4675Y11420D1*
X4645Y11459D1*
X4627Y11505D1*
X4622Y11553D1*
X4629Y11602D1*
X4654Y11653D1*
X4710Y11714D1*
X4842Y11846D1*
X4881Y11876D1*
X4936Y11896D1*
X4975Y11907D1*
X4983Y11955D1*
X5007Y12007D1*
X5063Y12067D1*
X5196Y12200D1*
X5235Y12229D1*
X5289Y12249D1*
X5329Y12261D1*
X5336Y12309D1*
X5361Y12360D1*
X5417Y12421D1*
X5550Y12554D1*
X5499Y12608D1*
X5470Y12648D1*
X5446Y12690D1*
X5428Y12736D1*
X5415Y12784D1*
X5409Y12833D1*
X5410Y12882D1*
X5416Y12931D1*
X5429Y12978D1*
X5448Y13023D1*
X5472Y13066D1*
X5502Y13105D1*
X5536Y13140D1*
X5575Y13171D1*
X5617Y13196D1*
X5662Y13216D1*
X5710Y13229D1*
X5758Y13237D1*
X5807Y13238D1*
X5856Y13233D1*
X5904Y13221D1*
X5950Y13204D1*
X5993Y13181D1*
X6034Y13152D1*
X6070Y13119D1*
X6090Y13094D1*
X6256Y13260D1*
X6295Y13290D1*
X6350Y13310D1*
X6389Y13321D1*
X6397Y13370D1*
X6421Y13421D1*
X6478Y13482D1*
X6610Y13614D1*
X6649Y13644D1*
X6704Y13664D1*
X6743Y13675D1*
X6750Y13723D1*
X6775Y13774D1*
X6831Y13835D1*
X6963Y13967D1*
X7002Y13997D1*
X7057Y14017D1*
X7096Y14026D1*
X7101Y14065D1*
X7114Y14102D1*
X7134Y14136D1*
X7199Y14203D1*
X7339Y14340D1*
X7374Y14359D1*
X7411Y14371D1*
X7450Y14375D1*
X7489Y14370D1*
X7526Y14356D1*
X7560Y14335D1*
X7652Y14244D1*
X7731Y14165D1*
Y14668D1*
X7736Y14717D1*
X7751Y14763D1*
X7774Y14807D1*
X7804Y14843D1*
X7929Y14968D1*
X7967Y14999D1*
X8010Y15022D1*
X8058Y15036D1*
X8104Y15041D1*
X8377D1*
X8492Y15156D1*
X8530Y15187D1*
X8573Y15210D1*
X8620Y15224D1*
X8667Y15228D1*
X10855D1*
X10904Y15223D1*
X10951Y15209D1*
X10994Y15186D1*
X11030Y15156D1*
X11270Y14915D1*
X11480Y14916D1*
X11529Y14911D1*
X11576Y14896D1*
X11619Y14873D1*
X11655Y14843D1*
X11896Y14603D1*
X11975D1*
X12024Y14652D1*
X12063Y14682D1*
X12109Y14700D1*
X12157Y14705D1*
X12206Y14698D1*
X12257Y14673D1*
X12318Y14617D1*
X12589Y14346D1*
X12619Y14307D1*
X12639Y14252D1*
X12679Y14225D1*
X12730Y14200D1*
X12791Y14144D1*
X13062Y13872D1*
X13092Y13833D1*
X13112Y13779D1*
X13150Y13723D1*
X13786Y13087D1*
X13852Y13079D1*
X13903Y13055D1*
X13964Y12999D1*
X14221Y12741D1*
X14251Y12702D1*
X14269Y12657D1*
X14275Y12608D1*
X14267Y12559D1*
X14243Y12508D1*
X14186Y12447D1*
X14040Y12301D1*
X14001Y12272D1*
X13956Y12253D1*
X13907Y12248D1*
X13858Y12255D1*
X13807Y12280D1*
X13746Y12336D1*
X13489Y12594D1*
X13459Y12633D1*
X13441Y12678D1*
X13436Y12736D1*
X13315Y12856D1*
X13135Y12677D1*
X13096Y12647D1*
X13051Y12629D1*
X13002Y12624D1*
X12954Y12631D1*
X12902Y12656D1*
X12842Y12712D1*
X12710Y12844D1*
X12620Y12843D1*
X12397Y12619D1*
X12540Y12478D1*
X12571Y12440D1*
X12595Y12397D1*
X12610Y12350D1*
X12617Y12292D1*
Y12072D1*
X12664Y12018D1*
X12691Y11977D1*
X12712Y11932D1*
X12727Y11885D1*
X12735Y11837D1*
X12738Y11792D1*
X12735Y11743D1*
X12725Y11695D1*
X12710Y11648D1*
X12688Y11604D1*
X12662Y11563D1*
X12617Y11514D1*
Y8650D1*
X12776Y8491D1*
X13302D1*
X13336Y8525D1*
X13242Y8617D1*
X13211Y8655D1*
X13188Y8698D1*
X13174Y8745D1*
X13169Y8792D1*
Y10855D1*
X13174Y10904D1*
X13189Y10951D1*
X13212Y10994D1*
X13242Y11030D1*
X13555Y11343D1*
X13593Y11374D1*
X13636Y11397D1*
X13683Y11411D1*
X13730Y11415D1*
X13916D1*
X13940Y11493D1*
X13982Y11582D1*
X14038Y11663D1*
X14108Y11732D1*
X14188Y11789D1*
X14276Y11832D1*
X14371Y11858D1*
X14469Y11869D1*
X14567Y11862D1*
X14663Y11839D1*
X14753Y11800D1*
X14835Y11747D1*
X14907Y11680D1*
X14967Y11602D1*
X15012Y11514D1*
X15042Y11421D1*
X15056Y11323D1*
X15055Y11243D1*
X15038Y11146D1*
X15005Y11053D1*
X14957Y10968D1*
X14895Y10891D1*
X14821Y10827D1*
X14768Y10793D1*
X14835Y10747D1*
X14894Y10694D1*
X14945Y10634D1*
X14987Y10568D1*
X15020Y10496D1*
X15042Y10421D1*
X15055Y10343D1*
X15057Y10272D1*
X15049Y10194D1*
X15030Y10118D1*
X15001Y10044D1*
X14962Y9976D1*
X14915Y9913D1*
X14872Y9869D1*
X14922Y9862D1*
X14968Y9843D1*
X15006Y9812D1*
X15035Y9773D1*
X15054Y9719D1*
X15057Y9637D1*
Y8898D1*
X15050Y8850D1*
X15031Y8805D1*
X15000Y8766D1*
X14961Y8737D1*
X14907Y8718D1*
X14825Y8715D1*
X14086D1*
X14038Y8722D1*
X13993Y8741D1*
X13954Y8772D1*
X13925Y8811D1*
X13906Y8865D1*
X13903Y8948D1*
Y9686D1*
X13910Y9734D1*
X13929Y9780D1*
X13960Y9818D1*
X13999Y9847D1*
X14053Y9866D1*
X14087Y9870D1*
X14033Y9927D1*
X13988Y9992D1*
X13951Y10061D1*
X13925Y10136D1*
X13909Y10213D1*
X13903Y10291D1*
X13909Y10370D1*
X13924Y10447D1*
X13951Y10521D1*
X13987Y10591D1*
X14032Y10655D1*
X14086Y10713D1*
X14146Y10763D1*
X14193Y10792D1*
X14132Y10832D1*
X14059Y10898D1*
X14040Y10920D1*
X13834Y10919D1*
X13665Y10752D1*
X13666Y8894D1*
X14129Y8432D1*
X14160Y8394D1*
X14183Y8350D1*
X14197Y8303D1*
X14201Y8256D1*
Y7919D1*
X14375Y7747D1*
X14405Y7708D1*
X14423Y7662D1*
X14429Y7613D1*
X14421Y7565D1*
X14397Y7514D1*
X14340Y7453D1*
X14090Y7203D1*
X14154Y7104D1*
X14170Y7058D1*
X14174Y7009D1*
X14164Y6961D1*
X14142Y6917D1*
X12095Y7004D2*
X13054Y6042D1*
X13073Y6008D1*
X13085Y5970D1*
X13088Y5931D1*
X13083Y5892D1*
X13070Y5855D1*
X13049Y5822D1*
X12958Y5729D1*
X12483Y5257D1*
X12449Y5238D1*
X12411Y5226D1*
X12372Y5223D1*
X12333Y5228D1*
X12296Y5241D1*
X12263Y5262D1*
X12170Y5353D1*
X11281Y6245D1*
X11262Y6280D1*
X11250Y6317D1*
X11247Y6356D1*
X11252Y6395D1*
X11265Y6432D1*
X11286Y6466D1*
X11377Y6558D1*
X11852Y7030D1*
X11886Y7049D1*
X11923Y7061D1*
X11962Y7064D1*
X12001Y7059D1*
X12038Y7046D1*
X12072Y7025D1*
X12095Y7004D1*
X10888Y6219D2*
X10879Y6121D1*
X10860Y6025D1*
X10833Y5930D1*
X10796Y5839D1*
X10751Y5751D1*
X10698Y5669D1*
X10637Y5591D1*
X10569Y5520D1*
X10495Y5456D1*
X10415Y5398D1*
X10330Y5349D1*
X10240Y5308D1*
X10147Y5276D1*
X10052Y5253D1*
X9954Y5238D1*
X9856Y5234D1*
X9758Y5238D1*
X9660Y5252D1*
X9565Y5275D1*
X9472Y5307D1*
X9382Y5348D1*
X9297Y5397D1*
X9217Y5454D1*
X9142Y5518D1*
X9074Y5589D1*
X9013Y5666D1*
X8960Y5749D1*
X8914Y5836D1*
X8878Y5928D1*
X8850Y6022D1*
X8831Y6119D1*
X8821Y6216D1*
Y6315D1*
X8830Y6413D1*
X8848Y6509D1*
X8876Y6604D1*
X8912Y6695D1*
X8957Y6783D1*
X9010Y6866D1*
X9070Y6943D1*
X9138Y7015D1*
X9212Y7080D1*
X9292Y7137D1*
X9377Y7186D1*
X9467Y7228D1*
X9559Y7260D1*
X9655Y7284D1*
X9752Y7298D1*
X9851Y7303D1*
X9949Y7299D1*
X10046Y7285D1*
X10142Y7263D1*
X10235Y7231D1*
X10325Y7190D1*
X10410Y7142D1*
X10491Y7085D1*
X10565Y7021D1*
X10633Y6950D1*
X10695Y6873D1*
X10748Y6790D1*
X10794Y6703D1*
X10831Y6612D1*
X10859Y6518D1*
X10878Y6421D1*
X10888Y6323D1*
Y6219D1*
X13685Y11946D2*
X13489Y11753D1*
X13455Y11734D1*
X13417Y11722D1*
X13378Y11719D1*
X13339Y11724D1*
X13302Y11737D1*
X13269Y11758D1*
X13176Y11849D1*
X12941Y12087D1*
X12922Y12121D1*
X12910Y12159D1*
X12906Y12198D1*
X12911Y12237D1*
X12925Y12274D1*
X12946Y12307D1*
X13037Y12400D1*
X13163Y12524D1*
X13198Y12543D1*
X13235Y12555D1*
X13274Y12558D1*
X13313Y12553D1*
X13350Y12540D1*
X13384Y12519D1*
X13476Y12428D1*
X13711Y12190D1*
X13731Y12156D1*
X13742Y12118D1*
X13746Y12079D1*
X13741Y12040D1*
X13727Y12003D1*
X13707Y11970D1*
X13685Y11946D1*
X4902Y9385D2*
Y10123D1*
X4909Y10172D1*
X4928Y10217D1*
X4959Y10255D1*
X4998Y10284D1*
X5052Y10303D1*
X5135Y10306D1*
X5873D1*
X5921Y10300D1*
X5967Y10280D1*
X6005Y10250D1*
X6034Y10210D1*
X6053Y10157D1*
X6056Y10074D1*
Y9336D1*
X6049Y9287D1*
X6030Y9242D1*
X6000Y9204D1*
X5960Y9175D1*
X5906Y9156D1*
X5872Y9152D1*
X5926Y9095D1*
X5971Y9031D1*
X6007Y8961D1*
X6034Y8887D1*
X6050Y8810D1*
X6056Y8731D1*
X6052Y8661D1*
X6037Y8583D1*
X6012Y8509D1*
X5977Y8438D1*
X5933Y8373D1*
X5880Y8315D1*
X5820Y8264D1*
X5767Y8230D1*
X5834Y8184D1*
X5906Y8117D1*
X5966Y8039D1*
X6011Y7952D1*
X6041Y7858D1*
X6055Y7761D1*
X6054Y7680D1*
X6037Y7583D1*
X6004Y7491D1*
X5956Y7405D1*
X5894Y7329D1*
X5820Y7264D1*
X5736Y7213D1*
X5645Y7177D1*
X5548Y7157D1*
X5450Y7153D1*
X5353Y7167D1*
X5259Y7196D1*
X5172Y7242D1*
X5093Y7301D1*
X5026Y7373D1*
X4972Y7455D1*
X4933Y7545D1*
X4909Y7640D1*
X4902Y7738D1*
X4912Y7836D1*
X4939Y7931D1*
X4981Y8020D1*
X5037Y8100D1*
X5107Y8170D1*
X5187Y8227D1*
X5191Y8229D1*
X5131Y8270D1*
X5072Y8321D1*
X5020Y8380D1*
X4977Y8446D1*
X4943Y8517D1*
X4919Y8592D1*
X4906Y8670D1*
X4903Y8748D1*
X4911Y8826D1*
X4929Y8903D1*
X4958Y8976D1*
X4996Y9045D1*
X5044Y9108D1*
X5088Y9153D1*
X5037Y9159D1*
X4992Y9179D1*
X4953Y9209D1*
X4924Y9249D1*
X4906Y9302D1*
X4902Y9385D1*
X5890Y5892D2*
X6327Y5499D1*
X6800Y5155D1*
X7306Y4863D1*
X7841Y4625D1*
X8397Y4444D1*
X8969Y4323D1*
X9551Y4262D1*
X10136D1*
X10718Y4323D1*
X11290Y4445D1*
X11846Y4626D1*
X12380Y4864D1*
X12887Y5156D1*
X13360Y5500D1*
X13795Y5892D1*
X14186Y6327D1*
X14530Y6800D1*
X14822Y7306D1*
X15060Y7841D1*
X15241Y8397D1*
X15362Y8969D1*
X15423Y9551D1*
Y10136D1*
X15362Y10718D1*
X15240Y11290D1*
X15059Y11846D1*
X14821Y12380D1*
X14529Y12887D1*
X14185Y13360D1*
X13793Y13795D1*
X13358Y14186D1*
X12885Y14530D1*
X12379Y14822D1*
X11844Y15060D1*
X11288Y15241D1*
X10716Y15362D1*
X10134Y15423D1*
X9549D1*
X8967Y15362D1*
X8395Y15240D1*
X7839Y15059D1*
X7305Y14821D1*
X6798Y14529D1*
X6325Y14185D1*
X5890Y13793D1*
X5499Y13358D1*
X5155Y12885D1*
X4863Y12379D1*
X4625Y11844D1*
X4444Y11288D1*
X4323Y10716D1*
X4262Y10134D1*
Y9549D1*
X4323Y8967D1*
X4445Y8395D1*
X4626Y7839D1*
X4864Y7305D1*
X5156Y6798D1*
X5500Y6325D1*
X5892Y5890D1*
X11565Y6746D2*
D14*
X12770Y5541D1*
X12561Y6538D2*
X11773Y5750D1*
X10915Y10166D2*
X11268Y9813D1*
Y10519D2*
X10562Y9813D1*
X13051Y12414D2*
X13602Y11863D1*
X13546Y12358D2*
X13106Y11919D1*
X7234Y14237D2*
X7641Y13830D1*
X7730Y10912D2*
X8138Y10504D1*
X14072Y10700D2*
X14888Y9884D1*
Y10700D2*
X14072Y9884D1*
X5071Y9137D2*
X5887Y8322D1*
Y9137D2*
X5071Y8322D1*
G36*
X13044Y7967D2*
X13991Y7021D1*
X13462Y6492D1*
X12515Y7438D1*
X13044Y7967D1*
G37*
G36*
X11959Y6881D2*
X12905Y5935D1*
X12376Y5406D1*
X11430Y6352D1*
X11959Y6881D1*
G37*
G36*
X7639Y8752D2*
X8087Y9199D1*
X8534Y8752D1*
X8087Y8304D1*
X7639Y8752D1*
G37*
D17*
X8794Y8044D3*
Y9459D3*
X9501Y8752D3*
Y10166D3*
X10208Y9459D3*
Y10873D3*
X10915Y10166D3*
Y11580D3*
X11622Y10873D3*
G36*
X10958Y14056D2*
X11403Y14502D1*
X11751Y14154D1*
X11306Y13708D1*
X10958Y14056D1*
G37*
G36*
X11919Y13096D2*
X12364Y13541D1*
X12712Y13193D1*
X12267Y12748D1*
X11919Y13096D1*
G37*
G36*
X14092Y12612D2*
X13911Y12431D1*
X13618Y12723D1*
X13799Y12904D1*
X14092Y12612D1*
G37*
G36*
X13563Y12083D2*
X13382Y11902D1*
X13089Y12194D1*
X13270Y12375D1*
X13563Y12083D1*
G37*
G36*
X13187Y12988D2*
X13006Y12807D1*
X12714Y13099D1*
X12895Y13280D1*
X13187Y12988D1*
G37*
G36*
X9281Y14574D2*
Y14180D1*
X8848D1*
Y14574D1*
X9281D1*
G37*
G36*
X8611D2*
Y14180D1*
X8178D1*
Y14574D1*
X8611D1*
G37*
G36*
X13188Y8118D2*
X13466Y8397D1*
X13772Y8091D1*
X13494Y7812D1*
X13188Y8118D1*
G37*
G36*
X13661Y7645D2*
X13939Y7923D1*
X14246Y7617D1*
X13967Y7339D1*
X13661Y7645D1*
G37*
G36*
X11875Y14244D2*
X12153Y14522D1*
X12460Y14216D1*
X12181Y13938D1*
X11875Y14244D1*
G37*
G36*
X12348Y13771D2*
X12627Y14049D1*
X12933Y13743D1*
X12655Y13465D1*
X12348Y13771D1*
G37*
G36*
X4805Y11550D2*
X4972Y11717D1*
X5528Y11160D1*
X5361Y10993D1*
X4805Y11550D1*
G37*
G36*
X5158Y11903D2*
X5325Y12070D1*
X5882Y11513D1*
X5715Y11346D1*
X5158Y11903D1*
G37*
G36*
X5512Y12257D2*
X5679Y12424D1*
X6235Y11867D1*
X6068Y11700D1*
X5512Y12257D1*
G37*
G36*
X5865Y12610D2*
X6032Y12777D1*
X6589Y12221D1*
X6422Y12053D1*
X5865Y12610D1*
G37*
G36*
X6219Y12964D2*
X6386Y13131D1*
X6943Y12574D1*
X6776Y12407D1*
X6219Y12964D1*
G37*
G36*
X6572Y13317D2*
X6739Y13484D1*
X7296Y12928D1*
X7129Y12761D1*
X6572Y13317D1*
G37*
G36*
X6926Y13671D2*
X7093Y13838D1*
X7650Y13281D1*
X7483Y13114D1*
X6926Y13671D1*
G37*
G36*
X7279Y14024D2*
X7446Y14192D1*
X8003Y13635D1*
X7836Y13468D1*
X7279Y14024D1*
G37*
G36*
X8783Y12521D2*
X8950Y12688D1*
X9507Y12131D1*
X9340Y11964D1*
X8783Y12521D1*
G37*
G36*
X8429Y12168D2*
X8596Y12335D1*
X9153Y11778D1*
X8986Y11611D1*
X8429Y12168D1*
G37*
G36*
X8076Y11814D2*
X8243Y11981D1*
X8799Y11424D1*
X8632Y11257D1*
X8076Y11814D1*
G37*
G36*
X7722Y11461D2*
X7889Y11628D1*
X8446Y11071D1*
X8279Y10904D1*
X7722Y11461D1*
G37*
G36*
X7369Y11107D2*
X7536Y11274D1*
X8092Y10717D1*
X7925Y10550D1*
X7369Y11107D1*
G37*
G36*
X7015Y10753D2*
X7182Y10920D1*
X7739Y10364D1*
X7572Y10197D1*
X7015Y10753D1*
G37*
G36*
X6661Y10400D2*
X6828Y10567D1*
X7385Y10010D1*
X7218Y9843D1*
X6661Y10400D1*
G37*
G36*
X6308Y10046D2*
X6475Y10213D1*
X7032Y9657D1*
X6865Y9490D1*
X6308Y10046D1*
G37*
G36*
X14874Y9686D2*
Y8898D1*
X14086D1*
Y9686D1*
X14874D1*
G37*
D22*
X14480Y10292D3*
Y11292D3*
G36*
X5085Y9336D2*
Y10123D1*
X5873D1*
Y9336D1*
X5085D1*
G37*
D22*
X5479Y8729D3*
Y7730D3*
X4927Y10822D2*
D43*
X4913Y10794D1*
X4870Y10750D1*
X5171D1*
X10632Y14434D2*
Y14175D1*
X10761Y14304D2*
X10503D1*
M02*
