M48
INCH
T01C0.0191
T02C0.0394
T03C0.0472
T04C0.1378
%
T01
X+006042Y+011167
X+005667Y+010730
X+007417Y+009730
X+007792Y+010105
X+008104Y+009542
X+010542Y+007917
X+012167Y+007542
X+012980Y+008855
X+013230Y+011542
X+012355Y+011792
X+007542Y+014668
X+005792Y+012855
X+009855Y+004604
T02
X+008087Y+008752
X+008794Y+009459
X+009501Y+008752
X+010208Y+009459
X+010915Y+010166
X+010208Y+010873
X+009501Y+010166
X+010915Y+011580
X+011622Y+010873
X+008794Y+008044
T03
X+014480Y+009292
X+014480Y+010292
X+014480Y+011292
X+005479Y+009729
X+005479Y+008729
X+005479Y+007730
T04
X+009855Y+006268
X+009855Y+013355
T00
M30
