G04 DipTrace 2.4.0.2*
%INBottomMask.gbr*%
%MOIN*%
%ADD25C,0.1378*%
%ADD31C,0.0866*%
%ADD39C,0.0712*%
%FSLAX44Y44*%
G04*
G70*
G90*
G75*
G01*
%LNBotMask*%
%LPD*%
G36*
X13044Y8023D2*
X14046Y7021D1*
X13462Y6436D1*
X12460Y7438D1*
X13044Y8023D1*
G37*
G36*
X11959Y6937D2*
X12961Y5935D1*
X12376Y5350D1*
X11374Y6352D1*
X11959Y6937D1*
G37*
G36*
X7583Y8752D2*
X8087Y9255D1*
X8590Y8752D1*
X8087Y8248D1*
X7583Y8752D1*
G37*
D39*
X8794Y8044D3*
Y9459D3*
X9501Y8752D3*
Y10166D3*
X10208Y9459D3*
Y10873D3*
X10915Y10166D3*
Y11580D3*
X11622Y10873D3*
G36*
X10902Y14056D2*
X11403Y14557D1*
X11807Y14154D1*
X11306Y13653D1*
X10902Y14056D1*
G37*
G36*
X11863Y13096D2*
X12364Y13597D1*
X12768Y13193D1*
X12267Y12692D1*
X11863Y13096D1*
G37*
D25*
X9855Y6268D3*
Y13355D3*
G36*
X14147Y12612D2*
X13911Y12375D1*
X13563Y12723D1*
X13799Y12960D1*
X14147Y12612D1*
G37*
G36*
X13618Y12083D2*
X13382Y11846D1*
X13034Y12194D1*
X13270Y12431D1*
X13618Y12083D1*
G37*
G36*
X13243Y12988D2*
X13006Y12751D1*
X12658Y13099D1*
X12895Y13336D1*
X13243Y12988D1*
G37*
G36*
X9320Y14613D2*
Y14141D1*
X8808D1*
Y14613D1*
X9320D1*
G37*
G36*
X8651D2*
Y14141D1*
X8139D1*
Y14613D1*
X8651D1*
G37*
G36*
X13132Y8118D2*
X13466Y8452D1*
X13828Y8091D1*
X13494Y7756D1*
X13132Y8118D1*
G37*
G36*
X13605Y7645D2*
X13939Y7979D1*
X14301Y7617D1*
X13967Y7283D1*
X13605Y7645D1*
G37*
G36*
X11819Y14244D2*
X12153Y14578D1*
X12515Y14216D1*
X12181Y13882D1*
X11819Y14244D1*
G37*
G36*
X12293Y13771D2*
X12627Y14105D1*
X12989Y13743D1*
X12655Y13409D1*
X12293Y13771D1*
G37*
G36*
X4749Y11550D2*
X4972Y11772D1*
X5584Y11160D1*
X5361Y10937D1*
X4749Y11550D1*
G37*
G36*
X5102Y11903D2*
X5325Y12126D1*
X5938Y11513D1*
X5715Y11291D1*
X5102Y11903D1*
G37*
G36*
X5456Y12257D2*
X5679Y12479D1*
X6291Y11867D1*
X6068Y11644D1*
X5456Y12257D1*
G37*
G36*
X5810Y12610D2*
X6032Y12833D1*
X6645Y12221D1*
X6422Y11998D1*
X5810Y12610D1*
G37*
G36*
X6163Y12964D2*
X6386Y13187D1*
X6998Y12574D1*
X6776Y12351D1*
X6163Y12964D1*
G37*
G36*
X6517Y13317D2*
X6739Y13540D1*
X7352Y12928D1*
X7129Y12705D1*
X6517Y13317D1*
G37*
G36*
X6870Y13671D2*
X7093Y13894D1*
X7705Y13281D1*
X7483Y13058D1*
X6870Y13671D1*
G37*
G36*
X7224Y14024D2*
X7446Y14247D1*
X8059Y13635D1*
X7836Y13412D1*
X7224Y14024D1*
G37*
G36*
X8727Y12521D2*
X8950Y12744D1*
X9562Y12131D1*
X9340Y11909D1*
X8727Y12521D1*
G37*
G36*
X8374Y12168D2*
X8596Y12390D1*
X9209Y11778D1*
X8986Y11555D1*
X8374Y12168D1*
G37*
G36*
X8020Y11814D2*
X8243Y12037D1*
X8855Y11424D1*
X8632Y11202D1*
X8020Y11814D1*
G37*
G36*
X7666Y11461D2*
X7889Y11683D1*
X8502Y11071D1*
X8279Y10848D1*
X7666Y11461D1*
G37*
G36*
X7313Y11107D2*
X7536Y11330D1*
X8148Y10717D1*
X7925Y10494D1*
X7313Y11107D1*
G37*
G36*
X6959Y10753D2*
X7182Y10976D1*
X7794Y10364D1*
X7572Y10141D1*
X6959Y10753D1*
G37*
G36*
X6606Y10400D2*
X6828Y10623D1*
X7441Y10010D1*
X7218Y9787D1*
X6606Y10400D1*
G37*
G36*
X6252Y10046D2*
X6475Y10269D1*
X7087Y9657D1*
X6865Y9434D1*
X6252Y10046D1*
G37*
G36*
X14913Y9725D2*
Y8859D1*
X14047D1*
Y9725D1*
X14913D1*
G37*
D31*
X14480Y10292D3*
Y11292D3*
G36*
X5046Y9296D2*
Y10163D1*
X5912D1*
Y9296D1*
X5046D1*
G37*
D31*
X5479Y8729D3*
Y7730D3*
M02*
