G04 DipTrace 2.4.0.2*
%INTop.gbr*%
%MOIN*%
%ADD10C,0.0098*%
%ADD14C,0.013*%
%ADD16R,0.0709X0.063*%
%ADD17C,0.0633*%
%ADD19R,0.0256X0.0413*%
%ADD20R,0.0433X0.0394*%
%ADD21R,0.0394X0.0433*%
%ADD22C,0.0787*%
%ADD23C,0.04*%
%ADD43C,0.0046*%
%ADD44C,0.0062*%
%FSLAX44Y44*%
G04*
G70*
G90*
G75*
G01*
%LNTop*%
%LPD*%
X7167Y10123D2*
D14*
Y9980D1*
X7417Y9730D1*
X5667Y10730D2*
X6498D1*
X6604Y10623D1*
X6042Y11167D2*
Y11783D1*
X6077Y11819D1*
X10208Y10873D2*
Y10980D1*
X11042D1*
X11855Y11792D1*
X5792Y12855D2*
X6292Y13355D1*
X10899Y8104D2*
Y8149D1*
X10917Y8167D1*
Y8649D1*
X10899Y8667D1*
X10855D1*
Y9355D1*
X14543D1*
X14480Y9292D1*
X5479Y9729D2*
X6229D1*
X7917Y8042D1*
X8104D1*
X10042Y9980D1*
X10417D1*
X10855Y9542D1*
Y8711D1*
X10899Y8667D1*
X10230D2*
Y9437D1*
X10208Y9459D1*
X6765Y13828D2*
X6953D1*
X7354Y14230D1*
X8542D1*
X8980Y14668D1*
X6604Y11292D2*
X6917D1*
X7542Y11917D1*
Y12531D1*
X7220Y12852D1*
X5604Y12292D2*
Y12355D1*
X5729Y12480D1*
X6479D1*
X6664Y12296D1*
X10230Y8104D2*
X8854D1*
X8794Y8044D1*
X7167Y10792D2*
Y11105D1*
X7854Y11792D1*
Y12355D1*
X8229Y12730D1*
Y12957D1*
X7777Y13409D1*
X5479Y7730D2*
X6229D1*
X6854Y7104D1*
X9105D1*
X9417Y7417D1*
X12042D1*
X12167Y7542D1*
X8167Y10792D2*
X8724Y11349D1*
X9281Y11906D2*
X8724Y11349D1*
X10221Y11931D2*
Y11792D1*
X9167D1*
X9281Y11906D1*
X8606Y13762D2*
X8667D1*
Y12519D1*
X9281Y11906D1*
D23*
X6042Y11167D3*
X5667Y10730D3*
X7417Y9730D3*
X5792Y12855D3*
X12167Y7542D3*
X7542Y14668D3*
X8229Y9792D3*
X9855Y4604D3*
X12605Y12167D3*
X8167Y7542D3*
X12917Y8667D3*
X8808Y15326D2*
D10*
X10877D1*
X8370Y15229D2*
X11315D1*
X8071Y15132D2*
X11613D1*
X7793Y15035D2*
X7910D1*
X8553D2*
X8659D1*
X9300D2*
X11892D1*
X7576Y14937D2*
X7910D1*
X8553D2*
X8659D1*
X9300D2*
X12110D1*
X7358Y14840D2*
X7910D1*
X8553D2*
X8659D1*
X9300D2*
X12327D1*
X7179Y14743D2*
X7910D1*
X8553D2*
X8659D1*
X9300D2*
X12505D1*
X7012Y14646D2*
X7910D1*
X8553D2*
X8597D1*
X9300D2*
X12673D1*
X6842Y14549D2*
X7910D1*
X9300D2*
X12842D1*
X6702Y14452D2*
X7233D1*
X9300D2*
X12982D1*
X6569Y14355D2*
X7118D1*
X9300D2*
X9579D1*
X10132D2*
X13116D1*
X6435Y14258D2*
X6647D1*
X6910D2*
X7021D1*
X8929D2*
X9339D1*
X10370D2*
X13250D1*
X6307Y14161D2*
X6551D1*
X8832D2*
X9196D1*
X10513D2*
X13377D1*
X6200Y14063D2*
X6454D1*
X8926D2*
X9091D1*
X10620D2*
X13485D1*
X6092Y13966D2*
X6357D1*
X8926D2*
X9010D1*
X10699D2*
X13593D1*
X5984Y13869D2*
X6289D1*
X10763D2*
X13700D1*
X5881Y13772D2*
X6161D1*
X10812D2*
X13803D1*
X5794Y13675D2*
X6065D1*
X10849D2*
X13891D1*
X5706Y13578D2*
X5968D1*
X10875D2*
X13979D1*
X5618Y13481D2*
X5871D1*
X10892D2*
X14066D1*
X5531Y13384D2*
X5812D1*
X10899D2*
X11307D1*
X12402D2*
X14154D1*
X5457Y13287D2*
X5815D1*
X10896D2*
X11307D1*
X12402D2*
X14228D1*
X5386Y13189D2*
X5596D1*
X10886D2*
X11307D1*
X12402D2*
X14298D1*
X5315Y13092D2*
X5482D1*
X10866D2*
X11307D1*
X12402D2*
X14369D1*
X5245Y12995D2*
X5425D1*
X10835D2*
X11307D1*
X12402D2*
X14440D1*
X5174Y12898D2*
X5402D1*
X10793D2*
X11307D1*
X12402D2*
X14511D1*
X5117Y12801D2*
X5403D1*
X10872D2*
X11307D1*
X12402D2*
X14569D1*
X5060Y12704D2*
X5429D1*
X10969D2*
X11307D1*
X12402D2*
X14624D1*
X5005Y12607D2*
X5343D1*
X11065D2*
X11307D1*
X12402D2*
X14680D1*
X4948Y12510D2*
X5246D1*
X11155D2*
X11307D1*
X12402D2*
X14737D1*
X4892Y12412D2*
X5153D1*
X11179D2*
X11307D1*
X12402D2*
X14792D1*
X4845Y12315D2*
X5119D1*
X11149D2*
X14840D1*
X4802Y12218D2*
X5142D1*
X11055D2*
X11307D1*
X12402D2*
X14883D1*
X4759Y12121D2*
X5228D1*
X10958D2*
X11307D1*
X12402D2*
X14927D1*
X4716Y12024D2*
X5325D1*
X11153D2*
X11307D1*
X12402D2*
X14971D1*
X4671Y11927D2*
X5423D1*
X12402D2*
X15014D1*
X4631Y11830D2*
X5542D1*
X12402D2*
X14262D1*
X14698D2*
X15055D1*
X4599Y11733D2*
X5622D1*
X12402D2*
X14099D1*
X14863D2*
X15086D1*
X4568Y11636D2*
X5714D1*
X12402D2*
X14008D1*
X14953D2*
X15118D1*
X4536Y11538D2*
X5785D1*
X10375D2*
X10409D1*
X12402D2*
X13949D1*
X15012D2*
X15149D1*
X4503Y11441D2*
X5765D1*
X9920D2*
X10426D1*
X12402D2*
X13914D1*
X15047D2*
X15181D1*
X4473Y11344D2*
X5692D1*
X9823D2*
X10034D1*
X10383D2*
X10464D1*
X12402D2*
X13896D1*
X15064D2*
X15212D1*
X4445Y11247D2*
X5657D1*
X9726D2*
X9868D1*
X11962D2*
X13896D1*
X15066D2*
X15240D1*
X4425Y11150D2*
X5649D1*
X9629D2*
X9783D1*
X12048D2*
X13911D1*
X15049D2*
X15260D1*
X4405Y11053D2*
X5451D1*
X9526D2*
X9732D1*
X12097D2*
X13946D1*
X15015D2*
X15281D1*
X4383Y10956D2*
X5348D1*
X9434D2*
X9706D1*
X12125D2*
X14002D1*
X14958D2*
X15301D1*
X4363Y10859D2*
X5296D1*
X9337D2*
X9699D1*
X12131D2*
X14089D1*
X14870D2*
X15321D1*
X4342Y10762D2*
X5276D1*
X9240D2*
X9711D1*
X12119D2*
X14135D1*
X14824D2*
X15343D1*
X4328Y10664D2*
X5280D1*
X9143D2*
X9463D1*
X9538D2*
X9745D1*
X10672D2*
X10878D1*
X10951D2*
X11158D1*
X12087D2*
X14029D1*
X14930D2*
X15358D1*
X4317Y10567D2*
X5309D1*
X7556D2*
X7678D1*
X9045D2*
X9194D1*
X12027D2*
X13963D1*
X14996D2*
X15367D1*
X4306Y10470D2*
X5376D1*
X5958D2*
X6215D1*
X7556D2*
X7775D1*
X8949D2*
X9096D1*
X11928D2*
X13922D1*
X15038D2*
X15378D1*
X4297Y10373D2*
X5517D1*
X5817D2*
X6218D1*
X7556D2*
X7872D1*
X8851D2*
X9037D1*
X9964D2*
X10451D1*
X11379D2*
X13899D1*
X15061D2*
X15389D1*
X4286Y10276D2*
X4976D1*
X5983D2*
X6269D1*
X7556D2*
X7968D1*
X8754D2*
X9003D1*
X9998D2*
X10418D1*
X11412D2*
X13894D1*
X15067D2*
X15398D1*
X4276Y10179D2*
X4902D1*
X6057D2*
X6777D1*
X7556D2*
X8067D1*
X8657D2*
X8991D1*
X11424D2*
X13905D1*
X15055D2*
X15409D1*
X4272Y10082D2*
X4893D1*
X6066D2*
X6777D1*
X7578D2*
X8164D1*
X8560D2*
X8999D1*
X11418D2*
X13934D1*
X15027D2*
X15413D1*
X4272Y9985D2*
X4893D1*
X6066D2*
X6777D1*
X7713D2*
X8278D1*
X8446D2*
X9025D1*
X11390D2*
X13982D1*
X14978D2*
X15413D1*
X4272Y9888D2*
X4893D1*
X6432D2*
X6777D1*
X7776D2*
X8528D1*
X11339D2*
X14059D1*
X14901D2*
X15413D1*
X4272Y9790D2*
X4893D1*
X6529D2*
X6777D1*
X7805D2*
X8410D1*
X11255D2*
X13926D1*
X15033D2*
X15413D1*
X4272Y9693D2*
X4893D1*
X6626D2*
X7026D1*
X7808D2*
X8344D1*
X9245D2*
X9330D1*
X11087D2*
X13894D1*
X15067D2*
X15413D1*
X4272Y9596D2*
X4893D1*
X6722D2*
X7049D1*
X7785D2*
X8304D1*
X15067D2*
X15413D1*
X4277Y9499D2*
X4893D1*
X6821D2*
X7101D1*
X7733D2*
X8287D1*
X15067D2*
X15407D1*
X4288Y9402D2*
X4893D1*
X6066D2*
X6197D1*
X6918D2*
X7209D1*
X7625D2*
X8288D1*
X15067D2*
X15398D1*
X4297Y9305D2*
X4896D1*
X6063D2*
X6294D1*
X7015D2*
X7924D1*
X8250D2*
X8308D1*
X15067D2*
X15387D1*
X4308Y9208D2*
X4945D1*
X6014D2*
X6391D1*
X7112D2*
X7827D1*
X15067D2*
X15377D1*
X4317Y9111D2*
X5037D1*
X5921D2*
X6487D1*
X15067D2*
X15367D1*
X4328Y9014D2*
X4968D1*
X5990D2*
X6584D1*
X11927D2*
X13894D1*
X15067D2*
X15357D1*
X4343Y8916D2*
X4923D1*
X6035D2*
X6681D1*
X11927D2*
X13894D1*
X15067D2*
X15341D1*
X4365Y8819D2*
X4900D1*
X6058D2*
X6780D1*
X11927D2*
X13911D1*
X15049D2*
X15320D1*
X4385Y8722D2*
X4893D1*
X6066D2*
X6877D1*
X11927D2*
X14028D1*
X14933D2*
X15300D1*
X4406Y8625D2*
X4902D1*
X6057D2*
X6973D1*
X11927D2*
X15280D1*
X4426Y8528D2*
X4930D1*
X6029D2*
X7070D1*
X11927D2*
X15258D1*
X4446Y8431D2*
X4976D1*
X5983D2*
X7167D1*
X11919D2*
X15238D1*
X4474Y8334D2*
X5050D1*
X5909D2*
X7264D1*
X11919D2*
X15210D1*
X4506Y8237D2*
X5170D1*
X5789D2*
X7363D1*
X11919D2*
X15178D1*
X4537Y8140D2*
X5063D1*
X5895D2*
X7459D1*
X11919D2*
X15147D1*
X4569Y8042D2*
X4985D1*
X5974D2*
X7556D1*
X11919D2*
X15115D1*
X4600Y7945D2*
X4934D1*
X6361D2*
X7653D1*
X11308D2*
X15084D1*
X4632Y7848D2*
X4905D1*
X6470D2*
X7753D1*
X8270D2*
X8325D1*
X9263D2*
X9820D1*
X11308D2*
X11927D1*
X12407D2*
X15052D1*
X4674Y7751D2*
X4893D1*
X6569D2*
X8379D1*
X9208D2*
X9820D1*
X11308D2*
X11836D1*
X12497D2*
X15010D1*
X4719Y7654D2*
X4897D1*
X6666D2*
X8473D1*
X9115D2*
X9334D1*
X12543D2*
X14967D1*
X4762Y7557D2*
X4919D1*
X6762D2*
X8676D1*
X8912D2*
X9197D1*
X12560D2*
X14924D1*
X4805Y7460D2*
X4960D1*
X5998D2*
X6138D1*
X6859D2*
X9099D1*
X12551D2*
X14880D1*
X4848Y7363D2*
X5025D1*
X5934D2*
X6235D1*
X6956D2*
X9002D1*
X12516D2*
X14837D1*
X4895Y7266D2*
X5126D1*
X5832D2*
X6332D1*
X12442D2*
X14789D1*
X4952Y7168D2*
X5336D1*
X5621D2*
X6431D1*
X10375D2*
X10975D1*
X13608D2*
X14732D1*
X5008Y7071D2*
X6527D1*
X10518D2*
X10975D1*
X13608D2*
X14677D1*
X5065Y6974D2*
X6624D1*
X10621D2*
X10975D1*
X13608D2*
X14620D1*
X5120Y6877D2*
X6746D1*
X10701D2*
X10975D1*
X13608D2*
X14565D1*
X5180Y6780D2*
X8945D1*
X10764D2*
X10975D1*
X13608D2*
X14506D1*
X5249Y6683D2*
X8897D1*
X10813D2*
X10975D1*
X13608D2*
X14435D1*
X5320Y6586D2*
X8860D1*
X10849D2*
X10975D1*
X13608D2*
X14365D1*
X5391Y6489D2*
X8834D1*
X10875D2*
X10975D1*
X13608D2*
X14294D1*
X5461Y6391D2*
X8817D1*
X10892D2*
X10975D1*
X13608D2*
X14223D1*
X5538Y6294D2*
X8811D1*
X10899D2*
X10975D1*
X13608D2*
X14148D1*
X5624Y6197D2*
X8813D1*
X10896D2*
X10975D1*
X13608D2*
X14060D1*
X5712Y6100D2*
X8824D1*
X10886D2*
X11100D1*
X12387D2*
X13972D1*
X5800Y6003D2*
X8845D1*
X10864D2*
X11100D1*
X12387D2*
X13885D1*
X5887Y5906D2*
X8876D1*
X10833D2*
X11100D1*
X12387D2*
X13797D1*
X5992Y5809D2*
X8917D1*
X10792D2*
X11100D1*
X12387D2*
X13693D1*
X6100Y5712D2*
X8973D1*
X10736D2*
X11100D1*
X12387D2*
X13585D1*
X6207Y5615D2*
X9043D1*
X10667D2*
X11100D1*
X12387D2*
X13477D1*
X6315Y5517D2*
X9133D1*
X10576D2*
X11100D1*
X12387D2*
X13370D1*
X6444Y5420D2*
X9253D1*
X10456D2*
X11100D1*
X12387D2*
X13240D1*
X6578Y5323D2*
X9425D1*
X10286D2*
X11100D1*
X12387D2*
X13107D1*
X6712Y5226D2*
X12973D1*
X6855Y5129D2*
X12830D1*
X7024Y5032D2*
X12662D1*
X7192Y4935D2*
X12493D1*
X7373Y4838D2*
X12311D1*
X7591Y4741D2*
X12093D1*
X7810Y4643D2*
X11876D1*
X8093Y4546D2*
X11592D1*
X8391Y4449D2*
X11293D1*
X8842Y4352D2*
X10843D1*
X11327Y13393D2*
X12392D1*
Y12397D1*
X11317D1*
Y13393D1*
X11327D1*
X7782Y9154D2*
X7957Y9329D1*
X7996Y9358D1*
X8042Y9377D1*
X8090Y9382D1*
X8139Y9375D1*
X8190Y9350D1*
X8251Y9294D1*
X8628Y8916D1*
X8683Y8971D1*
X8600Y8998D1*
X8513Y9045D1*
X8438Y9108D1*
X8376Y9185D1*
X8330Y9272D1*
X8303Y9366D1*
X8294Y9464D1*
X8305Y9562D1*
X8334Y9655D1*
X8382Y9741D1*
X8445Y9816D1*
X8522Y9878D1*
X8609Y9923D1*
X8704Y9950D1*
X8802Y9958D1*
X8899Y9947D1*
X8993Y9917D1*
X9079Y9869D1*
X9153Y9805D1*
X9214Y9728D1*
X9259Y9641D1*
X9280Y9569D1*
X9390Y9678D1*
X9307Y9705D1*
X9220Y9752D1*
X9145Y9815D1*
X9083Y9892D1*
X9038Y9979D1*
X9010Y10073D1*
X9001Y10171D1*
X9012Y10269D1*
X9042Y10362D1*
X9089Y10448D1*
X9152Y10524D1*
X9229Y10585D1*
X9316Y10630D1*
X9411Y10657D1*
X9509Y10665D1*
X9606Y10654D1*
X9700Y10624D1*
X9786Y10576D1*
X9861Y10512D1*
X9921Y10435D1*
X9966Y10348D1*
X9993Y10253D1*
X9996Y10224D1*
X10091Y10228D1*
X10419D1*
X10433Y10297D1*
X10456Y10362D1*
X10487Y10424D1*
X10527Y10480D1*
X10574Y10530D1*
X10627Y10574D1*
X10686Y10610D1*
X10749Y10637D1*
X10815Y10655D1*
X10884Y10664D1*
X10952D1*
X11021Y10654D1*
X11087Y10635D1*
X11150Y10607D1*
X11208Y10570D1*
X11261Y10526D1*
X11307Y10475D1*
X11346Y10419D1*
X11377Y10357D1*
X11399Y10292D1*
X11411Y10224D1*
X11415Y10156D1*
X11408Y10087D1*
X11393Y10020D1*
X11368Y9956D1*
X11335Y9896D1*
X11294Y9840D1*
X11246Y9791D1*
X11191Y9749D1*
X11131Y9715D1*
X11067Y9690D1*
X11056Y9686D1*
X11101Y9603D1*
X13904D1*
X13903Y9686D1*
X13910Y9734D1*
X13929Y9780D1*
X13960Y9818D1*
X13999Y9847D1*
X14053Y9866D1*
X14087Y9870D1*
X14033Y9927D1*
X13988Y9992D1*
X13951Y10061D1*
X13925Y10136D1*
X13909Y10213D1*
X13903Y10291D1*
X13909Y10370D1*
X13924Y10447D1*
X13951Y10521D1*
X13987Y10591D1*
X14032Y10655D1*
X14086Y10713D1*
X14146Y10763D1*
X14193Y10792D1*
X14132Y10832D1*
X14059Y10898D1*
X13998Y10975D1*
X13951Y11061D1*
X13920Y11155D1*
X13905Y11252D1*
X13906Y11350D1*
X13924Y11447D1*
X13959Y11539D1*
X14008Y11624D1*
X14071Y11699D1*
X14146Y11763D1*
X14231Y11812D1*
X14323Y11847D1*
X14420Y11866D1*
X14518Y11868D1*
X14615Y11853D1*
X14708Y11822D1*
X14795Y11775D1*
X14873Y11715D1*
X14939Y11642D1*
X14991Y11559D1*
X15029Y11468D1*
X15051Y11372D1*
X15057Y11292D1*
X15049Y11194D1*
X15024Y11099D1*
X14983Y11009D1*
X14928Y10928D1*
X14859Y10857D1*
X14780Y10799D1*
X14768Y10793D1*
X14835Y10747D1*
X14894Y10694D1*
X14945Y10634D1*
X14987Y10568D1*
X15020Y10496D1*
X15042Y10421D1*
X15055Y10343D1*
X15057Y10272D1*
X15049Y10194D1*
X15030Y10118D1*
X15001Y10044D1*
X14962Y9976D1*
X14915Y9913D1*
X14872Y9869D1*
X14922Y9862D1*
X14968Y9843D1*
X15006Y9812D1*
X15035Y9773D1*
X15054Y9719D1*
X15057Y9637D1*
Y8898D1*
X15050Y8850D1*
X15031Y8805D1*
X15000Y8766D1*
X14961Y8737D1*
X14907Y8718D1*
X14825Y8715D1*
X14086D1*
X14038Y8722D1*
X13993Y8741D1*
X13954Y8772D1*
X13925Y8811D1*
X13906Y8865D1*
X13903Y8948D1*
Y9107D1*
X11917D1*
X11918Y8527D1*
X11907D1*
X11909Y8289D1*
Y8022D1*
X11298D1*
X11299Y7725D1*
X10499Y7726D1*
X10334Y7725D1*
X9830D1*
Y7855D1*
X9295Y7856D1*
X9256D1*
X9234Y7808D1*
X9179Y7727D1*
X9110Y7657D1*
X9028Y7603D1*
X8937Y7566D1*
X8840Y7547D1*
X8742D1*
X8646Y7567D1*
X8555Y7605D1*
X8474Y7661D1*
X8405Y7731D1*
X8351Y7813D1*
X8315Y7902D1*
X8280Y7867D1*
X8242Y7835D1*
X8198Y7812D1*
X8151Y7798D1*
X8104Y7794D1*
X7917D1*
X7868Y7799D1*
X7821Y7813D1*
X7778Y7837D1*
X7742Y7867D1*
X6127Y9481D1*
X6056D1*
Y9336D1*
X6049Y9287D1*
X6030Y9242D1*
X6000Y9204D1*
X5960Y9175D1*
X5906Y9156D1*
X5872Y9152D1*
X5926Y9095D1*
X5971Y9031D1*
X6007Y8961D1*
X6034Y8887D1*
X6050Y8810D1*
X6056Y8731D1*
X6052Y8661D1*
X6037Y8583D1*
X6012Y8509D1*
X5977Y8438D1*
X5933Y8373D1*
X5880Y8315D1*
X5820Y8264D1*
X5767Y8230D1*
X5834Y8184D1*
X5906Y8117D1*
X5966Y8039D1*
X5999Y7978D1*
X6229D1*
X6278Y7973D1*
X6325Y7958D1*
X6368Y7935D1*
X6405Y7905D1*
X6958Y7351D1*
X7740Y7352D1*
X9003D1*
X9242Y7592D1*
X9280Y7623D1*
X9323Y7646D1*
X9370Y7660D1*
X9417Y7665D1*
X11805D1*
X11823Y7710D1*
X11848Y7753D1*
X11877Y7792D1*
X11912Y7827D1*
X11951Y7858D1*
X11993Y7883D1*
X12038Y7902D1*
X12085Y7916D1*
X12134Y7923D1*
X12183Y7925D1*
X12232Y7919D1*
X12280Y7908D1*
X12326Y7891D1*
X12369Y7867D1*
X12409Y7839D1*
X12445Y7806D1*
X12477Y7768D1*
X12503Y7726D1*
X12524Y7682D1*
X12539Y7635D1*
X12548Y7586D1*
X12550Y7542D1*
X12547Y7493D1*
X12538Y7445D1*
X12522Y7398D1*
X12501Y7354D1*
X12474Y7312D1*
X12442Y7275D1*
X12382Y7225D1*
X13598D1*
Y6137D1*
X12379D1*
X12378Y5808D1*
Y5262D1*
X11109D1*
Y6137D1*
X10984D1*
Y7169D1*
X10365D1*
X10451Y7114D1*
X10529Y7054D1*
X10600Y6986D1*
X10665Y6912D1*
X10722Y6832D1*
X10772Y6747D1*
X10813Y6658D1*
X10846Y6565D1*
X10870Y6470D1*
X10884Y6372D1*
X10890Y6268D1*
X10885Y6170D1*
X10871Y6073D1*
X10848Y5977D1*
X10816Y5884D1*
X10775Y5795D1*
X10726Y5709D1*
X10669Y5629D1*
X10604Y5555D1*
X10533Y5487D1*
X10456Y5426D1*
X10373Y5373D1*
X10286Y5328D1*
X10194Y5291D1*
X10100Y5263D1*
X10003Y5244D1*
X9905Y5235D1*
X9807D1*
X9709Y5244D1*
X9612Y5262D1*
X9518Y5290D1*
X9427Y5326D1*
X9339Y5371D1*
X9256Y5424D1*
X9179Y5485D1*
X9107Y5553D1*
X9043Y5627D1*
X8985Y5707D1*
X8936Y5792D1*
X8895Y5882D1*
X8863Y5974D1*
X8839Y6070D1*
X8825Y6167D1*
X8820Y6266D1*
X8824Y6364D1*
X8838Y6461D1*
X8861Y6557D1*
X8893Y6650D1*
X8934Y6740D1*
X8982Y6825D1*
X9004Y6857D1*
X6854Y6856D1*
X6805Y6861D1*
X6758Y6876D1*
X6715Y6899D1*
X6679Y6929D1*
X6125Y7482D1*
X6000Y7481D1*
X5956Y7405D1*
X5894Y7329D1*
X5820Y7264D1*
X5736Y7213D1*
X5645Y7177D1*
X5548Y7157D1*
X5450Y7153D1*
X5353Y7167D1*
X5259Y7196D1*
X5172Y7242D1*
X5093Y7301D1*
X5026Y7373D1*
X4972Y7455D1*
X4933Y7545D1*
X4909Y7640D1*
X4902Y7738D1*
X4912Y7836D1*
X4939Y7931D1*
X4981Y8020D1*
X5037Y8100D1*
X5107Y8170D1*
X5187Y8227D1*
X5191Y8229D1*
X5131Y8270D1*
X5072Y8321D1*
X5020Y8380D1*
X4977Y8446D1*
X4943Y8517D1*
X4919Y8592D1*
X4906Y8670D1*
X4903Y8748D1*
X4911Y8826D1*
X4929Y8903D1*
X4958Y8976D1*
X4996Y9045D1*
X5044Y9108D1*
X5088Y9153D1*
X5037Y9159D1*
X4992Y9179D1*
X4953Y9209D1*
X4924Y9249D1*
X4906Y9302D1*
X4902Y9385D1*
Y10123D1*
X4909Y10172D1*
X4928Y10217D1*
X4959Y10255D1*
X4998Y10284D1*
X5052Y10303D1*
X5135Y10306D1*
X5873D1*
X5921Y10300D1*
X5967Y10280D1*
X6005Y10250D1*
X6034Y10210D1*
X6053Y10157D1*
X6056Y10074D1*
Y9977D1*
X6229Y9978D1*
X6278Y9973D1*
X6325Y9958D1*
X6368Y9935D1*
X6405Y9905D1*
X7156Y9153D1*
X7783D1*
X8902Y10433D2*
X8491Y10022D1*
X8452Y9993D1*
X8407Y9974D1*
X8358Y9969D1*
X8309Y9976D1*
X8258Y10001D1*
X8198Y10057D1*
X7546Y10709D1*
X7547Y10393D1*
Y10090D1*
X7619Y10055D1*
X7659Y10027D1*
X7695Y9993D1*
X7726Y9955D1*
X7753Y9914D1*
X7774Y9869D1*
X7788Y9823D1*
X7797Y9774D1*
X7800Y9730D1*
X7797Y9681D1*
X7787Y9632D1*
X7772Y9586D1*
X7750Y9541D1*
X7724Y9500D1*
X7692Y9463D1*
X7655Y9430D1*
X7615Y9402D1*
X7571Y9379D1*
X7525Y9362D1*
X7477Y9351D1*
X7428Y9347D1*
X7379Y9348D1*
X7330Y9356D1*
X7283Y9371D1*
X7238Y9391D1*
X7196Y9416D1*
X7158Y9447D1*
X7124Y9483D1*
X7095Y9522D1*
X7071Y9565D1*
X7053Y9611D1*
X7040Y9658D1*
X7035Y9724D1*
X6787Y9723D1*
Y10223D1*
X6407D1*
X6359Y10230D1*
X6314Y10249D1*
X6275Y10280D1*
X6246Y10319D1*
X6227Y10373D1*
X6224Y10456D1*
Y10482D1*
X5958D1*
X5905Y10430D1*
X5865Y10402D1*
X5821Y10379D1*
X5775Y10362D1*
X5727Y10351D1*
X5678Y10347D1*
X5629Y10349D1*
X5580Y10357D1*
X5533Y10371D1*
X5488Y10391D1*
X5446Y10416D1*
X5408Y10447D1*
X5374Y10483D1*
X5345Y10522D1*
X5321Y10565D1*
X5302Y10611D1*
X5290Y10659D1*
X5284Y10707D1*
X5285Y10757D1*
X5291Y10805D1*
X5304Y10853D1*
X5323Y10898D1*
X5347Y10941D1*
X5377Y10980D1*
X5411Y11015D1*
X5450Y11046D1*
X5492Y11071D1*
X5537Y11090D1*
X5585Y11104D1*
X5662Y11112D1*
X5660Y11194D1*
X5666Y11243D1*
X5679Y11290D1*
X5698Y11336D1*
X5722Y11378D1*
X5752Y11418D1*
X5795Y11459D1*
X5794Y11566D1*
X5656Y11704D1*
X5626Y11743D1*
X5606Y11797D1*
X5566Y11825D1*
X5515Y11849D1*
X5454Y11905D1*
X5182Y12177D1*
X5153Y12216D1*
X5134Y12261D1*
X5129Y12310D1*
X5136Y12359D1*
X5161Y12410D1*
X5217Y12471D1*
X5442Y12696D1*
X5415Y12784D1*
X5409Y12833D1*
X5410Y12882D1*
X5416Y12931D1*
X5429Y12978D1*
X5448Y13023D1*
X5472Y13066D1*
X5502Y13105D1*
X5536Y13140D1*
X5575Y13171D1*
X5617Y13196D1*
X5662Y13216D1*
X5710Y13229D1*
X5758Y13237D1*
X5821Y13236D1*
X5839Y13253D1*
X5820Y13304D1*
X5817Y13353D1*
X5826Y13401D1*
X5848Y13445D1*
X5905Y13505D1*
X6176Y13777D1*
X6215Y13806D1*
X6270Y13827D1*
X6297Y13867D1*
X6322Y13918D1*
X6378Y13979D1*
X6649Y14250D1*
X6689Y14280D1*
X6734Y14298D1*
X6783Y14304D1*
X6831Y14296D1*
X6882Y14272D1*
X6943Y14215D1*
X6966Y14192D1*
X7179Y14405D1*
X7217Y14437D1*
X7260Y14460D1*
X7307Y14474D1*
X7354Y14478D1*
X7922D1*
X7920Y14544D1*
Y15057D1*
X8543D1*
Y14581D1*
X8668Y14707D1*
X8669Y15057D1*
X9291D1*
Y14278D1*
X8941D1*
X8815Y14152D1*
X8917D1*
Y13790D1*
X8957Y13870D1*
X9010Y13953D1*
X9070Y14030D1*
X9138Y14102D1*
X9212Y14166D1*
X9292Y14224D1*
X9377Y14273D1*
X9467Y14314D1*
X9559Y14347D1*
X9655Y14370D1*
X9752Y14385D1*
X9851Y14390D1*
X9949Y14386D1*
X10046Y14372D1*
X10142Y14349D1*
X10235Y14317D1*
X10325Y14277D1*
X10410Y14228D1*
X10491Y14171D1*
X10565Y14107D1*
X10633Y14036D1*
X10695Y13959D1*
X10748Y13877D1*
X10794Y13790D1*
X10831Y13699D1*
X10859Y13604D1*
X10878Y13508D1*
X10888Y13410D1*
Y13306D1*
X10879Y13208D1*
X10860Y13111D1*
X10833Y13017D1*
X10796Y12926D1*
X10770Y12869D1*
X10805Y12851D1*
X10841Y12822D1*
X11129Y12533D1*
X11150Y12500D1*
X11164Y12463D1*
X11169Y12424D1*
X11166Y12385D1*
X11155Y12347D1*
X11136Y12313D1*
X11102Y12274D1*
X10906Y12079D1*
X10972Y12076D1*
X11068Y12056D1*
X11158Y12016D1*
X11239Y11960D1*
X11307Y11890D1*
X11317Y11877D1*
Y12290D1*
X12392D1*
Y11294D1*
X11889D1*
X11946Y11253D1*
X12014Y11182D1*
X12067Y11100D1*
X12103Y11008D1*
X12120Y10912D1*
X12119Y10824D1*
X12100Y10727D1*
X12062Y10637D1*
X12008Y10555D1*
X11938Y10486D1*
X11856Y10431D1*
X11765Y10394D1*
X11669Y10375D1*
X11570Y10376D1*
X11474Y10396D1*
X11384Y10434D1*
X11302Y10489D1*
X11233Y10559D1*
X11179Y10641D1*
X11143Y10732D1*
X11136Y10750D1*
X11089Y10736D1*
X11042Y10732D1*
X10687D1*
X10669Y10681D1*
X10623Y10594D1*
X10560Y10519D1*
X10484Y10457D1*
X10397Y10410D1*
X10303Y10382D1*
X10205Y10373D1*
X10108Y10383D1*
X10014Y10413D1*
X9927Y10459D1*
X9852Y10522D1*
X9790Y10599D1*
X9745Y10686D1*
X9717Y10780D1*
X9708Y10878D1*
X9719Y10976D1*
X9749Y11069D1*
X9796Y11156D1*
X9859Y11231D1*
X9936Y11292D1*
X10023Y11337D1*
X10118Y11364D1*
X10216Y11372D1*
X10313Y11361D1*
X10407Y11331D1*
X10493Y11283D1*
X10560Y11227D1*
X10526Y11266D1*
X10472Y11348D1*
X10436Y11439D1*
X10417Y11536D1*
X10416Y11590D1*
X10336Y11509D1*
X10297Y11479D1*
X10252Y11461D1*
X10203Y11455D1*
X10155Y11463D1*
X10103Y11487D1*
X10042Y11545D1*
X10013Y11544D1*
X9605Y11136D1*
X9558Y11102D1*
X9599Y11131D1*
X9559Y11103D1*
X5890Y5892D2*
X6327Y5499D1*
X6800Y5155D1*
X7306Y4863D1*
X7841Y4625D1*
X8397Y4444D1*
X8969Y4323D1*
X9551Y4262D1*
X10136D1*
X10718Y4323D1*
X11290Y4445D1*
X11846Y4626D1*
X12380Y4864D1*
X12887Y5156D1*
X13360Y5500D1*
X13795Y5892D1*
X14186Y6327D1*
X14530Y6800D1*
X14822Y7306D1*
X15060Y7841D1*
X15241Y8397D1*
X15362Y8969D1*
X15423Y9551D1*
Y10136D1*
X15362Y10718D1*
X15240Y11290D1*
X15059Y11846D1*
X14821Y12380D1*
X14529Y12887D1*
X14185Y13360D1*
X13793Y13795D1*
X13358Y14186D1*
X12885Y14530D1*
X12379Y14822D1*
X11844Y15060D1*
X11288Y15241D1*
X10716Y15362D1*
X10134Y15423D1*
X9549D1*
X8967Y15362D1*
X8395Y15240D1*
X7839Y15059D1*
X7305Y14821D1*
X6798Y14529D1*
X6325Y14185D1*
X5890Y13793D1*
X5499Y13358D1*
X5155Y12885D1*
X4863Y12379D1*
X4625Y11844D1*
X4444Y11288D1*
X4323Y10716D1*
X4262Y10134D1*
Y9549D1*
X4323Y8967D1*
X4445Y8395D1*
X4626Y7839D1*
X4864Y7305D1*
X5156Y6798D1*
X5500Y6325D1*
X5892Y5890D1*
X11855Y13393D2*
D14*
Y12397D1*
X11318Y12895D2*
X12392D1*
X10562Y10519D2*
X11268Y9813D1*
Y10519D2*
X10915Y10166D1*
X8232Y15057D2*
Y14668D1*
X7921D2*
X8542D1*
X10694Y12404D2*
X11169D1*
X14072Y10700D2*
X14888Y9884D1*
Y10700D2*
X14072Y9884D1*
X5071Y9137D2*
X5887Y8322D1*
Y9137D2*
X5071Y8322D1*
D16*
X11855Y11792D3*
Y12895D3*
G36*
X7639Y8752D2*
X8087Y9199D1*
X8534Y8752D1*
X8087Y8304D1*
X7639Y8752D1*
G37*
D17*
X8794Y8044D3*
Y9459D3*
X9501Y8752D3*
Y10166D3*
X10208Y9459D3*
Y10873D3*
X10915Y10166D3*
Y11580D3*
X11622Y10873D3*
G36*
X7972Y11433D2*
X8807Y10597D1*
X8362Y10152D1*
X7527Y10987D1*
X7972Y11433D1*
G37*
G36*
X8529Y11989D2*
X9364Y11154D1*
X8919Y10709D1*
X8083Y11544D1*
X8529Y11989D1*
G37*
G36*
X9086Y12546D2*
X9921Y11711D1*
X9475Y11265D1*
X8640Y12101D1*
X9086Y12546D1*
G37*
G36*
X6469Y12936D2*
X7304Y12101D1*
X6859Y11655D1*
X6023Y12490D1*
X6469Y12936D1*
G37*
G36*
X7026Y13493D2*
X7861Y12657D1*
X7415Y12212D1*
X6580Y13047D1*
X7026Y13493D1*
G37*
G36*
X7582Y14049D2*
X8418Y13214D1*
X7972Y12769D1*
X7137Y13604D1*
X7582Y14049D1*
G37*
D19*
X8980Y14668D3*
X8232D3*
X8606Y13762D3*
D20*
X10230Y8667D3*
X10899D3*
G36*
X6278Y13063D2*
X5999Y13341D1*
X6306Y13647D1*
X6584Y13369D1*
X6278Y13063D1*
G37*
G36*
X6751Y13536D2*
X6473Y13814D1*
X6779Y14121D1*
X7057Y13842D1*
X6751Y13536D1*
G37*
G36*
X10680Y12112D2*
X10402Y12390D1*
X10708Y12696D1*
X10986Y12418D1*
X10680Y12112D1*
G37*
G36*
X10207Y11638D2*
X9929Y11917D1*
X10235Y12223D1*
X10513Y11945D1*
X10207Y11638D1*
G37*
D20*
X10230Y8104D3*
X10899D3*
D21*
X7167Y10792D3*
Y10123D3*
G36*
X6801Y11076D2*
X6407D1*
Y11509D1*
X6801D1*
Y11076D1*
G37*
G36*
Y10406D2*
X6407D1*
Y10840D1*
X6801D1*
Y10406D1*
G37*
G36*
X5312Y12306D2*
X5590Y12585D1*
X5896Y12278D1*
X5618Y12000D1*
X5312Y12306D1*
G37*
G36*
X5785Y11833D2*
X6064Y12111D1*
X6370Y11805D1*
X6091Y11527D1*
X5785Y11833D1*
G37*
G36*
X14874Y9686D2*
Y8898D1*
X14086D1*
Y9686D1*
X14874D1*
G37*
D22*
X14480Y10292D3*
Y11292D3*
G36*
X5085Y9336D2*
Y10123D1*
X5873D1*
Y9336D1*
X5085D1*
G37*
D22*
X5479Y8729D3*
Y7730D3*
X7389Y8875D2*
D43*
X7374Y8904D1*
X7331Y8947D1*
X7633D1*
X11505Y6504D2*
D44*
X11351Y6906D1*
X11198Y6504D1*
X11256Y6638D2*
X11447D1*
X11628Y6715D2*
X11800D1*
X11858Y6734D1*
X11877Y6753D1*
X11896Y6791D1*
Y6830D1*
X11877Y6868D1*
X11858Y6887D1*
X11800Y6906D1*
X11628D1*
Y6504D1*
X11762Y6715D2*
X11896Y6504D1*
X12326D2*
Y6906D1*
X12173Y6504D1*
X12020Y6906D1*
Y6504D1*
X12678Y6772D2*
Y6504D1*
Y6715D2*
X12640Y6753D1*
X12602Y6772D1*
X12545D1*
X12506Y6753D1*
X12468Y6715D1*
X12449Y6657D1*
Y6619D1*
X12468Y6562D1*
X12506Y6524D1*
X12545Y6504D1*
X12602D1*
X12640Y6524D1*
X12678Y6562D1*
X13031Y6906D2*
Y6504D1*
Y6715D2*
X12993Y6753D1*
X12955Y6772D1*
X12898D1*
X12859Y6753D1*
X12821Y6715D1*
X12802Y6657D1*
Y6619D1*
X12821Y6562D1*
X12859Y6524D1*
X12898Y6504D1*
X12955D1*
X12993Y6524D1*
X13031Y6562D1*
X13384Y6772D2*
Y6504D1*
Y6715D2*
X13346Y6753D1*
X13308Y6772D1*
X13251D1*
X13212Y6753D1*
X13174Y6715D1*
X13155Y6657D1*
Y6619D1*
X13174Y6562D1*
X13212Y6524D1*
X13251Y6504D1*
X13308D1*
X13346Y6524D1*
X13384Y6562D1*
X11251Y8544D2*
D43*
X11409D1*
X11251Y8343D1*
X11409D1*
X11516Y8572D2*
Y8587D1*
X11530Y8616D1*
X11545Y8630D1*
X11573Y8644D1*
X11631D1*
X11659Y8630D1*
X11674Y8616D1*
X11688Y8587D1*
Y8558D1*
X11674Y8529D1*
X11645Y8487D1*
X11501Y8343D1*
X11702D1*
X11343Y5935D2*
D44*
Y5954D1*
X11362Y5993D1*
X11381Y6012D1*
X11419Y6031D1*
X11496D1*
X11534Y6012D1*
X11553Y5993D1*
X11572Y5954D1*
Y5916D1*
X11553Y5878D1*
X11515Y5821D1*
X11323Y5629D1*
X11591D1*
X11734Y5897D2*
X11715Y5878D1*
X11734Y5859D1*
X11753Y5878D1*
X11734Y5897D1*
X11753Y5648D2*
X11734Y5629D1*
X11715Y5648D1*
X11734Y5668D1*
X11753Y5648D1*
Y5610D1*
X11734Y5572D1*
X11715Y5553D1*
X12068Y5629D2*
Y6031D1*
X11877Y5763D1*
X12164D1*
X11246Y9049D2*
D43*
X11404D1*
X11246Y8848D1*
X11404D1*
X11640D2*
Y9149D1*
X11496Y8949D1*
X11712D1*
M02*
